<?xml version="1.0" encoding="UTF-8" standalone="no"?>
<svg
   width="900"
   height="600"
   version="1.1"
   id="svg7217"
   sodipodi:docname="dow--nation--fas.svg"
   inkscape:version="1.1.1 (c3084ef, 2021-09-22)"
   inkscape:export-filename="/Users/jedlimke/code/prairiefiregaming.com/assets/megagames/dow--nation--fas.png"
   inkscape:export-xdpi="128"
   inkscape:export-ydpi="128"
   xmlns:inkscape="http://www.inkscape.org/namespaces/inkscape"
   xmlns:sodipodi="http://sodipodi.sourceforge.net/DTD/sodipodi-0.dtd"
   xmlns="http://www.w3.org/2000/svg"
   xmlns:svg="http://www.w3.org/2000/svg">
  <defs
     id="defs7221" />
  <sodipodi:namedview
     id="namedview7219"
     pagecolor="#ffffff"
     bordercolor="#999999"
     borderopacity="1"
     inkscape:pageshadow="0"
     inkscape:pageopacity="0"
     inkscape:pagecheckerboard="0"
     showgrid="false"
     inkscape:zoom="0.87799092"
     inkscape:cx="314.92353"
     inkscape:cy="357.0652"
     inkscape:window-width="1920"
     inkscape:window-height="1147"
     inkscape:window-x="1728"
     inkscape:window-y="25"
     inkscape:window-maximized="1"
     inkscape:current-layer="svg7217" />
  <path
     fill="#009edb"
     fill-rule="evenodd"
     d="M -1e-5,-2e-5 H 900.00001 V 600.00002 H -1e-5 Z"
     id="path7280-4"
     style="stroke-width:1;fill:#5194de;fill-opacity:1" />
  <path
     fill="#ffffff"
     d="m 450,155.5554 32.43,99.8088 h 104.9448 l -84.9024,61.6854 32.43,99.8082 L 450,355.173 l -84.9024,61.6848 32.43,-99.8082 -84.9024,-61.6854 H 417.57"
     id="path7213"
     style="stroke-width:6" />
  <path
     id="path1435-7"
     style="fill:#ffffff;stroke-width:1.35904"
     d="M 410.54688 91.552734 C 403.85388 92.773859 397.5612 95.346662 391.10547 97.333984 C 384.79958 99.584685 377.78172 101.1768 373.01172 106.02539 C 369.51538 109.4613 368.01632 114.13206 366.06836 118.41797 C 360.51169 121.81797 354.88013 125.12148 349.33594 128.52148 C 355.80416 118.92008 359.62631 107.73745 360.875 96.412109 C 353.38285 100.7938 345.97695 105.43929 339.27148 110.89844 C 331.06758 117.80618 323.61448 127.49255 324.38867 138.4707 C 324.30126 141.30803 326.1851 144.8748 323.52539 147.10156 C 318.09359 152.15366 312.38717 156.94186 306.85547 161.91016 C 313.92306 148.38201 313.83666 132.62823 310.42773 118.1543 C 304.55889 126.00781 298.29 133.58597 292.8457 141.71484 C 285.05387 152.62116 284.64298 167.41685 289.875 179.38867 C 291.24856 178.44289 292.60886 177.49851 293.98242 176.55273 C 288.36331 185.05272 282.36966 193.31269 276.90039 201.89648 C 280.72138 185.33946 274.10339 169.10625 268.77148 153.63867 C 265.68721 161.42035 263.56456 169.50163 261.05469 177.46289 C 259.43139 183.18542 257.38244 188.84764 256.6582 194.76172 C 255.78412 204.85396 259.05697 215.73499 266.44922 223.09766 C 263.81448 230.83145 260.84231 238.47027 258.35742 246.25195 C 255.44797 230.67662 246.12041 217.27954 236.89258 204.51758 C 235.78125 217.15982 234.69381 229.85089 235.13086 242.54102 C 235.91753 252.15439 238.11514 263.03663 246.59375 269.25 C 248.91631 271.15352 253.14974 272.45823 252.52539 276.09766 C 252.06338 283.78357 251.3528 291.4706 250.66602 299.14453 C 246.30809 292.85933 242.02402 286.52595 237.72852 280.2168 C 232.79619 273.12948 225.0667 268.59164 217.88672 263.88672 C 220.27172 277.51065 223.6056 291.02726 227.82617 304.24414 C 231.02282 313.24695 237.87776 320.84781 246.46875 325.55273 C 249.22836 327.14498 252.67538 328.77365 253.41211 332.08984 C 254.99795 339.27293 256.2102 346.53905 257.74609 353.74609 C 246.54533 341.83413 231.59757 334.23224 217.72461 325.64844 C 216.28862 324.7745 214.72766 324.15252 213.1543 323.58984 C 219.11056 335.418 225.40511 347.10362 231.77344 358.74023 C 239.19066 371.98106 253.09973 381.34276 268.49609 383.97656 C 273.21614 392.39274 277.89889 400.85523 282.43164 409.36719 C 267.37243 397.3834 247.84356 393.08731 229.40039 388.31055 C 232.02265 392.57252 235.60602 396.18703 238.74023 400.08984 C 246.19492 409.11659 253.98598 418.16684 264.08789 424.5957 C 274.23975 431.264 286.62687 434.20916 298.85156 433.64648 C 306.48106 440.01549 313.44951 447.21057 320.42969 454.25 C 308.85432 448.58733 295.6313 448.66014 283.01953 447.36719 C 274.95298 446.74465 266.92237 445.51033 258.81836 445.48633 C 270.0441 454.1659 281.72113 462.60614 294.79492 468.58008 C 309.91657 475.4519 328.27203 477.53518 343.69336 470.32812 C 354.28226 475.60771 364.72053 481.17507 375.35938 486.38281 C 351.73413 482.30042 328.58368 490.06985 305.57031 493.97266 C 314.53591 496.36702 323.36329 499.24033 332.31641 501.73047 C 344.31633 505.07061 357.0286 505.98074 369.39062 504.30469 C 376.82034 503.2392 384.21327 500.59331 389.79492 495.625 C 391.40573 494.40388 393.05404 492.28541 395.41406 492.91992 C 403.30579 494.69175 411.23411 496.40283 419.17578 498.04297 C 399.9834 504.56761 382.11472 514.03822 364.12109 523.04102 C 367.87965 523.92694 371.77588 523.63895 375.60938 523.62695 C 389.34497 523.10019 403.2302 521.93812 416.37891 517.84375 C 426.45585 515.04235 435.47092 509.37988 442.38867 501.84961 C 444.75676 500.44079 447.36737 499.93311 450 499.98242 C 452.63263 499.93311 455.24324 500.44079 457.61133 501.84961 C 464.52908 509.37988 473.54415 515.04235 483.62109 517.84375 C 496.7698 521.93812 510.65503 523.10019 524.39062 523.62695 C 528.22411 523.63895 532.12035 523.92694 535.87891 523.04102 C 517.88528 514.03822 500.0166 504.56761 480.82422 498.04297 C 488.76589 496.40283 496.69421 494.69175 504.58594 492.91992 C 506.94596 492.28541 508.59427 494.40388 510.20508 495.625 C 515.78673 500.59331 523.17966 503.2392 530.60938 504.30469 C 542.97141 505.98074 555.68367 505.07061 567.68359 501.73047 C 576.63671 499.24033 585.46409 496.36702 594.42969 493.97266 C 571.41632 490.06985 548.26588 482.30042 524.64062 486.38281 C 535.27948 481.17507 545.71774 475.60771 556.30664 470.32812 C 571.72797 477.53517 590.08343 475.4519 605.20508 468.58008 C 618.27887 462.60614 629.9559 454.1659 641.18164 445.48633 C 633.07763 445.51033 625.04702 446.74465 616.98047 447.36719 C 604.3687 448.66014 591.14568 448.58733 579.57031 454.25 C 586.55049 447.21057 593.51894 440.01549 601.14844 433.64648 C 613.37313 434.20916 625.76025 431.264 635.91211 424.5957 C 646.01402 418.16684 653.80508 409.11659 661.25977 400.08984 C 664.39398 396.18703 667.97735 392.57252 670.59961 388.31055 C 652.15644 393.08731 632.62757 397.3834 617.56836 409.36719 C 622.10111 400.85523 626.78386 392.39274 631.50391 383.97656 C 646.90027 381.34276 660.80934 371.98106 668.22656 358.74023 C 674.59489 347.10362 680.88944 335.418 686.8457 323.58984 C 685.27234 324.15252 683.71138 324.7745 682.27539 325.64844 C 668.40243 334.23224 653.45467 341.83413 642.25391 353.74609 C 643.7898 346.53905 645.00205 339.27293 646.58789 332.08984 C 647.32462 328.77365 650.77164 327.14498 653.53125 325.55273 C 662.12224 320.84781 668.97718 313.24695 672.17383 304.24414 C 676.3944 291.02726 679.72828 277.51065 682.11328 263.88672 C 674.9333 268.59164 667.20381 273.12948 662.27148 280.2168 C 657.97598 286.52595 653.69191 292.85933 649.33398 299.14453 C 648.6472 291.4706 647.93662 283.78357 647.47461 276.09766 C 646.85026 272.45823 651.08369 271.15352 653.40625 269.25 C 661.88486 263.03663 664.08247 252.15439 664.86914 242.54102 C 665.30619 229.85089 664.21875 217.15982 663.10742 204.51758 C 653.87959 217.27954 644.55203 230.67662 641.64258 246.25195 C 639.15769 238.47027 636.18552 230.83145 633.55078 223.09766 C 640.94303 215.73499 644.21588 204.85396 643.3418 194.76172 C 642.61756 188.84764 640.56861 183.18542 638.94531 177.46289 C 636.43544 169.50163 634.31279 161.42035 631.22852 153.63867 C 625.89661 169.10625 619.27862 185.33946 623.09961 201.89648 C 617.63034 193.31269 611.63669 185.05272 606.01758 176.55273 C 607.39114 177.49851 608.75144 178.44289 610.125 179.38867 C 615.35702 167.41685 614.94613 152.62116 607.1543 141.71484 C 601.71 133.58597 595.44111 126.00781 589.57227 118.1543 C 586.16334 132.62823 586.07694 148.38201 593.14453 161.91016 C 587.61283 156.94186 581.90641 152.15366 576.47461 147.10156 C 573.8149 144.8748 575.69873 141.30803 575.61133 138.4707 C 576.38552 127.49255 568.93242 117.80618 560.72852 110.89844 C 554.02305 105.43929 546.61715 100.7938 539.125 96.412109 C 540.37369 107.73745 544.19584 118.92008 550.66406 128.52148 C 545.11987 125.12148 539.48831 121.81797 533.93164 118.41797 C 531.98368 114.13206 530.48462 109.4613 526.98828 106.02539 C 522.21828 101.1768 515.20042 99.584685 508.89453 97.333984 C 502.4388 95.346662 496.14612 92.773859 489.45312 91.552734 C 489.90265 93.384422 489.9778 95.394583 491.16406 96.962891 C 497.58233 105.95373 505.29778 114.51347 515.47461 119.69727 C 521.84294 122.92966 529.885 121.87638 535.69141 126.24609 C 539.47494 128.92778 543.13402 131.74164 546.89258 134.44727 C 535.96653 132.77122 524.67791 133.52545 514.03906 136.38672 C 508.60725 137.90714 503.11401 139.71549 498.59375 143.10352 C 501.35336 143.61831 504.13652 143.95223 506.93359 144.17969 C 522.72953 145.31701 538.51313 148.8613 554.39648 146.92188 C 557.63059 146.55075 561.3386 144.38394 564.24805 146.82617 C 568.35625 149.9987 572.24072 153.44617 576.42383 156.54688 C 562.85056 154.69125 548.86464 151.37575 535.25391 154.94336 C 536.36524 156.11659 537.46536 157.38485 539.07617 157.93555 C 551.9252 163.23906 564.08637 170.47084 577.92188 173.23633 C 582.90416 174.30182 588.01193 174.39631 593.05664 174.95898 C 595.21688 175.10264 596.50242 176.99596 597.70117 178.48047 C 601.34734 183.36497 605.06831 188.20024 608.75195 193.04883 C 595.40344 186.33264 581.45517 178.27594 565.89648 178.52734 C 567.66962 180.57453 569.61871 182.46558 571.81641 184.09375 C 582.46774 192.21064 592.81912 200.73467 603.98242 208.20508 C 609.73889 212.01212 616.9187 213.3422 622.46289 217.38867 C 625.70948 224.14078 628.38242 231.14297 630.99219 238.14648 C 625.31064 231.71762 618.7797 225.87623 610.96289 221.9375 C 603.88282 218.26216 597.13853 214.0238 589.93359 210.58789 C 590.40809 212.73085 591.51978 214.6469 592.88086 216.38281 C 601.09724 227.32505 608.90251 238.55364 617.63086 249.13672 C 622.41335 254.89517 628.16995 259.98438 634.90039 263.58789 C 636.29892 264.50972 638.3959 265.15533 638.5957 267.04688 C 639.99423 276.66024 640.7805 286.35777 641.55469 296.04297 C 637.68375 277.78595 622.22474 265.11922 608.18945 253.56641 C 614.84497 277.22272 621.20252 303.11771 641.11914 320.09375 C 639.29605 330.55712 637.67147 341.08113 635.42383 351.47266 C 634.77451 346.19309 634.77459 340.81781 633.26367 335.66992 C 630.01708 323.50656 622.42453 313.06724 615.26953 302.77148 C 614.54529 301.76585 613.80953 300.64008 612.46094 300.38867 C 611.96148 304.29148 612.09911 308.25318 612.36133 312.16797 C 613.41023 324.12781 614.52049 336.07582 615.80664 348.01172 C 616.78062 357.25396 622.03764 365.56361 628.50586 372.25586 C 623.4112 382.14458 618.90434 392.33313 613.34766 401.98242 C 617.99279 383.07892 612.77266 363.65922 604.94336 346.24023 C 602.74567 356.35641 600.71027 366.50984 598.21289 376.57812 C 596.02768 385.58095 593.95483 394.92938 595.57812 404.18359 C 596.30237 409.35542 598.10136 414.31331 599.02539 419.44922 C 599.69968 421.47246 597.87535 422.86052 596.72656 424.28516 C 592.43106 429.22952 587.84857 433.94677 583.51562 438.86719 C 588.4979 423.45946 585.20283 407.28446 585.30273 391.51758 C 580.49527 399.46687 575.86193 407.51208 571.2168 415.5332 C 564.86096 426.34375 558.90529 438.24415 559.8418 450.99414 C 560.10403 454.07089 560.60275 457.83046 557.63086 459.9375 C 552.04921 463.92411 545.86885 467.08449 540 470.66406 C 548.61597 458.27323 551.88695 443.40369 553.59766 428.83398 C 544.21999 438.11214 535.1552 447.67703 525.96484 457.13477 C 521.71929 461.85167 516.42496 466.04212 514.15234 472.08789 C 512.69137 475.49986 512.94083 479.36664 511.26758 482.71875 C 504.66201 485.52016 497.45681 486.81396 490.53906 488.77734 C 500.07906 479.48721 509.58225 469.40724 513.51562 456.60938 C 501.69053 461.27839 489.7637 465.77851 478.23828 471.08203 C 470.07184 474.75737 464.991 482.36108 461.99414 490.22656 C 461.07011 493.36318 457.29832 493.20641 454.57617 493.05078 C 453.05181 492.92964 451.52572 492.96104 450 492.93164 C 448.47428 492.96104 446.94819 492.92954 445.42383 493.05078 C 442.70168 493.20641 438.92989 493.36318 438.00586 490.22656 C 435.009 482.36108 429.92816 474.75737 421.76172 471.08203 C 410.2363 465.77851 398.30947 461.27838 386.48438 456.60938 C 390.41775 469.40724 399.92094 479.48721 409.46094 488.77734 C 402.54319 486.81396 395.33799 485.52016 388.73242 482.71875 C 387.05917 479.36664 387.30863 475.49986 385.84766 472.08789 C 383.57504 466.04212 378.28071 461.85167 374.03516 457.13477 C 364.8448 447.67703 355.78001 438.11214 346.40234 428.83398 C 348.11305 443.40369 351.38403 458.27323 360 470.66406 C 354.13115 467.08449 347.95079 463.92411 342.36914 459.9375 C 339.39725 457.83046 339.89597 454.07089 340.1582 450.99414 C 341.09471 438.24415 335.13904 426.34375 328.7832 415.5332 C 324.13807 407.51208 319.50473 399.46687 314.69727 391.51758 C 314.79716 407.28446 311.50209 423.45946 316.48438 438.86719 C 312.15143 433.94677 307.56894 429.22952 303.27344 424.28516 C 302.12465 422.86052 300.30032 421.47246 300.97461 419.44922 C 301.89864 414.31331 303.69763 409.35542 304.42188 404.18359 C 306.04518 394.92938 303.97232 385.58095 301.78711 376.57812 C 299.28973 366.50984 297.25433 356.35641 295.05664 346.24023 C 287.22734 363.65922 282.00721 383.07892 286.65234 401.98242 C 281.09566 392.33313 276.5888 382.14458 271.49414 372.25586 C 277.96236 365.56361 283.21938 357.25396 284.19336 348.01172 C 285.47951 336.07582 286.58977 324.12781 287.63867 312.16797 C 287.90089 308.25318 288.03853 304.29148 287.53906 300.38867 C 286.19047 300.64008 285.45471 301.76585 284.73047 302.77148 C 277.57547 313.06724 269.98292 323.50656 266.73633 335.66992 C 265.22541 340.81781 265.22549 346.19309 264.57617 351.47266 C 262.32853 341.08113 260.70395 330.55712 258.88086 320.09375 C 278.79748 303.11771 285.15503 277.22272 291.81055 253.56641 C 277.77526 265.11922 262.31625 277.78595 258.44531 296.04297 C 259.2195 286.35777 260.00577 276.66023 261.4043 267.04688 C 261.6041 265.15533 263.70108 264.50972 265.09961 263.58789 C 271.83005 259.98438 277.58665 254.89517 282.36914 249.13672 C 291.09749 238.55364 298.90276 227.32505 307.11914 216.38281 C 308.48022 214.6469 309.59191 212.73085 310.06641 210.58789 C 302.86147 214.0238 296.11718 218.26216 289.03711 221.9375 C 281.2203 225.87623 274.68936 231.71762 269.00781 238.14648 C 271.61758 231.14297 274.29052 224.14078 277.53711 217.38867 C 283.0813 213.3422 290.26111 212.01212 296.01758 208.20508 C 307.18088 200.73467 317.53226 192.21064 328.18359 184.09375 C 330.38129 182.46558 332.33038 180.57453 334.10352 178.52734 C 318.54483 178.27594 304.59656 186.33264 291.24805 193.04883 C 294.93169 188.20024 298.65266 183.36497 302.29883 178.48047 C 303.49758 176.99596 304.78312 175.10264 306.94336 174.95898 C 311.98807 174.39631 317.09584 174.30182 322.07812 173.23633 C 335.91362 170.47084 348.0748 163.23906 360.92383 157.93555 C 362.53464 157.38485 363.63476 156.11659 364.74609 154.94336 C 351.13536 151.37575 337.14944 154.69125 323.57617 156.54688 C 327.75928 153.44617 331.64375 149.9987 335.75195 146.82617 C 338.6614 144.38394 342.36941 146.55075 345.60352 146.92188 C 361.48687 148.8613 377.27047 145.31701 393.06641 144.17969 C 395.86348 143.95223 398.64664 143.61831 401.40625 143.10352 C 396.88599 139.71549 391.39275 137.90714 385.96094 136.38672 C 375.32209 133.52545 364.03347 132.77122 353.10742 134.44727 C 356.86598 131.74164 360.52506 128.92778 364.30859 126.24609 C 370.115 121.87638 378.15706 122.92966 384.52539 119.69727 C 394.70222 114.51347 402.41767 105.95373 408.83594 96.962891 C 410.0222 95.394583 410.09735 93.384422 410.54688 91.552734 z " />
</svg>
