<?xml version="1.0" encoding="UTF-8" standalone="no"?>
<svg
   width="4800"
   height="3200"
   version="1.1"
   id="svg7217"
   sodipodi:docname="dow--nation--fas.svg"
   inkscape:version="1.1.1 (c3084ef, 2021-09-22)"
   inkscape:export-filename="/Users/jedlimke/code/prairiefiregaming.com/assets/megagames/dow--nation--fas.png"
   inkscape:export-xdpi="128"
   inkscape:export-ydpi="128"
   xmlns:inkscape="http://www.inkscape.org/namespaces/inkscape"
   xmlns:sodipodi="http://sodipodi.sourceforge.net/DTD/sodipodi-0.dtd"
   xmlns="http://www.w3.org/2000/svg"
   xmlns:svg="http://www.w3.org/2000/svg">
  <defs
     id="defs7221" />
  <sodipodi:namedview
     id="namedview7219"
     pagecolor="#ffffff"
     bordercolor="#999999"
     borderopacity="1"
     inkscape:pageshadow="0"
     inkscape:pageopacity="0"
     inkscape:pagecheckerboard="0"
     showgrid="false"
     inkscape:zoom="0.088388348"
     inkscape:cx="2019.497"
     inkscape:cy="2732.2606"
     inkscape:window-width="1920"
     inkscape:window-height="1147"
     inkscape:window-x="1728"
     inkscape:window-y="25"
     inkscape:window-maximized="1"
     inkscape:current-layer="svg7217"
     fit-margin-top="0"
     fit-margin-left="0"
     fit-margin-right="0"
     fit-margin-bottom="0" />
  <g
     id="g913"
     transform="matrix(5.3333332,0,0,5.3333332,5.3333332e-5,1.0666666e-4)"
     style="stroke-width:0.1875">
    <path
       fill="#009edb"
       fill-rule="evenodd"
       d="M -1e-5,-2e-5 H 900.00001 V 600.00002 H -1e-5 Z"
       id="path7280-4"
       style="fill:#5194de;fill-opacity:1;stroke-width:0.1875" />
    <path
       fill="#ffffff"
       d="m 450,155.5554 32.43,99.8088 h 104.9448 l -84.9024,61.6854 32.43,99.8082 L 450,355.173 l -84.9024,61.6848 32.43,-99.8082 -84.9024,-61.6854 H 417.57"
       id="path7213"
       style="stroke-width:1.125" />
    <path
       id="path1435-7"
       style="fill:#ffffff;stroke-width:0.25482"
       d="m 410.54688,91.552734 c -6.693,1.221125 -12.98568,3.793928 -19.44141,5.78125 -6.30589,2.250701 -13.32375,3.842816 -18.09375,8.691406 -3.49634,3.43591 -4.9954,8.10667 -6.94336,12.39258 -5.55667,3.4 -11.18823,6.70351 -16.73242,10.10351 6.46822,-9.6014 10.29037,-20.78403 11.53906,-32.109371 -7.49215,4.381691 -14.89805,9.027181 -21.60352,14.486331 -8.2039,6.90774 -15.657,16.59411 -14.88281,27.57226 -0.0874,2.83733 1.79643,6.4041 -0.86328,8.63086 -5.4318,5.0521 -11.13822,9.8403 -16.66992,14.8086 7.06759,-13.52815 6.98119,-29.28193 3.57226,-43.75586 -5.86884,7.85351 -12.13773,15.43167 -17.58203,23.56054 -7.79183,10.90632 -8.20272,25.70201 -2.9707,37.67383 1.37356,-0.94578 2.73386,-1.89016 4.10742,-2.83594 -5.61911,8.49999 -11.61276,16.75996 -17.08203,25.34375 3.82099,-16.55702 -2.797,-32.79023 -8.12891,-48.25781 -3.08427,7.78168 -5.20692,15.86296 -7.71679,23.82422 -1.6233,5.72253 -3.67225,11.38475 -4.39649,17.29883 -0.87408,10.09224 2.39877,20.97327 9.79102,28.33594 -2.63474,7.73379 -5.60691,15.37261 -8.0918,23.15429 -2.90945,-15.57533 -12.23701,-28.97241 -21.46484,-41.73437 -1.11133,12.64224 -2.19877,25.33331 -1.76172,38.02344 0.78667,9.61337 2.98428,20.49561 11.46289,26.70898 2.32256,1.90352 6.55599,3.20823 5.93164,6.84766 -0.46201,7.68591 -1.17259,15.37294 -1.85937,23.04687 -4.35793,-6.2852 -8.642,-12.61858 -12.9375,-18.92773 -4.93233,-7.08732 -12.66182,-11.62516 -19.8418,-16.33008 2.385,13.62393 5.71888,27.14054 9.93945,40.35742 3.19665,9.00281 10.05159,16.60367 18.64258,21.30859 2.75961,1.59225 6.20663,3.22092 6.94336,6.53711 1.58584,7.18309 2.79809,14.44921 4.33398,21.65625 -11.20076,-11.91196 -26.14852,-19.51385 -40.02148,-28.09765 -1.43599,-0.87394 -2.99695,-1.49592 -4.57031,-2.0586 5.95626,11.82816 12.25081,23.51378 18.61914,35.15039 7.41722,13.24083 21.32629,22.60253 36.72265,25.23633 4.72005,8.41618 9.4028,16.87867 13.93555,25.39063 -15.05921,-11.98379 -34.58808,-16.27988 -53.03125,-21.05664 2.62226,4.26197 6.20563,7.87648 9.33984,11.77929 7.45469,9.02675 15.24575,18.077 25.34766,24.50586 10.15186,6.6683 22.53898,9.61346 34.76367,9.05078 7.6295,6.36901 14.59795,13.56409 21.57813,20.60352 -11.57537,-5.66267 -24.79839,-5.58986 -37.41016,-6.88281 -8.06655,-0.62254 -16.09716,-1.85686 -24.20117,-1.88086 11.22574,8.67957 22.90277,17.11981 35.97656,23.09375 15.12165,6.87182 33.47711,8.9551 48.89844,1.74804 10.5889,5.27959 21.02717,10.84695 31.66602,16.05469 -23.62525,-4.08239 -46.7757,3.68704 -69.78907,7.58985 8.9656,2.39436 17.79298,5.26767 26.7461,7.75781 11.99992,3.34014 24.71219,4.25027 37.07421,2.57422 7.42972,-1.06549 14.82265,-3.71138 20.4043,-8.67969 1.61081,-1.22112 3.25912,-3.33959 5.61914,-2.70508 7.89173,1.77183 15.82005,3.48291 23.76172,5.12305 -19.19238,6.52464 -37.06106,15.99525 -55.05469,24.99805 3.75856,0.88592 7.65479,0.59793 11.48829,0.58593 13.73559,-0.52676 27.62082,-1.68883 40.76953,-5.7832 10.07694,-2.8014 19.09201,-8.46387 26.00976,-15.99414 2.36809,-1.40882 4.9787,-1.9165 7.61133,-1.86719 2.63263,-0.0493 5.24324,0.45837 7.61133,1.86719 6.91775,7.53027 15.93282,13.19274 26.00976,15.99414 13.14871,4.09437 27.03394,5.25644 40.76953,5.7832 3.83349,0.012 7.72973,0.29999 11.48829,-0.58593 -17.99363,-9.0028 -35.86231,-18.47341 -55.05469,-24.99805 7.94167,-1.64014 15.86999,-3.35122 23.76172,-5.12305 2.36002,-0.63451 4.00833,1.48396 5.61914,2.70508 5.58165,4.96831 12.97458,7.6142 20.4043,8.67969 12.36203,1.67605 25.07429,0.76592 37.07421,-2.57422 8.95312,-2.49014 17.7805,-5.36345 26.7461,-7.75781 -23.01337,-3.90281 -46.16381,-11.67224 -69.78907,-7.58985 10.63886,-5.20774 21.07712,-10.7751 31.66602,-16.05469 15.42133,7.20705 33.77679,5.12378 48.89844,-1.74804 13.07379,-5.97394 24.75082,-14.41418 35.97656,-23.09375 -8.10401,0.024 -16.13462,1.25832 -24.20117,1.88086 -12.61177,1.29295 -25.83479,1.22014 -37.41016,6.88281 6.98018,-7.03943 13.94863,-14.23451 21.57813,-20.60352 12.22469,0.56268 24.61181,-2.38248 34.76367,-9.05078 10.10191,-6.42886 17.89297,-15.47911 25.34766,-24.50586 3.13421,-3.90281 6.71758,-7.51732 9.33984,-11.77929 -18.44317,4.77676 -37.97204,9.07285 -53.03125,21.05664 4.53275,-8.51196 9.2155,-16.97445 13.93555,-25.39063 15.39636,-2.6338 29.30543,-11.9955 36.72265,-25.23633 6.36833,-11.63661 12.66288,-23.32223 18.61914,-35.15039 -1.57336,0.56268 -3.13432,1.18466 -4.57031,2.0586 -13.87296,8.5838 -28.82072,16.18569 -40.02148,28.09765 1.53589,-7.20704 2.74814,-14.47316 4.33398,-21.65625 0.73673,-3.31619 4.18375,-4.94486 6.94336,-6.53711 8.59099,-4.70492 15.44593,-12.30578 18.64258,-21.30859 4.22057,-13.21688 7.55445,-26.73349 9.93945,-40.35742 -7.17998,4.70492 -14.90947,9.24276 -19.8418,16.33008 -4.2955,6.30915 -8.57957,12.64253 -12.9375,18.92773 -0.68678,-7.67393 -1.39736,-15.36096 -1.85937,-23.04687 -0.62435,-3.63943 3.60908,-4.94414 5.93164,-6.84766 8.47861,-6.21337 10.67622,-17.09561 11.46289,-26.70898 0.43705,-12.69013 -0.65039,-25.3812 -1.76172,-38.02344 -9.22783,12.76196 -18.55539,26.15904 -21.46484,41.73437 -2.48489,-7.78168 -5.45706,-15.4205 -8.0918,-23.15429 7.39225,-7.36267 10.6651,-18.2437 9.79102,-28.33594 -0.72424,-5.91408 -2.77319,-11.5763 -4.39649,-17.29883 -2.50987,-7.96126 -4.63252,-16.04254 -7.71679,-23.82422 -5.33191,15.46758 -11.9499,31.70079 -8.12891,48.25781 -5.46927,-8.58379 -11.46292,-16.84376 -17.08203,-25.34375 1.37356,0.94578 2.73386,1.89016 4.10742,2.83594 5.23202,-11.97182 4.82113,-26.76751 -2.9707,-37.67383 -5.4443,-8.12887 -11.71319,-15.70703 -17.58203,-23.56054 -3.40893,14.47393 -3.49533,30.22771 3.57226,43.75586 -5.5317,-4.9683 -11.23812,-9.7565 -16.66992,-14.8086 -2.65971,-2.22676 -0.77588,-5.79353 -0.86328,-8.63086 0.77419,-10.97815 -6.67891,-20.66452 -14.88281,-27.57226 -6.70547,-5.45915 -14.11137,-10.10464 -21.60352,-14.486331 1.24869,11.325341 5.07084,22.507971 11.53906,32.109371 -5.54419,-3.4 -11.17575,-6.70351 -16.73242,-10.10351 -1.94796,-4.28591 -3.44702,-8.95667 -6.94336,-12.39258 -4.77,-4.84859 -11.78786,-6.440705 -18.09375,-8.691406 -6.45573,-1.987322 -12.74841,-4.560125 -19.44141,-5.78125 0.44953,1.831688 0.52468,3.841849 1.71094,5.410157 6.41827,8.990839 14.13372,17.550579 24.31055,22.734379 6.36833,3.23239 14.41039,2.17911 20.2168,6.54882 3.78353,2.68169 7.44261,5.49555 11.20117,8.20118 -10.92605,-1.67605 -22.21467,-0.92182 -32.85352,1.93945 -5.43181,1.52042 -10.92505,3.32877 -15.44531,6.7168 2.75961,0.51479 5.54277,0.84871 8.33984,1.07617 15.79594,1.13732 31.57954,4.68161 47.46289,2.74219 3.23411,-0.37113 6.94212,-2.53794 9.85157,-0.0957 4.1082,3.17253 7.99267,6.62 12.17578,9.72071 -13.57327,-1.85563 -27.55919,-5.17113 -41.16992,-1.60352 1.11133,1.17323 2.21145,2.44149 3.82226,2.99219 12.84903,5.30351 25.0102,12.53529 38.84571,15.30078 4.98228,1.06549 10.09005,1.15998 15.13476,1.72265 2.16024,0.14366 3.44578,2.03698 4.64453,3.52149 3.64617,4.8845 7.36714,9.71977 11.05078,14.56836 -13.34851,-6.71619 -27.29678,-14.77289 -42.85547,-14.52149 1.77314,2.04719 3.72223,3.93824 5.91993,5.56641 10.65133,8.11689 21.00271,16.64092 32.16601,24.11133 5.75647,3.80704 12.93628,5.13712 18.48047,9.18359 3.24659,6.75211 5.91953,13.7543 8.5293,20.75781 -5.68155,-6.42886 -12.21249,-12.27025 -20.0293,-16.20898 -7.08007,-3.67534 -13.82436,-7.9137 -21.0293,-11.34961 0.4745,2.14296 1.58619,4.05901 2.94727,5.79492 8.21638,10.94224 16.02165,22.17083 24.75,32.75391 4.78249,5.75845 10.53909,10.84766 17.26953,14.45117 1.39853,0.92183 3.49551,1.56744 3.69531,3.45899 1.39853,9.61336 2.1848,19.31089 2.95899,28.99609 -3.87094,-18.25702 -19.32995,-30.92375 -33.36524,-42.47656 6.65552,23.65631 13.01307,49.5513 32.92969,66.52734 -1.82309,10.46337 -3.44767,20.98738 -5.69531,31.37891 -0.64932,-5.27957 -0.64924,-10.65485 -2.16016,-15.80274 -3.24659,-12.16336 -10.83914,-22.60268 -17.99414,-32.89844 -0.72424,-1.00563 -1.46,-2.1314 -2.80859,-2.38281 -0.49946,3.90281 -0.36183,7.86451 -0.0996,11.7793 1.0489,11.95984 2.15916,23.90785 3.44531,35.84375 0.97398,9.24224 6.231,17.55189 12.69922,24.24414 -5.09466,9.88872 -9.60152,20.07727 -15.1582,29.72656 4.64513,-18.9035 -0.575,-38.3232 -8.4043,-55.74219 -2.19769,10.11618 -4.23309,20.26961 -6.73047,30.33789 -2.18521,9.00283 -4.25806,18.35126 -2.63477,27.60547 0.72425,5.17183 2.52324,10.12972 3.44727,15.26563 0.67429,2.02324 -1.15004,3.4113 -2.29883,4.83594 -4.2955,4.94436 -8.87799,9.66161 -13.21094,14.58203 4.98228,-15.40773 1.68721,-31.58273 1.78711,-47.34961 -4.80746,7.94929 -9.4408,15.9945 -14.08593,24.01562 -6.35584,10.81055 -12.31151,22.71095 -11.375,35.46094 0.26223,3.07675 0.76095,6.83632 -2.21094,8.94336 -5.58165,3.98661 -11.76201,7.14699 -17.63086,10.72656 8.61597,-12.39083 11.88695,-27.26037 13.59766,-41.83008 -9.37767,9.27816 -18.44246,18.84305 -27.63282,28.30079 -4.24555,4.7169 -9.53988,8.90735 -11.8125,14.95312 -1.46097,3.41197 -1.21151,7.27875 -2.88476,10.63086 -6.60557,2.80141 -13.81077,4.09521 -20.72852,6.05859 9.54,-9.29013 19.04319,-19.3701 22.97656,-32.16796 -11.82509,4.66901 -23.75192,9.16913 -35.27734,14.47265 -8.16644,3.67534 -13.24728,11.27905 -16.24414,19.14453 -0.92403,3.13662 -4.69582,2.97985 -7.41797,2.82422 -1.52436,-0.12114 -3.05045,-0.0897 -4.57617,-0.11914 -1.52572,0.0294 -3.05181,-0.002 -4.57617,0.11914 -2.72215,0.15563 -6.49394,0.3124 -7.41797,-2.82422 -2.99686,-7.86548 -8.0777,-15.46919 -16.24414,-19.14453 -11.52542,-5.30352 -23.45225,-9.80365 -35.27734,-14.47265 3.93337,12.79786 13.43656,22.87783 22.97656,32.16796 -6.91775,-1.96338 -14.12295,-3.25718 -20.72852,-6.05859 -1.67325,-3.35211 -1.42379,-7.21889 -2.88476,-10.63086 -2.27262,-6.04577 -7.56695,-10.23622 -11.8125,-14.95312 -9.19036,-9.45774 -18.25515,-19.02263 -27.63282,-28.30079 1.71071,14.56971 4.98169,29.43925 13.59766,41.83008 -5.86885,-3.57957 -12.04921,-6.73995 -17.63086,-10.72656 -2.97189,-2.10704 -2.47317,-5.86661 -2.21094,-8.94336 0.93651,-12.74999 -5.01916,-24.65039 -11.375,-35.46094 -4.64513,-8.02112 -9.27847,-16.06633 -14.08593,-24.01562 0.0999,15.76688 -3.19518,31.94188 1.78711,47.34961 -4.33295,-4.92042 -8.91544,-9.63767 -13.21094,-14.58203 -1.14879,-1.42464 -2.97312,-2.8127 -2.29883,-4.83594 0.92403,-5.13591 2.72302,-10.0938 3.44727,-15.26563 1.6233,-9.25421 -0.44956,-18.60264 -2.63477,-27.60547 -2.49738,-10.06828 -4.53278,-20.22171 -6.73047,-30.33789 -7.8293,17.41899 -13.04943,36.83869 -8.4043,55.74219 -5.55668,-9.64929 -10.06354,-19.83784 -15.1582,-29.72656 6.46822,-6.69225 11.72524,-15.0019 12.69922,-24.24414 1.28615,-11.9359 2.39641,-23.88391 3.44531,-35.84375 0.26222,-3.91479 0.39986,-7.87649 -0.0996,-11.7793 -1.34859,0.25141 -2.08435,1.37718 -2.80859,2.38281 -7.155,10.29576 -14.74755,20.73508 -17.99414,32.89844 -1.51092,5.14789 -1.51084,10.52317 -2.16016,15.80274 -2.24764,-10.39153 -3.87222,-20.91554 -5.69531,-31.37891 19.91662,-16.97604 26.27417,-42.87103 32.92969,-66.52734 -14.03529,11.55281 -29.4943,24.21954 -33.36524,42.47656 0.77419,-9.6852 1.56046,-19.38274 2.95899,-28.99609 0.1998,-1.89155 2.29678,-2.53716 3.69531,-3.45899 6.73044,-3.60351 12.48704,-8.69272 17.26953,-14.45117 8.72835,-10.58308 16.53362,-21.81167 24.75,-32.75391 1.36108,-1.73591 2.47277,-3.65196 2.94727,-5.79492 -7.20494,3.43591 -13.94923,7.67427 -21.0293,11.34961 -7.81681,3.93873 -14.34775,9.78012 -20.0293,16.20898 2.60977,-7.00351 5.28271,-14.0057 8.5293,-20.75781 5.54419,-4.04647 12.724,-5.37655 18.48047,-9.18359 11.1633,-7.47041 21.51468,-15.99444 32.16601,-24.11133 2.1977,-1.62817 4.14679,-3.51922 5.91993,-5.56641 -15.55869,-0.2514 -29.50696,7.8053 -42.85547,14.52149 3.68364,-4.84859 7.40461,-9.68386 11.05078,-14.56836 1.19875,-1.48451 2.48429,-3.37783 4.64453,-3.52149 5.04471,-0.56267 10.15248,-0.65716 15.13476,-1.72265 13.8355,-2.76549 25.99668,-9.99727 38.84571,-15.30078 1.61081,-0.5507 2.71093,-1.81896 3.82226,-2.99219 -13.61073,-3.56761 -27.59665,-0.25211 -41.16992,1.60352 4.18311,-3.10071 8.06758,-6.54818 12.17578,-9.72071 2.90945,-2.44223 6.61746,-0.27542 9.85157,0.0957 15.88335,1.93942 31.66695,-1.60487 47.46289,-2.74219 2.79707,-0.22746 5.58023,-0.56138 8.33984,-1.07617 -4.52026,-3.38803 -10.0135,-5.19638 -15.44531,-6.7168 -10.63885,-2.86127 -21.92747,-3.6155 -32.85352,-1.93945 3.75856,-2.70563 7.41764,-5.51949 11.20117,-8.20118 5.80641,-4.36971 13.84847,-3.31643 20.2168,-6.54882 10.17683,-5.1838 17.89228,-13.74354 24.31055,-22.734379 1.18626,-1.568308 1.26141,-3.578469 1.71094,-5.410157 z" />
  </g>
</svg>
