<?xml version="1.0" encoding="UTF-8" standalone="no"?>
<!-- Created with Inkscape (http://www.inkscape.org/) -->

<svg
   width="1980"
   height="180"
   viewBox="0 0 523.87499 47.625001"
   version="1.1"
   id="svg5"
   inkscape:version="1.1.1 (c3084ef, 2021-09-22)"
   sodipodi:docname="dow--rules--morale-track.svg"
   xmlns:inkscape="http://www.inkscape.org/namespaces/inkscape"
   xmlns:sodipodi="http://sodipodi.sourceforge.net/DTD/sodipodi-0.dtd"
   xmlns="http://www.w3.org/2000/svg"
   xmlns:svg="http://www.w3.org/2000/svg">
  <sodipodi:namedview
     id="namedview7"
     pagecolor="#ffffff"
     bordercolor="#999999"
     borderopacity="1"
     inkscape:pageshadow="0"
     inkscape:pageopacity="0"
     inkscape:pagecheckerboard="0"
     inkscape:document-units="mm"
     showgrid="false"
     units="px"
     inkscape:zoom="0.44686297"
     inkscape:cx="844.77799"
     inkscape:cy="128.67479"
     inkscape:window-width="1920"
     inkscape:window-height="1147"
     inkscape:window-x="1728"
     inkscape:window-y="25"
     inkscape:window-maximized="1"
     inkscape:current-layer="layer1"
     borderlayer="true">
    <inkscape:grid
       type="xygrid"
       id="grid8939" />
  </sodipodi:namedview>
  <defs
     id="defs2" />
  <g
     inkscape:label="Layer 1"
     inkscape:groupmode="layer"
     id="layer1">
    <path
       id="rect846-2-5-4-5-4"
       style="fill:#f2f2f2;stroke-width:10.5833;stroke-linecap:round;stroke-linejoin:round"
       d="M 0,0 H 523.875 V 47.625 H 0 Z" />
    <path
       id="rect846-2"
       style="fill:#f2f2f2;stroke-width:10.5833;stroke-linecap:round;stroke-linejoin:round"
       d="M 0,0 H 47.625 V 47.625 H 0 Z" />
    <path
       id="rect846-2-5"
       style="fill:#ffffff;stroke-width:10.5833;stroke-linecap:round;stroke-linejoin:round"
       d="M 47.625,0 H 95.25 V 47.625 H 47.625 Z" />
    <path
       id="rect846-2-2"
       style="fill:#f2f2f2;stroke-width:10.5833;stroke-linecap:round;stroke-linejoin:round"
       d="m 95.25,0 h 47.625 V 47.625 H 95.25 Z" />
    <path
       id="rect846-2-5-4"
       style="fill:#ffffff;stroke-width:10.5833;stroke-linecap:round;stroke-linejoin:round"
       d="M 142.875,0 H 190.5 v 47.625 h -47.625 z" />
    <path
       id="rect846-2-25"
       style="fill:#f2f2f2;stroke-width:10.5833;stroke-linecap:round;stroke-linejoin:round"
       d="m 190.5,0 h 47.625 V 47.625 H 190.5 Z" />
    <path
       id="rect846-2-5-7"
       style="fill:#ffffff;stroke-width:10.5833;stroke-linecap:round;stroke-linejoin:round"
       d="M 238.125,0 H 285.75 V 47.625 H 238.125 Z" />
    <path
       id="rect846-2-2-8"
       style="fill:#f2f2f2;stroke-width:10.5833;stroke-linecap:round;stroke-linejoin:round"
       d="m 285.75,0 h 47.625 V 47.625 H 285.75 Z" />
    <path
       id="rect846-2-5-4-5"
       style="fill:#ffffff;stroke-width:10.5833;stroke-linecap:round;stroke-linejoin:round"
       d="M 333.375,0 H 381 v 47.625 h -47.625 z" />
    <path
       id="rect846-2-5-7-7"
       style="fill:#f2f2f2;stroke-width:10.5833;stroke-linecap:round;stroke-linejoin:round"
       d="m 381,0 h 47.625 V 47.625 H 381 Z" />
    <path
       id="rect846-2-2-8-6"
       style="fill:#ffffff;stroke-width:10.5833;stroke-linecap:round;stroke-linejoin:round"
       d="M 428.625,0 H 476.25 V 47.625 H 428.625 Z" />
    <g
       aria-label="10"
       id="text3111-4"
       style="font-weight:bold;font-size:31.75px;line-height:0;font-family:Tofino;-inkscape-font-specification:'Tofino Bold';text-align:center;text-anchor:middle;fill:#008000;stroke-width:0.264584">
      <path
         d="m 11.730136,35.369499 h 6.00075 v -23.114 h -3.65125 l -6.0959997,2.44475 v 4.8895 l 3.7147497,-1.27 z"
         style="font-weight:800;line-height:0.9;-inkscape-font-specification:'Tofino Ultra-Bold'"
         id="path14886" />
      <path
         d="m 30.179863,35.845749 c 6.31825,0 9.4615,-2.667 9.4615,-12.065 0,-9.3345 -3.14325,-12.0015 -9.4615,-12.0015 -6.35,0 -9.4615,2.667 -9.4615,12.0015 0,9.398 3.1115,12.065 9.4615,12.065 z m -3.39725,-12.065 c 0,-5.9055 1.27,-6.88975 3.39725,-6.88975 2.12725,0 3.429,0.98425 3.429,6.88975 0,6.00075 -1.30175,6.95325 -3.429,6.95325 -2.12725,0 -3.39725,-0.9525 -3.39725,-6.95325 z"
         style="font-weight:800;line-height:0.9;-inkscape-font-specification:'Tofino Ultra-Bold'"
         id="path14888" />
    </g>
    <g
       aria-label="9"
       id="text3111-4-5"
       style="font-weight:bold;font-size:31.75px;line-height:0;font-family:Tofino;-inkscape-font-specification:'Tofino Bold';text-align:center;text-anchor:middle;fill:#008000;stroke-width:0.264584">
      <path
         d="m 71.55855,35.813999 c 7.01675,0 9.55675,-3.1115 9.55675,-12.28725 0,-8.35025 -2.3495,-11.7475 -9.49325,-11.7475 -6.9215,0.03175 -8.98525,3.302 -8.98525,8.255 0,4.7625 1.651,7.90575 7.27075,7.90575 2.0955,0 3.71475,-0.508 4.8895,-1.143 -0.34925,3.33375 -1.3335,4.15925 -3.175,4.15925 -1.9685,0 -2.6035,-0.889 -2.6035,-2.00025 h -5.969 c 0,3.937 1.9685,6.858 8.509,6.858 z m -2.8575,-15.84325 c 0,-1.9685 0.8255,-3.302 2.921,-3.302 2.06375,0 3.1115,1.30175 3.302,5.11175 -0.73025,0.8255 -1.778,1.49225 -3.27025,1.49225 -1.93675,0 -2.95275,-1.27 -2.95275,-3.302 z"
         style="font-weight:800;line-height:0.9;-inkscape-font-specification:'Tofino Ultra-Bold'"
         id="path14883" />
    </g>
    <g
       aria-label="8"
       id="text3111-4-1"
       style="font-weight:bold;font-size:31.75px;line-height:0;font-family:Tofino;-inkscape-font-specification:'Tofino Bold';text-align:center;text-anchor:middle;fill:#008000;stroke-width:0.264584">
      <path
         d="m 119.5395,35.750499 c 7.33425,0 9.525,-2.76225 9.525,-6.95325 0,-4.34975 -2.3495,-5.81025 -3.90525,-5.93725 1.30175,-0.127 3.01625,-1.36525 3.01625,-4.79425 0,-3.4925 -1.9685,-6.2865 -8.636,-6.2865 -6.69925,0 -8.66775,2.794 -8.66775,6.2865 0,3.429 1.74625,4.6355 3.048,4.79425 -1.5875,0.127 -3.937,1.5875 -3.937,5.93725 0,4.191 2.19075,6.95325 9.55675,6.95325 z m -3.14325,-7.62 c 0,-1.8415 0.85725,-2.88925 3.14325,-2.88925 2.286,0 3.14325,1.04775 3.14325,2.88925 0,1.905 -0.85725,2.921 -3.14325,2.921 -2.286,0 -3.14325,-1.016 -3.14325,-2.921 z m 0.254,-9.49325 c 0,-1.524 0.762,-2.44475 2.8575,-2.44475 2.12725,0 2.921,0.92075 2.921,2.44475 0,1.524 -0.8255,2.44475 -2.88925,2.44475 -2.06375,0 -2.88925,-0.92075 -2.88925,-2.44475 z"
         style="font-weight:800;line-height:0.9;-inkscape-font-specification:'Tofino Ultra-Bold'"
         id="path14880" />
    </g>
    <g
       aria-label="7"
       id="text3111-4-5-5"
       style="font-weight:bold;font-size:31.75px;line-height:0;font-family:Tofino;-inkscape-font-specification:'Tofino Bold';text-align:center;text-anchor:middle;fill:#008000;stroke-width:0.264584">
      <path
         d="m 162.70065,35.369499 h 6.223 c 0.0317,-7.33425 3.65125,-14.12875 6.63575,-18.034 v -5.08 h -16.98625 v 5.11175 l 10.6045,-0.09525 c -2.921,3.556 -6.44525,10.06475 -6.477,18.0975 z"
         style="font-weight:800;line-height:0.9;-inkscape-font-specification:'Tofino Ultra-Bold'"
         id="path14877" />
    </g>
    <g
       aria-label="6"
       id="text3111-4-13"
       style="font-weight:bold;font-size:31.75px;line-height:0;font-family:Tofino;-inkscape-font-specification:'Tofino Bold';text-align:center;text-anchor:middle;fill:#008000;stroke-width:0.264584">
      <path
         d="m 215.03829,35.813999 c 7.08025,0 9.0805,-3.33375 9.0805,-8.1915 0,-4.445 -1.651,-7.77875 -7.239,-7.77875 -2.19075,0 -3.8735,0.5715 -5.08,1.27 0.34925,-3.58775 1.397,-4.445 3.2385,-4.445 1.905,0 2.54,0.9525 2.54,2.00025 h 5.969 c 0,-3.937 -1.905,-6.88975 -8.41375,-6.88975 -7.01675,0 -9.62025,3.302 -9.62025,12.3825 0,8.22325 2.31775,11.684 9.525,11.65225 z m -3.3655,-9.8425 c 0.762,-0.85725 1.8415,-1.55575 3.33375,-1.55575 2.00025,0 3.048,1.143 3.048,3.27025 0,1.905 -0.8255,3.27025 -3.01625,3.27025 -2.12725,0 -3.14325,-1.30175 -3.3655,-4.98475 z"
         style="font-weight:800;line-height:0.9;-inkscape-font-specification:'Tofino Ultra-Bold'"
         id="path14874" />
    </g>
    <g
       aria-label="5"
       id="text3111-4-5-50"
       style="font-weight:bold;font-size:31.75px;line-height:0;font-family:Tofino;-inkscape-font-specification:'Tofino Bold';text-align:center;text-anchor:middle;fill:#ffcc00;stroke-width:0.264584">
      <path
         d="m 262.42616,35.845749 c 7.08025,0 8.9535,-3.302 8.9535,-8.4455 0,-4.54025 -1.4605,-7.84225 -6.6675,-7.84225 -1.9685,0 -3.46075,0.47625 -4.54025,1.04775 l 0.508,-3.46075 9.30275,0.15875 v -5.04825 h -13.716 l -2.159,13.1445 5.30225,0.0635 c 0.4445,-0.4445 1.5875,-1.3335 3.175,-1.3335 1.905,0 2.7305,1.0795 2.7305,3.302 0,2.12725 -0.73025,3.33375 -3.07975,3.33375 -2.19075,0 -2.95275,-0.889 -2.95275,-2.12725 h -6.0325 c 0,3.65125 1.9685,7.20725 9.17575,7.20725 z"
         style="font-weight:800;line-height:0.9;-inkscape-font-specification:'Tofino Ultra-Bold'"
         id="path14871" />
    </g>
    <g
       aria-label="4"
       id="text3111-4-1-7"
       style="font-weight:bold;font-size:31.75px;line-height:0;font-family:Tofino;-inkscape-font-specification:'Tofino Bold';text-align:center;text-anchor:middle;fill:#ffcc00;stroke-width:0.264584">
      <path
         d="m 300.06553,32.035749 h 11.4935 v 3.33375 h 6.00075 v -3.33375 h 2.44475 v -4.826 h -2.44475 v -14.95425 h -8.47725 l -9.017,15.33525 z m 6.38175,-4.826 5.11175,-9.779 v 9.779 z"
         style="font-weight:800;line-height:0.9;-inkscape-font-specification:'Tofino Ultra-Bold'"
         id="path14868" />
    </g>
    <g
       aria-label="3"
       id="text3111-4-5-5-8"
       style="font-weight:bold;font-size:31.75px;line-height:0;font-family:Tofino;-inkscape-font-specification:'Tofino Bold';text-align:center;text-anchor:middle;fill:#ff6600;stroke-width:0.264584">
      <path
         d="m 357.3527,35.813999 c 6.6675,0 8.8265,-2.82575 8.8265,-8.09625 0,-4.03225 -1.2065,-6.44525 -4.7625,-7.20725 l 4.41325,-3.4925 v -4.7625 h -15.5575 v 5.1435 l 8.1915,-0.1905 -4.826,3.58775 v 3.683 c 0.79375,-0.3175 1.68275,-0.5715 2.88925,-0.5715 2.667,0 3.58775,1.23825 3.58775,3.4925 0,2.25425 -0.79375,3.33375 -2.82575,3.33375 -2.2225,0 -2.82575,-1.36525 -2.82575,-2.82575 h -6.00075 c 0,4.1275 1.905,7.90575 8.89,7.90575 z"
         style="font-weight:800;line-height:0.9;-inkscape-font-specification:'Tofino Ultra-Bold'"
         id="path14865" />
    </g>
    <g
       aria-label="2"
       id="text3111-4-5-50-9"
       style="font-weight:bold;font-size:31.75px;line-height:0;font-family:Tofino;-inkscape-font-specification:'Tofino Bold';text-align:center;text-anchor:middle;fill:#ff6600;stroke-width:0.264584">
      <path
         d="m 396.34394,30.511749 v 4.85775 h 17.145 v -5.23875 l -8.03275,0.1905 c 0.60325,-0.4445 1.17475,-0.85725 1.651,-1.23825 3.429,-2.794 6.76275,-5.17525 6.76275,-10.12825 0,-3.71475 -1.7145,-7.1755 -8.54075,-7.1755 -6.88975,0 -8.9535,3.52425 -8.9535,8.763 h 5.969 c 0,-2.286 0.79375,-3.65125 2.921,-3.65125 1.80975,0 2.54,1.016 2.54,2.57175 0,2.54 -2.6035,4.34975 -5.842,6.95325 -2.00025,1.55575 -4.34975,3.27025 -5.61975,4.09575 z"
         style="font-weight:800;line-height:0.9;-inkscape-font-specification:'Tofino Ultra-Bold'"
         id="path14862" />
    </g>
    <g
       aria-label="1"
       id="text3111-4-1-7-1"
       style="font-weight:bold;font-size:31.75px;line-height:0;font-family:Tofino;-inkscape-font-specification:'Tofino Bold';text-align:center;text-anchor:middle;fill:#ff0000;stroke-width:0.264584">
      <path
         d="m 450.92814,35.369499 h 6.00075 v -23.114 h -3.65125 l -6.096,2.44475 v 4.8895 l 3.71475,-1.27 z"
         style="font-weight:800;line-height:0.9;-inkscape-font-specification:'Tofino Ultra-Bold'"
         id="path14859" />
    </g>
    <g
       aria-label="DANGER"
       transform="rotate(45)"
       id="text3111-4-5-5-8-4"
       style="font-weight:bold;font-size:10.7209px;line-height:0;font-family:Tofino;-inkscape-font-specification:'Tofino Bold';text-align:center;text-anchor:middle;fill:#ff0000;stroke-width:0.264584">
      <path
         d="m 349.21568,-333.48615 h 2.64806 c 3.40924,0 4.03106,-1.14713 4.03106,-3.89168 0,-2.73383 -0.62182,-3.91313 -4.03106,-3.91313 h -2.64806 z m 2.03697,-1.76894 v -4.23476 h 0.94344 c 1.14713,0 1.59741,0.39667 1.59741,2.11202 0,1.70462 -0.45028,2.12274 -1.59741,2.12274 z"
         style="font-weight:800;line-height:0.9;-inkscape-font-specification:'Tofino Ultra-Bold'"
         id="path14846" />
      <path
         d="m 356.06918,-333.48615 h 2.16562 l 0.32163,-1.13641 h 2.76599 l 0.33235,1.13641 h 2.1549 l -2.64806,-7.80481 h -2.44437 z m 2.96969,-2.81959 0.88983,-3.16267 0.91128,3.16267 z"
         style="font-weight:800;line-height:0.9;-inkscape-font-specification:'Tofino Ultra-Bold'"
         id="path14848" />
      <path
         d="m 368.86524,-333.48615 h 2.39076 v -7.80481 h -1.96192 l 0.13937,5.08171 -2.57302,-5.08171 h -2.35859 l -0.0107,7.80481 h 1.94048 l -0.11793,-4.96377 z"
         style="font-weight:800;line-height:0.9;-inkscape-font-specification:'Tofino Ultra-Bold'"
         id="path14850" />
      <path
         d="m 375.72612,-333.32533 c 1.70462,0 2.79815,-0.73974 3.15194,-1.31867 v -2.89465 h -3.00185 v 1.52237 h 1.08281 v 0.461 c -0.0751,0.22514 -0.41812,0.50388 -1.14714,0.50388 -0.98632,0 -1.45804,-0.45027 -1.45804,-2.30499 0,-1.83327 0.45028,-2.32643 1.383,-2.32643 0.70758,0 1.14713,0.3109 1.1793,1.30794 h 1.96192 c 0,-2.11201 -0.95416,-3.07689 -3.16267,-3.07689 -2.27283,0 -3.43068,1.08281 -3.43068,4.07394 0,2.99113 1.14713,4.0525 3.44141,4.0525 z"
         style="font-weight:800;line-height:0.9;-inkscape-font-specification:'Tofino Ultra-Bold'"
         id="path14852" />
      <path
         d="m 379.99638,-333.48615 h 5.46766 v -1.7475 h -3.43068 v -1.32939 h 2.81959 v -1.68318 h -2.81959 v -1.28651 h 3.35564 v -1.75823 h -5.39262 z"
         style="font-weight:800;line-height:0.9;-inkscape-font-specification:'Tofino Ultra-Bold'"
         id="path14854" />
      <path
         d="m 386.32004,-333.48615 h 2.03697 v -2.28355 h 1.12569 0.33235 l 0.93272,2.28355 h 2.1549 l -1.1793,-2.58373 c 0.84695,-0.35379 1.19002,-1.08281 1.19002,-2.43365 0,-2.2085 -0.93272,-2.78743 -3.36636,-2.78743 h -3.22699 z m 2.03697,-4.0525 v -1.98336 h 0.99704 c 1.02921,0 1.45805,0.0643 1.45805,0.99704 0,0.93272 -0.42884,0.98632 -1.45805,0.98632 z"
         style="font-weight:800;line-height:0.9;-inkscape-font-specification:'Tofino Ultra-Bold'"
         id="path14856" />
    </g>
  </g>
</svg>
