<?xml version="1.0" encoding="UTF-8" standalone="no"?>
<!-- Created with Inkscape (http://www.inkscape.org/) -->

<svg
   width="1800"
   height="300"
   viewBox="0 0 476.24999 79.375002"
   version="1.1"
   id="svg5"
   inkscape:version="1.1.1 (c3084ef, 2021-09-22)"
   sodipodi:docname="dow--turn-anatomy.svg"
   xmlns:inkscape="http://www.inkscape.org/namespaces/inkscape"
   xmlns:sodipodi="http://sodipodi.sourceforge.net/DTD/sodipodi-0.dtd"
   xmlns="http://www.w3.org/2000/svg"
   xmlns:svg="http://www.w3.org/2000/svg">
  <sodipodi:namedview
     id="namedview7"
     pagecolor="#ffffff"
     bordercolor="#999999"
     borderopacity="1"
     inkscape:pageshadow="0"
     inkscape:pageopacity="0"
     inkscape:pagecheckerboard="0"
     inkscape:document-units="mm"
     showgrid="false"
     units="px"
     inkscape:zoom="0.50847452"
     inkscape:cx="1037.4168"
     inkscape:cy="229.11669"
     inkscape:window-width="1920"
     inkscape:window-height="1147"
     inkscape:window-x="1728"
     inkscape:window-y="25"
     inkscape:window-maximized="1"
     inkscape:current-layer="layer1">
    <inkscape:grid
       type="xygrid"
       id="grid8939" />
  </sodipodi:namedview>
  <defs
     id="defs2" />
  <g
     inkscape:label="Layer 1"
     inkscape:groupmode="layer"
     id="layer1">
    <rect
       style="fill:#b3b3b3;stroke-width:10.5833;stroke-linecap:round;stroke-linejoin:round;fill-opacity:1"
       id="rect846"
       width="158.75"
       height="79.375"
       x="317.5"
       y="-1.4210855e-14" />
    <rect
       style="fill:#ffffff;stroke-width:10.5833;stroke-linecap:round;stroke-linejoin:round"
       id="rect846-2"
       width="317.5"
       height="79.375"
       x="0"
       y="0" />
    <g
       aria-label="ACTION
PHASE
20 minutes"
       id="text3111"
       style="font-weight:bold;font-size:18.5754px;line-height:0;font-family:Tofino;-inkscape-font-specification:'Tofino Bold';text-align:center;text-anchor:middle;stroke-width:0.264584">
      <path
         d="m 125.69058,31.37701 h 3.12066 l 0.66872,-2.229048 h 5.21968 l 0.68729,2.229048 h 3.1021 l -4.62528,-13.448589 h -3.52932 z m 4.60669,-4.92248 1.76467,-5.888402 1.82039,5.888402 z"
         style="line-height:1"
         id="path16556" />
      <path
         d="m 144.59801,31.637066 c 3.41787,0 5.29399,-1.281703 5.33114,-5.36829 h -2.89776 c -0.11146,2.229047 -1.02165,2.804885 -2.45196,2.804885 -1.95041,0 -2.74915,-1.077373 -2.74915,-4.40237 0,-3.343572 0.81731,-4.420945 2.78631,-4.420945 1.44888,0 2.32192,0.612988 2.43337,2.842036 h 2.89777 c -0.0557,-4.068012 -1.8947,-5.424016 -5.33114,-5.424016 -4.04944,0 -5.77695,1.987567 -5.77695,7.002925 0,4.978207 1.70893,6.965775 5.75837,6.965775 z"
         style="line-height:1"
         id="path16558" />
      <path
         d="m 154.20527,31.37701 h 2.93491 V 20.621854 h 3.75223 v -2.693433 h -10.45795 v 2.693433 h 3.77081 z"
         style="line-height:1"
         id="path16560" />
      <path
         d="m 162.23303,31.37701 h 2.93491 V 17.928421 h -2.93491 z"
         style="line-height:1"
         id="path16562" />
      <path
         d="m 172.89734,31.637066 c 4.01229,0 5.75838,-1.987568 5.75838,-6.965775 0,-5.015358 -1.74609,-7.002925 -5.75838,-7.002925 -4.03086,0 -5.79552,1.987567 -5.79552,7.002925 0,4.978207 1.76466,6.965775 5.79552,6.965775 z m -2.80488,-6.965775 c 0,-3.324996 0.85446,-4.420945 2.80488,-4.420945 1.93184,0 2.76774,1.095949 2.76774,4.420945 0,3.324997 -0.8359,4.40237 -2.76774,4.40237 -1.95042,0 -2.80488,-1.077373 -2.80488,-4.40237 z"
         style="line-height:1"
         id="path16564" />
      <path
         d="m 188.31724,31.37701 h 3.49218 V 17.928421 h -2.82346 l 0.24148,9.52918 -5.07109,-9.52918 h -3.4736 l -0.0371,13.448589 h 2.80489 l -0.18576,-9.380576 z"
         style="line-height:1"
         id="path16566" />
      <path
         d="m 130.19772,49.95241 h 2.93491 v -3.993711 h 1.8947 c 4.56954,0 5.8884,-1.003072 5.8884,-4.755302 0,-3.71508 -1.31886,-4.699576 -5.8884,-4.699576 h -4.82961 z m 2.93491,-6.687144 v -4.068013 h 2.30335 c 1.74609,0 2.45196,0.09288 2.45196,1.987568 0,1.931842 -0.66872,2.080445 -2.45196,2.080445 z"
         style="line-height:1"
         id="path16568" />
      <path
         d="m 150.3143,49.95241 h 2.93491 V 36.503821 h -2.93491 v 5.275413 h -4.77388 v -5.275413 h -2.93491 V 49.95241 h 2.93491 v -5.516894 h 4.77388 z"
         style="line-height:1"
         id="path16570" />
      <path
         d="m 154.53324,49.95241 h 3.12066 l 0.66872,-2.229048 h 5.21968 l 0.68729,2.229048 h 3.1021 l -4.62528,-13.448589 h -3.52933 z m 4.60669,-4.922481 1.76467,-5.888402 1.82039,5.888402 z"
         style="line-height:1"
         id="path16572" />
      <path
         d="m 173.23112,50.212465 c 3.49217,0 5.25684,-1.337428 5.25684,-3.993711 0,-5.591195 -7.39301,-3.547901 -7.39301,-6.222758 0,-0.68729 0.52011,-1.17025 1.96899,-1.17025 1.91327,0 2.37765,0.780166 2.37765,1.89469 h 2.87919 c 0.0557,-2.953488 -1.48603,-4.476671 -5.21969,-4.476671 -3.67793,0 -5.14539,1.448881 -5.16396,4.012286 -0.0557,5.405441 7.43016,3.399298 7.43016,6.204184 0,0.817317 -0.94735,1.17025 -2.13617,1.17025 -1.63464,0 -2.56341,-0.650139 -2.56341,-2.06187 h -2.89776 c -0.0557,3.176394 1.80181,4.64385 5.46117,4.64385 z"
         style="line-height:1"
         id="path16574" />
      <path
         d="m 180.22795,49.95241 h 9.04622 v -2.674858 h -6.11131 v -2.730583 h 5.07109 v -2.693433 h -5.07109 v -2.674858 h 5.98128 v -2.674857 h -8.91619 z"
         style="line-height:1"
         id="path16576" />
      <path
         d="m 132.00836,60.531888 v 1.047747 h 5.0694 v -1.02658 h -3.43957 c 0.48683,-0.359832 0.98424,-0.751415 1.42874,-1.12183 1.22767,-1.068913 2.12725,-1.915577 2.12725,-3.397239 0,-1.280579 -0.635,-2.190743 -2.46591,-2.190743 -1.92616,0 -2.63524,1.015997 -2.63524,2.476492 h 1.19591 c 0,-0.857247 0.42333,-1.439329 1.41816,-1.439329 0.86783,0 1.28058,0.433915 1.28058,1.21708 0,0.99483 -0.78316,1.703911 -1.96849,2.762241 -0.73025,0.634998 -1.56633,1.322912 -2.01083,1.672161 z"
         style="font-weight:500;font-size:10.5833px;line-height:0.9;-inkscape-font-specification:'Tofino Medium'"
         id="path16578" />
      <path
         d="m 140.83648,61.717218 c 2.032,0 2.86808,-1.037164 2.86808,-3.936988 0,-2.899824 -0.83608,-3.936987 -2.86808,-3.936987 -2.03199,0 -2.86807,1.037163 -2.86807,3.936987 0,2.899824 0.83608,3.936988 2.86807,3.936988 z m -1.66157,-3.936988 c 0,-2.296576 0.53974,-2.899824 1.66157,-2.899824 1.12183,0 1.66158,0.603248 1.66158,2.899824 0,2.30716 -0.53975,2.889241 -1.66158,2.889241 -1.12183,0 -1.66157,-0.582081 -1.66157,-2.889241 z"
         style="font-weight:500;font-size:10.5833px;line-height:0.9;-inkscape-font-specification:'Tofino Medium'"
         id="path16580" />
      <path
         d="m 154.47522,58.267062 v 3.312573 h 1.11124 l 0.0106,-3.428989 c 0,-1.703912 -0.60325,-2.381243 -1.73567,-2.381243 -1.10066,0 -1.77799,0.656165 -2.06374,1.047747 -0.26458,-0.740831 -0.77258,-1.047747 -1.53458,-1.047747 -1.04774,0 -1.69333,0.582082 -1.98966,0.973664 l -0.15875,-0.878414 h -1.00541 l 0.10583,1.513412 v 4.20157 h 1.17475 v -3.682988 c 0.26458,-0.476249 0.77258,-1.079497 1.49224,-1.079497 0.68792,0 1.016,0.465665 1.016,1.492245 v 3.27024 h 1.0795 v -3.386656 c 0,-0.105833 0,-0.211666 -0.0106,-0.317499 0.27517,-0.476249 0.77258,-1.05833 1.49225,-1.05833 0.68791,0 1.016,0.476248 1.016,1.449912 z"
         style="font-weight:500;font-size:10.5833px;line-height:0.9;-inkscape-font-specification:'Tofino Medium'"
         id="path16582" />
      <path
         d="m 156.99222,61.579635 h 1.17475 v -5.714982 h -1.17475 z m -0.0106,-6.667479 h 1.17475 v -1.375829 h -1.17475 z"
         style="font-weight:500;font-size:10.5833px;line-height:0.9;-inkscape-font-specification:'Tofino Medium'"
         id="path16584" />
      <path
         d="m 163.48888,58.351728 v 3.227907 h 1.17475 v -3.376073 c 0,-1.767411 -0.58209,-2.434159 -1.78858,-2.434159 -1.12183,0 -1.80975,0.613832 -2.11666,1.015997 l -0.15875,-0.920747 h -1.00541 l 0.10583,1.513412 v 4.20157 h 1.17474 v -3.651239 c 0.254,-0.476248 0.762,-1.111246 1.54517,-1.111246 0.71966,0 1.06891,0.465665 1.06891,1.534578 z"
         style="font-weight:500;font-size:10.5833px;line-height:0.9;-inkscape-font-specification:'Tofino Medium'"
         id="path16586" />
      <path
         d="m 167.63439,61.674884 c 1.04775,0 1.76741,-0.539748 2.12725,-1.047746 l 0.17991,0.952497 h 1.00542 l -0.10584,-1.576912 v -4.13807 h -1.16416 v 3.566572 c -0.27517,0.571498 -0.84666,1.195913 -1.59808,1.195913 -0.71966,0 -1.06891,-0.476249 -1.06891,-1.375829 v -3.386656 h -1.17475 v 3.439572 c 0,1.693328 0.61383,2.370659 1.79916,2.370659 z"
         style="font-weight:500;font-size:10.5833px;line-height:0.9;-inkscape-font-specification:'Tofino Medium'"
         id="path16588" />
      <path
         d="m 174.5104,61.579635 h 0.49741 v -1.047747 h -0.40216 c -0.83609,0 -0.98425,-0.518582 -0.98425,-1.396995 v -2.33891 h 1.35466 v -0.93133 h -1.35466 v -1.820328 l -1.16416,0.1905 v 1.629828 h -0.73025 v 0.93133 h 0.73025 v 2.391826 c 0,1.407579 0.14816,2.391826 2.05316,2.391826 z"
         style="font-weight:500;font-size:10.5833px;line-height:0.9;-inkscape-font-specification:'Tofino Medium'"
         id="path16590" />
      <path
         d="m 178.19272,61.674884 c 2.12724,0 2.47649,-1.068913 2.47649,-1.83091 h -1.14299 c -0.0106,0.412748 -0.3175,0.910163 -1.27,0.910163 -0.98425,0 -1.41816,-0.507998 -1.47108,-1.714494 h 3.92641 c 0.0423,-2.24366 -0.58209,-3.27024 -2.51883,-3.27024 -1.95791,0 -2.62466,1.100663 -2.62466,2.963324 0,1.873244 0.67733,2.942157 2.62466,2.942157 z m -1.38641,-3.566571 c 0.10583,-1.026581 0.52916,-1.460496 1.36524,-1.460496 0.75142,0 1.23825,0.317499 1.37583,1.460496 z"
         style="font-weight:500;font-size:10.5833px;line-height:0.9;-inkscape-font-specification:'Tofino Medium'"
         id="path16592" />
      <path
         d="m 183.99518,61.674884 c 1.75683,0 2.46591,-0.603248 2.46591,-1.682744 0,-1.344079 -1.04775,-1.608662 -2.14841,-1.830911 -0.8255,-0.169333 -1.44991,-0.349249 -1.44991,-0.857247 0,-0.338666 0.254,-0.677331 1.13241,-0.677331 0.97367,0 1.23825,0.412748 1.23825,0.941913 h 1.11124 c 0,-1.174746 -0.62441,-1.799161 -2.3389,-1.799161 -1.7145,0 -2.37066,0.613832 -2.36008,1.661578 0,1.206497 0.99483,1.492246 1.95791,1.714495 0.889,0.211666 1.62983,0.349249 1.61924,0.96308 -0.0106,0.412749 -0.37041,0.698498 -1.17474,0.687915 -0.98425,-0.01058 -1.40758,-0.402166 -1.40758,-1.02658 h -1.143 c -0.0106,1.248829 0.80433,1.904993 2.49766,1.904993 z"
         style="font-weight:500;font-size:10.5833px;line-height:0.9;-inkscape-font-specification:'Tofino Medium'"
         id="path16594" />
    </g>
    <g
       aria-label="TEAM
PHASE
10 minutes"
       id="text3111-8"
       style="font-weight:bold;font-size:18.5754px;line-height:0;font-family:Tofino;-inkscape-font-specification:'Tofino Bold';text-align:center;text-anchor:middle;stroke-width:0.264584">
      <path
         d="m 374.34712,31.246983 h 2.93491 V 20.491826 h 3.75223 v -2.693433 h -10.45795 v 2.693433 h 3.77081 z"
         style="line-height:1"
         id="path16519" />
      <path
         d="m 382.37488,31.246983 h 9.04622 v -2.674858 h -6.1113 v -2.730584 h 5.07108 v -2.693433 h -5.07108 v -2.674857 h 5.98127 v -2.674858 h -8.91619 z"
         style="line-height:1"
         id="path16521" />
      <path
         d="m 391.87184,31.246983 h 3.12067 l 0.66872,-2.229048 h 5.21968 l 0.68729,2.229048 h 3.10209 l -4.62527,-13.44859 h -3.52933 z m 4.6067,-4.922481 1.76467,-5.888402 1.82038,5.888402 z"
         style="line-height:1"
         id="path16523" />
      <path
         d="m 411.88248,31.246983 h 3.30642 l 3.34358,-10.587978 -0.18576,10.587978 h 2.89777 v -13.44859 h -4.66243 l -3.00921,10.160744 -2.93492,-10.160744 h -4.681 v 13.44859 h 2.86061 L 408.65036,20.67758 Z"
         style="line-height:1"
         id="path16525" />
      <path
         d="m 367.33679,49.822382 h 2.93491 v -3.993711 h 1.89469 c 4.56955,0 5.88841,-1.003071 5.88841,-4.755302 0,-3.71508 -1.31886,-4.699576 -5.88841,-4.699576 h -4.8296 z m 2.93491,-6.687144 v -4.068012 h 2.30335 c 1.74609,0 2.45196,0.09288 2.45196,1.987567 0,1.931842 -0.66872,2.080445 -2.45196,2.080445 z"
         style="line-height:1"
         id="path16527" />
      <path
         d="m 387.45337,49.822382 h 2.93491 V 36.373793 h -2.93491 v 5.275413 h -4.77388 v -5.275413 h -2.93491 v 13.448589 h 2.93491 v -5.516894 h 4.77388 z"
         style="line-height:1"
         id="path16529" />
      <path
         d="m 391.6723,49.822382 h 3.12067 l 0.66872,-2.229048 h 5.21968 l 0.68729,2.229048 h 3.10209 l -4.62527,-13.448589 h -3.52933 z m 4.6067,-4.922481 1.76467,-5.888401 1.82038,5.888401 z"
         style="line-height:1"
         id="path16531" />
      <path
         d="m 410.37019,50.082438 c 3.49217,0 5.25683,-1.337429 5.25683,-3.993711 0,-5.591196 -7.393,-3.547902 -7.393,-6.222759 0,-0.68729 0.52011,-1.17025 1.96899,-1.17025 1.91326,0 2.37765,0.780167 2.37765,1.89469 h 2.87919 c 0.0557,-2.953488 -1.48604,-4.476671 -5.21969,-4.476671 -3.67793,0 -5.14539,1.448881 -5.16396,4.012286 -0.0557,5.405442 7.43016,3.399299 7.43016,6.204184 0,0.817317 -0.94735,1.17025 -2.13617,1.17025 -1.63464,0 -2.56341,-0.650139 -2.56341,-2.061869 h -2.89776 c -0.0557,3.176393 1.80181,4.64385 5.46117,4.64385 z"
         style="line-height:1"
         id="path16533" />
      <path
         d="m 417.36702,49.822382 h 9.04622 v -2.674858 h -6.11131 v -2.730583 h 5.07109 v -2.693433 h -5.07109 V 39.04865 h 5.98128 v -2.674857 h -8.91619 z"
         style="line-height:1"
         id="path16535" />
      <path
         d="m 371.48981,61.449607 h 1.19591 v -7.609392 h -0.762 l -1.75682,0.77258 v 1.047747 l 1.32291,-0.560915 z"
         style="font-weight:500;font-size:10.5833px;line-height:0.9;-inkscape-font-specification:'Tofino Medium'"
         id="path16537" />
      <path
         d="m 376.79733,61.58719 c 2.032,0 2.86808,-1.037163 2.86808,-3.936988 0,-2.899824 -0.83608,-3.936987 -2.86808,-3.936987 -2.03199,0 -2.86807,1.037163 -2.86807,3.936987 0,2.899825 0.83608,3.936988 2.86807,3.936988 z m -1.66157,-3.936988 c 0,-2.296576 0.53974,-2.899824 1.66157,-2.899824 1.12183,0 1.66158,0.603248 1.66158,2.899824 0,2.30716 -0.53975,2.889241 -1.66158,2.889241 -1.12183,0 -1.66157,-0.582081 -1.66157,-2.889241 z"
         style="font-weight:500;font-size:10.5833px;line-height:0.9;-inkscape-font-specification:'Tofino Medium'"
         id="path16539" />
      <path
         d="m 390.43606,58.137034 v 3.312573 h 1.11125 l 0.0106,-3.428989 c 0,-1.703911 -0.60324,-2.381242 -1.73566,-2.381242 -1.10066,0 -1.77799,0.656164 -2.06374,1.047746 -0.26458,-0.740831 -0.77258,-1.047746 -1.53458,-1.047746 -1.04775,0 -1.69333,0.582081 -1.98966,0.973663 l -0.15875,-0.878414 h -1.00541 l 0.10583,1.513412 v 4.20157 h 1.17475 v -3.682988 c 0.26458,-0.476249 0.77258,-1.079497 1.49224,-1.079497 0.68792,0 1.016,0.465665 1.016,1.492245 v 3.27024 h 1.0795 v -3.386656 c 0,-0.105833 0,-0.211666 -0.0106,-0.317499 0.27517,-0.476248 0.77258,-1.05833 1.49225,-1.05833 0.68791,0 1.01599,0.476249 1.01599,1.449912 z"
         style="font-weight:500;font-size:10.5833px;line-height:0.9;-inkscape-font-specification:'Tofino Medium'"
         id="path16541" />
      <path
         d="m 392.95307,61.449607 h 1.17475 v -5.714982 h -1.17475 z m -0.0106,-6.667479 h 1.17475 v -1.375829 h -1.17475 z"
         style="font-weight:500;font-size:10.5833px;line-height:0.9;-inkscape-font-specification:'Tofino Medium'"
         id="path16543" />
      <path
         d="m 399.44973,58.221701 v 3.227906 h 1.17475 v -3.376073 c 0,-1.767411 -0.58209,-2.434158 -1.78858,-2.434158 -1.12183,0 -1.80975,0.613831 -2.11666,1.015996 l -0.15875,-0.920747 h -1.00541 l 0.10583,1.513412 v 4.20157 h 1.17474 v -3.651238 c 0.254,-0.476249 0.762,-1.111247 1.54517,-1.111247 0.71966,0 1.06891,0.465665 1.06891,1.534579 z"
         style="font-weight:500;font-size:10.5833px;line-height:0.9;-inkscape-font-specification:'Tofino Medium'"
         id="path16545" />
      <path
         d="m 403.59524,61.544857 c 1.04775,0 1.76741,-0.539749 2.12724,-1.047747 l 0.17992,0.952497 h 1.00541 l -0.10583,-1.576912 v -4.13807 h -1.16416 v 3.566572 c -0.27517,0.571498 -0.84667,1.195913 -1.59808,1.195913 -0.71966,0 -1.06891,-0.476248 -1.06891,-1.375829 v -3.386656 h -1.17475 v 3.439573 c 0,1.693328 0.61383,2.370659 1.79916,2.370659 z"
         style="font-weight:500;font-size:10.5833px;line-height:0.9;-inkscape-font-specification:'Tofino Medium'"
         id="path16547" />
      <path
         d="m 410.47125,61.449607 h 0.49741 V 60.40186 h -0.40216 c -0.83609,0 -0.98425,-0.518581 -0.98425,-1.396995 v -2.338909 h 1.35466 v -0.931331 h -1.35466 v -1.820327 l -1.16416,0.190499 v 1.629828 h -0.73025 v 0.931331 h 0.73025 v 2.391825 c 0,1.407579 0.14816,2.391826 2.05316,2.391826 z"
         style="font-weight:500;font-size:10.5833px;line-height:0.9;-inkscape-font-specification:'Tofino Medium'"
         id="path16549" />
      <path
         d="m 414.15357,61.544857 c 2.12724,0 2.47649,-1.068914 2.47649,-1.830911 h -1.14299 c -0.0106,0.412749 -0.3175,0.910164 -1.27,0.910164 -0.98425,0 -1.41816,-0.507999 -1.47108,-1.714495 h 3.92641 c 0.0423,-2.243659 -0.58209,-3.270239 -2.51883,-3.270239 -1.95791,0 -2.62466,1.100663 -2.62466,2.963323 0,1.873244 0.67733,2.942158 2.62466,2.942158 z m -1.38641,-3.566572 c 0.10583,-1.02658 0.52916,-1.460496 1.36524,-1.460496 0.75142,0 1.23825,0.317499 1.37583,1.460496 z"
         style="font-weight:500;font-size:10.5833px;line-height:0.9;-inkscape-font-specification:'Tofino Medium'"
         id="path16551" />
      <path
         d="m 419.95603,61.544857 c 1.75683,0 2.46591,-0.603248 2.46591,-1.682745 0,-1.344079 -1.04775,-1.608661 -2.14841,-1.830911 -0.8255,-0.169333 -1.44991,-0.349249 -1.44991,-0.857247 0,-0.338666 0.254,-0.677331 1.13241,-0.677331 0.97367,0 1.23825,0.412748 1.23825,0.941913 h 1.11124 c 0,-1.174746 -0.62441,-1.79916 -2.3389,-1.79916 -1.7145,0 -2.37066,0.613831 -2.36008,1.661578 0,1.206496 0.99483,1.492245 1.95791,1.714494 0.889,0.211666 1.62983,0.349249 1.61924,0.96308 -0.0106,0.412749 -0.37041,0.698498 -1.17474,0.687915 -0.98425,-0.01058 -1.40758,-0.402166 -1.40758,-1.02658 h -1.143 c -0.0106,1.248829 0.80433,1.904994 2.49766,1.904994 z"
         style="font-weight:500;font-size:10.5833px;line-height:0.9;-inkscape-font-specification:'Tofino Medium'"
         id="path16553" />
    </g>
    <path
       style="fill:#ffffff;stroke:#000000;stroke-width:1.32292;stroke-linecap:butt;stroke-linejoin:miter;stroke-miterlimit:4;stroke-dasharray:none;stroke-opacity:1;opacity:0.25"
       d="M 158.75,71.4375 V 79.375"
       id="path13248-1"
       sodipodi:nodetypes="cc" />
    <path
       style="fill:#ffffff;stroke:#000000;stroke-width:1.32292;stroke-linecap:butt;stroke-linejoin:miter;stroke-miterlimit:4;stroke-dasharray:none;stroke-opacity:1;opacity:0.25"
       d="M 238.125,71.4375 V 79.375"
       id="path13248-1-5"
       sodipodi:nodetypes="cc" />
    <path
       style="fill:#ffffff;stroke:#000000;stroke-width:1.32292;stroke-linecap:butt;stroke-linejoin:miter;stroke-miterlimit:4;stroke-dasharray:none;stroke-opacity:1;opacity:0.25"
       d="M 174.625,74.083333 V 79.375"
       id="path13248-1-8"
       sodipodi:nodetypes="cc" />
    <path
       style="fill:#ffffff;stroke:#000000;stroke-width:1.32292;stroke-linecap:butt;stroke-linejoin:miter;stroke-miterlimit:4;stroke-dasharray:none;stroke-opacity:1;opacity:0.25"
       d="M 190.5,74.083333 V 79.375"
       id="path13248-1-8-7"
       sodipodi:nodetypes="cc" />
    <path
       style="fill:#ffffff;stroke:#000000;stroke-width:1.32292;stroke-linecap:butt;stroke-linejoin:miter;stroke-miterlimit:4;stroke-dasharray:none;stroke-opacity:1;opacity:0.25"
       d="M 206.375,74.083333 V 79.375"
       id="path13248-1-8-1"
       sodipodi:nodetypes="cc" />
    <path
       style="fill:#ffffff;stroke:#000000;stroke-width:1.32292;stroke-linecap:butt;stroke-linejoin:miter;stroke-miterlimit:4;stroke-dasharray:none;stroke-opacity:1;opacity:0.25"
       d="M 222.25,74.083333 V 79.375"
       id="path13248-1-8-5"
       sodipodi:nodetypes="cc" />
    <path
       style="fill:#ffffff;stroke:#000000;stroke-width:1.32292;stroke-linecap:butt;stroke-linejoin:miter;stroke-miterlimit:4;stroke-dasharray:none;stroke-opacity:1;opacity:0.25"
       d="M 254,74.083333 V 79.375"
       id="path13248-1-8-5-8"
       sodipodi:nodetypes="cc" />
    <path
       style="fill:#ffffff;stroke:#000000;stroke-width:1.32292;stroke-linecap:butt;stroke-linejoin:miter;stroke-miterlimit:4;stroke-dasharray:none;stroke-opacity:1;opacity:0.25"
       d="M 269.875,74.083333 V 79.375"
       id="path13248-1-8-5-5"
       sodipodi:nodetypes="cc" />
    <path
       style="fill:#ffffff;stroke:#000000;stroke-width:1.32292;stroke-linecap:butt;stroke-linejoin:miter;stroke-miterlimit:4;stroke-dasharray:none;stroke-opacity:1;opacity:0.25"
       d="M 285.75,74.083333 V 79.375"
       id="path13248-1-8-5-6"
       sodipodi:nodetypes="cc" />
    <path
       style="fill:#ffffff;stroke:#000000;stroke-width:1.32292;stroke-linecap:butt;stroke-linejoin:miter;stroke-miterlimit:4;stroke-dasharray:none;stroke-opacity:1;opacity:0.25"
       d="M 301.625,74.083333 V 79.375"
       id="path13248-1-8-5-7"
       sodipodi:nodetypes="cc" />
    <path
       style="fill:#ffffff;stroke:#000000;stroke-width:1.32292;stroke-linecap:butt;stroke-linejoin:miter;stroke-miterlimit:4;stroke-dasharray:none;stroke-opacity:1;opacity:0.25"
       d="M 396.875,71.4375 V 79.375"
       id="path13248-1-5-9"
       sodipodi:nodetypes="cc" />
    <path
       style="fill:#ffffff;stroke:#000000;stroke-width:1.32292;stroke-linecap:butt;stroke-linejoin:miter;stroke-miterlimit:4;stroke-dasharray:none;stroke-opacity:1;opacity:0.25"
       d="M 333.375,74.083333 V 79.375"
       id="path13248-1-8-0"
       sodipodi:nodetypes="cc" />
    <path
       style="fill:#ffffff;stroke:#000000;stroke-width:1.32292;stroke-linecap:butt;stroke-linejoin:miter;stroke-miterlimit:4;stroke-dasharray:none;stroke-opacity:1;opacity:0.25"
       d="M 349.25,74.083333 V 79.375"
       id="path13248-1-8-7-5"
       sodipodi:nodetypes="cc" />
    <path
       style="fill:#ffffff;stroke:#000000;stroke-width:1.32292;stroke-linecap:butt;stroke-linejoin:miter;stroke-miterlimit:4;stroke-dasharray:none;stroke-opacity:1;opacity:0.25"
       d="M 365.125,74.083333 V 79.375"
       id="path13248-1-8-1-5"
       sodipodi:nodetypes="cc" />
    <path
       style="fill:#ffffff;stroke:#000000;stroke-width:1.32292;stroke-linecap:butt;stroke-linejoin:miter;stroke-miterlimit:4;stroke-dasharray:none;stroke-opacity:1;opacity:0.25"
       d="M 381,74.083333 V 79.375"
       id="path13248-1-8-5-63"
       sodipodi:nodetypes="cc" />
    <path
       style="fill:#ffffff;stroke:#000000;stroke-width:1.32292;stroke-linecap:butt;stroke-linejoin:miter;stroke-miterlimit:4;stroke-dasharray:none;stroke-opacity:1;opacity:0.25"
       d="M 412.75,74.083333 V 79.375"
       id="path13248-1-8-5-8-2"
       sodipodi:nodetypes="cc" />
    <path
       style="fill:#ffffff;stroke:#000000;stroke-width:1.32292;stroke-linecap:butt;stroke-linejoin:miter;stroke-miterlimit:4;stroke-dasharray:none;stroke-opacity:1;opacity:0.25"
       d="M 428.625,74.083333 V 79.375"
       id="path13248-1-8-5-5-6"
       sodipodi:nodetypes="cc" />
    <path
       style="fill:#ffffff;stroke:#000000;stroke-width:1.32292;stroke-linecap:butt;stroke-linejoin:miter;stroke-miterlimit:4;stroke-dasharray:none;stroke-opacity:1;opacity:0.25"
       d="M 444.5,74.083333 V 79.375"
       id="path13248-1-8-5-6-8"
       sodipodi:nodetypes="cc" />
    <path
       style="fill:#ffffff;stroke:#000000;stroke-width:1.32292;stroke-linecap:butt;stroke-linejoin:miter;stroke-miterlimit:4;stroke-dasharray:none;stroke-opacity:1;opacity:0.25"
       d="M 460.375,74.083333 V 79.375"
       id="path13248-1-8-5-7-91"
       sodipodi:nodetypes="cc" />
    <path
       style="fill:#ffffff;stroke:#000000;stroke-width:1.32292;stroke-linecap:butt;stroke-linejoin:miter;stroke-miterlimit:4;stroke-dasharray:none;stroke-opacity:1;opacity:0.25"
       d="M 79.375,71.4375 V 79.375"
       id="path13248-1-5-4"
       sodipodi:nodetypes="cc" />
    <path
       style="fill:#ffffff;stroke:#000000;stroke-width:1.32292;stroke-linecap:butt;stroke-linejoin:miter;stroke-miterlimit:4;stroke-dasharray:none;stroke-opacity:1;opacity:0.25"
       d="M 15.875,74.083333 V 79.375"
       id="path13248-1-8-16"
       sodipodi:nodetypes="cc" />
    <path
       style="fill:#ffffff;stroke:#000000;stroke-width:1.32292;stroke-linecap:butt;stroke-linejoin:miter;stroke-miterlimit:4;stroke-dasharray:none;stroke-opacity:1;opacity:0.25"
       d="M 31.75,74.083333 V 79.375"
       id="path13248-1-8-7-1"
       sodipodi:nodetypes="cc" />
    <path
       style="fill:#ffffff;stroke:#000000;stroke-width:1.32292;stroke-linecap:butt;stroke-linejoin:miter;stroke-miterlimit:4;stroke-dasharray:none;stroke-opacity:1;opacity:0.25"
       d="M 47.625,74.083333 V 79.375"
       id="path13248-1-8-1-2"
       sodipodi:nodetypes="cc" />
    <path
       style="fill:#ffffff;stroke:#000000;stroke-width:1.32292;stroke-linecap:butt;stroke-linejoin:miter;stroke-miterlimit:4;stroke-dasharray:none;stroke-opacity:1;opacity:0.25"
       d="M 63.5,74.083333 V 79.375"
       id="path13248-1-8-5-0"
       sodipodi:nodetypes="cc" />
    <path
       style="fill:#ffffff;stroke:#000000;stroke-width:1.32292;stroke-linecap:butt;stroke-linejoin:miter;stroke-miterlimit:4;stroke-dasharray:none;stroke-opacity:1;opacity:0.25"
       d="M 95.25,74.083333 V 79.375"
       id="path13248-1-8-5-8-4"
       sodipodi:nodetypes="cc" />
    <path
       style="fill:#ffffff;stroke:#000000;stroke-width:1.32292;stroke-linecap:butt;stroke-linejoin:miter;stroke-miterlimit:4;stroke-dasharray:none;stroke-opacity:1;opacity:0.25"
       d="M 111.125,74.083333 V 79.375"
       id="path13248-1-8-5-5-4"
       sodipodi:nodetypes="cc" />
    <path
       style="fill:#ffffff;stroke:#000000;stroke-width:1.32292;stroke-linecap:butt;stroke-linejoin:miter;stroke-miterlimit:4;stroke-dasharray:none;stroke-opacity:1;opacity:0.25"
       d="M 127,74.083333 V 79.375"
       id="path13248-1-8-5-6-5"
       sodipodi:nodetypes="cc" />
    <path
       style="fill:#ffffff;stroke:#000000;stroke-width:1.32292;stroke-linecap:butt;stroke-linejoin:miter;stroke-miterlimit:4;stroke-dasharray:none;stroke-opacity:1;opacity:0.25"
       d="M 142.875,74.083333 V 79.375"
       id="path13248-1-8-5-7-9"
       sodipodi:nodetypes="cc" />
  </g>
</svg>
