<?xml version="1.0" encoding="UTF-8" standalone="no"?>
<svg
   width="1600"
   height="1066.6666"
   viewBox="0 0 1200 800"
   version="1.1"
   id="svg840"
   sodipodi:docname="dow--nation--gliese.svg"
   inkscape:version="1.1.1 (c3084ef, 2021-09-22)"
   inkscape:export-filename="/Users/jedlimke/Documents/Megagames/DEN-OF-WOLVES-MARCH-2026/Den of Wolves - Infinite Domain/Den of Wolves - Infinite Domain v1.0/Materials/Image Assets/jed-flags/dow--nation--gliese.png"
   inkscape:export-xdpi="72"
   inkscape:export-ydpi="72"
   xmlns:inkscape="http://www.inkscape.org/namespaces/inkscape"
   xmlns:sodipodi="http://sodipodi.sourceforge.net/DTD/sodipodi-0.dtd"
   xmlns="http://www.w3.org/2000/svg"
   xmlns:svg="http://www.w3.org/2000/svg">
  <defs
     id="defs844" />
  <sodipodi:namedview
     id="namedview842"
     pagecolor="#ffffff"
     bordercolor="#999999"
     borderopacity="1"
     inkscape:pageshadow="0"
     inkscape:pageopacity="0"
     inkscape:pagecheckerboard="true"
     inkscape:document-units="pt"
     showgrid="false"
     showborder="true"
     units="px"
     inkscape:snap-intersection-paths="true"
     inkscape:snap-smooth-nodes="true"
     inkscape:object-nodes="true"
     inkscape:snap-bbox="true"
     inkscape:zoom="0.34921875"
     inkscape:cx="519.73154"
     inkscape:cy="462.46085"
     inkscape:window-width="1920"
     inkscape:window-height="1147"
     inkscape:window-x="1728"
     inkscape:window-y="25"
     inkscape:window-maximized="1"
     inkscape:current-layer="svg840" />
  <path
     id="rect1109"
     style="opacity:1;fill:#4aa35b;stroke-width:15;stroke-linecap:round;stroke-linejoin:round;fill-opacity:1"
     d="M 0,-1.5258789e-5 H 1200 V 799.99998 H 600 0 Z"
     sodipodi:nodetypes="cccccc" />
  <path
     id="rect1109-6"
     style="fill:#ffffff;stroke-width:15;stroke-linecap:round;stroke-linejoin:round"
     d="M 1e-5,-2.0223952e-5 H 1200 V 359.99998 H 600.00003 1e-5 Z"
     sodipodi:nodetypes="cccccc" />
  <path
     fill="#4aa35b"
     opacity="1"
     d="m 548.74921,153.69498 c 17.11,-26.22 34.19,-52.45 51.32,-78.65 22.51,34.46 44.99,68.95 67.47,103.43 1.41,1.42 0.18,3.02 -0.68,4.33 -22.32,34.01 -44.39,68.19 -66.79,102.15 -21.34,-32.34 -42.39,-64.87 -63.6,-97.3 -1.52,-2.54 -3.48,-4.83 -4.65,-7.56 5.23,-9.03 11.35,-17.57 16.93,-26.4 z"
     id="path835-7" />
  <path
     id="rect1269"
     style="opacity:1;fill:#803300;stroke-width:15;stroke-linecap:round;stroke-linejoin:round;fill-opacity:1"
     d="M 0,-1.5086954e-5 600,799.99998 H 0 Z"
     sodipodi:nodetypes="cccc" />
  <path
     id="rect1269-2"
     style="fill:#803300;stroke-width:15;stroke-linecap:round;stroke-linejoin:round;fill-opacity:1"
     d="m 1200,-2e-5 -600.00005,800 H 1200 Z"
     sodipodi:nodetypes="cccc" />
</svg>
