<?xml version="1.0" encoding="UTF-8" standalone="no"?>
<svg
   width="4800"
   height="3200"
   viewBox="0 0 3600 2400.0001"
   version="1.1"
   id="svg840"
   sodipodi:docname="dow--nation--proxima.svg"
   inkscape:version="1.1.1 (c3084ef, 2021-09-22)"
   inkscape:export-filename="/Users/jedlimke/code/prairiefiregaming.com/assets/megagames/dow--nation--proxima.png"
   inkscape:export-xdpi="36"
   inkscape:export-ydpi="36"
   xmlns:inkscape="http://www.inkscape.org/namespaces/inkscape"
   xmlns:sodipodi="http://sodipodi.sourceforge.net/DTD/sodipodi-0.dtd"
   xmlns="http://www.w3.org/2000/svg"
   xmlns:svg="http://www.w3.org/2000/svg">
  <defs
     id="defs844" />
  <sodipodi:namedview
     id="namedview842"
     pagecolor="#ffffff"
     bordercolor="#999999"
     borderopacity="1"
     inkscape:pageshadow="0"
     inkscape:pageopacity="0"
     inkscape:pagecheckerboard="true"
     inkscape:document-units="pt"
     showgrid="false"
     showborder="true"
     units="px"
     inkscape:snap-intersection-paths="true"
     inkscape:snap-smooth-nodes="true"
     inkscape:object-nodes="true"
     inkscape:snap-bbox="true"
     inkscape:zoom="0.17460938"
     inkscape:cx="140.3132"
     inkscape:cy="2041.7002"
     inkscape:window-width="1296"
     inkscape:window-height="969"
     inkscape:window-x="0"
     inkscape:window-y="38"
     inkscape:window-maximized="0"
     inkscape:current-layer="svg840"
     fit-margin-top="0"
     fit-margin-left="0"
     fit-margin-right="0"
     fit-margin-bottom="0"
     inkscape:snap-global="true">
    <inkscape:grid
       type="xygrid"
       id="grid3972"
       originx="2.9999999e-05"
       originy="1.5258788e-05" />
  </sodipodi:namedview>
  <path
     id="rect1109-7-2"
     style="fill:#ffffff;fill-opacity:1;stroke:none;stroke-width:14.9999;stroke-linecap:round;stroke-linejoin:round"
     d="M 3600,0 H 0 v 2400 h 1800 1800 z"
     sodipodi:nodetypes="cccccc"
     inkscape:export-filename="/Users/jedlimke/Documents/Megagames/DEN-OF-WOLVES-MARCH-2026/Den of Wolves - Infinite Domain/Den of Wolves - Infinite Domain v1.0/Materials/Image Assets/jed-flags/dow--nation--gliese.png"
     inkscape:export-xdpi="72"
     inkscape:export-ydpi="72" />
  <path
     id="rect1109-7"
     style="fill:#4aa35b;fill-opacity:1;stroke:none;stroke-width:20;stroke-linecap:round;stroke-linejoin:round"
     d="M 0 0 L 0 3200 L 1200 3200 L 2400 3200 L 2400 2650 A 1050 1050 0 0 1 1350 1600 A 1050 1050 0 0 1 2400 550 L 2400 0 L 0 0 z "
     transform="scale(0.75)" />
  <path
     id="path1927-87"
     style="fill:#4aa35b;fill-opacity:1;stroke-width:40;stroke-linecap:round;stroke-linejoin:round"
     d="M 2400 550 L 2400 1075 A 525 525 0 0 1 2925 1600 A 525 525 0 0 1 2400 2125 L 2400 2650 A 1050 1050 0 0 0 3450 1600 A 1050 1050 0 0 0 2400 550 z "
     transform="scale(0.75)" />
  <path
     id="path1927-8-1"
     style="fill:#4aa35b;fill-opacity:1;stroke-width:30;stroke-linecap:round;stroke-linejoin:round"
     d="m 1800,806.25 v 787.5 A 393.75,393.75 0 0 1 1406.25,1200 393.75,393.75 0 0 1 1800,806.25 Z" />
</svg>
