<?xml version="1.0" encoding="UTF-8" standalone="no"?>
<!-- Created with Inkscape (http://www.inkscape.org/) -->

<svg
   width="10.693977in"
   height="2.5111184in"
   viewBox="0 0 1026.6218 241.06737"
   version="1.1"
   id="svg5962"
   inkscape:version="1.1.1 (c3084ef, 2021-09-22)"
   sodipodi:docname="dow--homepage-vector.svg"
   inkscape:export-filename="E:\Workspace\mockups\saul.png"
   inkscape:export-xdpi="96"
   inkscape:export-ydpi="96"
   xmlns:inkscape="http://www.inkscape.org/namespaces/inkscape"
   xmlns:sodipodi="http://sodipodi.sourceforge.net/DTD/sodipodi-0.dtd"
   xmlns="http://www.w3.org/2000/svg"
   xmlns:svg="http://www.w3.org/2000/svg"
   xmlns:rdf="http://www.w3.org/1999/02/22-rdf-syntax-ns#"
   xmlns:cc="http://creativecommons.org/ns#"
   xmlns:dc="http://purl.org/dc/elements/1.1/">
  <defs
     id="defs5956" />
  <sodipodi:namedview
     id="base"
     pagecolor="#ffffff"
     bordercolor="#666666"
     borderopacity="1.0"
     inkscape:pageopacity="0"
     inkscape:pageshadow="2"
     inkscape:zoom="0.57611672"
     inkscape:cx="507.70962"
     inkscape:cy="51.204902"
     inkscape:document-units="in"
     inkscape:current-layer="layer2"
     showgrid="false"
     units="in"
     inkscape:pagecheckerboard="false"
     inkscape:window-width="1728"
     inkscape:window-height="1051"
     inkscape:window-x="0"
     inkscape:window-y="38"
     inkscape:window-maximized="1"
     inkscape:snap-bbox="true"
     inkscape:snap-nodes="false"
     inkscape:bbox-nodes="true"
     showguides="false"
     inkscape:guide-bbox="true"
     inkscape:bbox-paths="true"
     inkscape:snap-bbox-edge-midpoints="false"
     inkscape:snap-object-midpoints="false"
     inkscape:object-paths="true"
     inkscape:snap-intersection-paths="true"
     inkscape:snap-smooth-nodes="true"
     inkscape:snap-bbox-midpoints="false"
     inkscape:snap-others="true"
     inkscape:snap-global="false"
     inkscape:snap-text-baseline="true"
     inkscape:showpageshadow="false"
     fit-margin-top="0"
     fit-margin-left="0"
     fit-margin-right="0"
     fit-margin-bottom="0">
    <inkscape:grid
       type="xygrid"
       id="grid6507"
       empspacing="4"
       units="in"
       spacingx="24"
       spacingy="24"
       originx="-684.64263"
       originy="4282.9148" />
    <sodipodi:guide
       position="995.35735,-4257.8473"
       orientation="1,0"
       id="guide6736"
       inkscape:locked="false" />
    <sodipodi:guide
       position="-660.64264,-4113.8473"
       orientation="1,0"
       id="guide16581"
       inkscape:locked="false" />
    <sodipodi:guide
       position="587.35735,-3489.8473"
       orientation="0,1"
       id="guide16583"
       inkscape:locked="false" />
    <sodipodi:guide
       position="-732.64264,-5145.8473"
       orientation="0,1"
       id="guide16585"
       inkscape:locked="false" />
    <sodipodi:guide
       position="1067.3573,-4425.8473"
       orientation="1,0"
       id="guide17975"
       inkscape:locked="false" />
    <sodipodi:guide
       position="-588.64264,-5193.8473"
       orientation="1,0"
       id="guide17979"
       inkscape:locked="false" />
    <sodipodi:guide
       position="-588.64264,-5217.8473"
       orientation="0,1"
       id="guide7128"
       inkscape:locked="false" />
    <sodipodi:guide
       position="-900.64264,-4137.8473"
       orientation="0,1"
       id="guide90942"
       inkscape:locked="false" />
    <sodipodi:guide
       position="347.35735,-4329.8473"
       orientation="1,0"
       id="guide37006" />
    <sodipodi:guide
       position="251.35735,-4305.8473"
       orientation="1,0"
       id="guide37008" />
    <sodipodi:guide
       position="1523.3573,-153.84735"
       orientation="1,0"
       id="guide55454" />
    <sodipodi:guide
       position="2531.3573,-105.84735"
       orientation="1,0"
       id="guide55456" />
    <sodipodi:guide
       position="-1421.0045,1583.7517"
       orientation="0,-1"
       id="guide138980" />
  </sodipodi:namedview>
  <metadata
     id="metadata5959">
    <rdf:RDF>
      <cc:Work
         rdf:about="">
        <dc:format>image/svg+xml</dc:format>
        <dc:type
           rdf:resource="http://purl.org/dc/dcmitype/StillImage" />
      </cc:Work>
    </rdf:RDF>
  </metadata>
  <g
     inkscape:groupmode="layer"
     id="layer2"
     inkscape:label="Background"
     transform="translate(-684.64264,4330.9147)">
    <g
       aria-label="DEN
OF
WOLVES"
       id="text16572-7-5-8"
       style="font-weight:800;font-stretch:semi-expanded;font-size:102.041px;line-height:0.8;font-family:'Tofino Wide';-inkscape-font-specification:'Tofino Wide Ultra-Bold Semi-Expanded';fill:#ffffff;stroke-width:0.999999">
      <path
         d="m 689.23449,-4254.9497 h 28.77556 c 39.38783,0 45.91845,-11.8368 45.91845,-37.347 0,-25.4082 -6.53062,-37.5511 -45.91845,-37.5511 h -28.77556 z m 25.51025,-21.1225 v -32.245 h 8.26532 c 10.2041,0 14.59186,2.5511 14.59186,16.0205 0,13.3674 -4.38776,16.2245 -14.59186,16.2245 z"
         style="font-weight:900;-inkscape-font-specification:'Tofino Wide Heavy Semi-Expanded'"
         id="path161790" />
      <path
         d="m 772.29938,-4254.9497 h 61.83684 v -20.3062 h -36.32659 v -8.0612 h 29.59189 v -18.3674 h -29.59189 v -7.8571 h 35.40822 v -20.3062 h -60.91847 z"
         style="font-weight:900;-inkscape-font-specification:'Tofino Wide Heavy Semi-Expanded'"
         id="path161792" />
      <path
         d="m 888.07447,-4254.9497 h 29.59189 v -74.8981 h -24.59188 l 1.12245,42.4491 -22.75514,-42.4491 h -29.38781 v 74.8981 h 24.48984 l -1.02041,-41.2246 z"
         style="font-weight:900;-inkscape-font-specification:'Tofino Wide Heavy Semi-Expanded'"
         id="path161794" />
      <path
         d="m 724.8468,-4171.4802 c 24.79596,0 38.36741,-10.5102 38.36741,-39.2858 0,-28.7755 -13.57145,-39.2857 -38.36741,-39.2857 -24.89801,0 -38.36742,10.5102 -38.36742,39.2857 0,28.7756 13.46941,39.2858 38.36742,39.2858 z m -12.449,-39.2858 c 0,-14.1837 4.69388,-17.7551 12.449,-17.7551 7.75511,0 12.34696,3.5714 12.34696,17.7551 0,14.2858 -4.59185,17.7552 -12.34696,17.7552 -7.75512,0 -12.449,-3.4694 -12.449,-17.7552 z"
         style="font-weight:900;-inkscape-font-specification:'Tofino Wide Heavy Semi-Expanded'"
         id="path161796" />
      <path
         d="m 772.1428,-4173.3169 h 25.51025 v -24.5919 h 27.55107 v -19.0817 h -27.55107 v -10.9183 h 33.46945 v -20.3062 h -58.9797 z"
         style="font-weight:900;-inkscape-font-specification:'Tofino Wide Heavy Semi-Expanded'"
         id="path161798" />
      <path
         d="m 684.64264,-4166.5822 18.87759,74.8981 h 37.14292 l 7.75512,-52.347 6.73471,52.347 h 36.73476 l 20.10207,-74.8981 H 783.8265 l -8.87757,55.5103 -8.67349,-55.5103 h -34.59189 l -9.38778,55.4083 -7.14287,-55.4083 z"
         style="font-weight:900;-inkscape-font-specification:'Tofino Wide Heavy Semi-Expanded'"
         id="path161800" />
      <path
         d="m 851.40155,-4089.8474 c 24.79597,0 38.36742,-10.5102 38.36742,-39.2858 0,-28.7755 -13.57145,-39.2857 -38.36742,-39.2857 -24.898,0 -38.36741,10.5102 -38.36741,39.2857 0,28.7756 13.46941,39.2858 38.36741,39.2858 z m -12.449,-39.2858 c 0,-14.1837 4.69389,-17.7551 12.449,-17.7551 7.75512,0 12.34697,3.5714 12.34697,17.7551 0,14.2858 -4.59185,17.7552 -12.34697,17.7552 -7.75511,0 -12.449,-3.4694 -12.449,-17.7552 z"
         style="font-weight:900;-inkscape-font-specification:'Tofino Wide Heavy Semi-Expanded'"
         id="path161802" />
      <path
         d="m 898.69756,-4091.6841 h 54.79602 v -22.347 h -29.28577 v -52.5511 h -25.51025 z"
         style="font-weight:900;-inkscape-font-specification:'Tofino Wide Heavy Semi-Expanded'"
         id="path161804" />
      <path
         d="m 944.38802,-4166.5822 24.28576,74.8981 h 33.36742 l 24.7959,-74.8981 h -28.06123 l -13.26533,53.1634 -12.449,-53.1634 z"
         style="font-weight:900;-inkscape-font-specification:'Tofino Wide Heavy Semi-Expanded'"
         id="path161806" />
      <path
         d="m 1032.2278,-4091.6841 h 61.8368 v -20.3062 h -36.3266 v -8.0612 h 29.5919 v -18.3674 h -29.5919 v -7.8571 h 35.4083 v -20.3062 h -60.9185 z"
         style="font-weight:900;-inkscape-font-specification:'Tofino Wide Heavy Semi-Expanded'"
         id="path161808" />
      <path
         d="m 1136.064,-4089.8474 c 23.6736,0 36.0205,-8.3673 36.0205,-24.7959 0,-33.1634 -45.9184,-21.1225 -45.9184,-30.4082 0,-2.5511 1.7347,-4.6939 9.7959,-4.6939 9.2857,0 11.8368,2.8571 11.8368,8.0612 h 23.7755 c 0,-17.347 -10,-26.7347 -34.796,-26.7347 -25.3061,0 -36.4286,9.5918 -36.6327,25.4082 -0.4081,31.7347 46.3266,20 46.3266,29.7959 0,3.1633 -4.8979,4.5919 -10.4082,4.5919 -7.7551,0 -12.2449,-2.6531 -12.2449,-7.347 h -24.5919 c 0,16.7348 12.449,26.1225 36.8368,26.1225 z"
         style="font-weight:900;-inkscape-font-specification:'Tofino Wide Heavy Semi-Expanded'"
         id="path161810" />
    </g>
    <g
       aria-label="SATURDAY
MARCH 7th"
       id="text16572-7-9-48-3"
       style="font-weight:800;font-stretch:semi-expanded;font-size:47.4648px;line-height:0.85;font-family:'Tofino Wide';-inkscape-font-specification:'Tofino Wide Ultra-Bold Semi-Expanded';text-align:end;text-anchor:end;opacity:0.6;fill:#ffffff;stroke-width:0.999998">
      <path
         d="m 1441.0785,-4294.3668 c 11.0119,0 16.7551,-3.8921 16.7551,-11.534 0,-15.426 -21.3591,-9.8252 -21.3591,-14.1445 0,-1.1866 0.8069,-2.1834 4.5566,-2.1834 4.3193,0 5.5059,1.3291 5.5059,3.7498 h 11.0593 c 0,-8.0691 -4.6516,-12.4358 -16.1855,-12.4358 -11.7713,0 -16.9449,4.4617 -17.0399,11.8187 -0.1898,14.7616 21.5491,9.3031 21.5491,13.8597 0,1.4714 -2.2784,2.136 -4.8415,2.136 -3.6073,0 -5.6957,-1.2341 -5.6957,-3.4175 h -11.439 c 0,7.7842 5.7907,12.151 17.1347,12.151 z"
         style="font-weight:900;-inkscape-font-specification:'Tofino Wide Heavy Semi-Expanded'"
         id="path161757" />
      <path
         d="m 1457.8381,-4295.2212 h 12.5781 l 1.1867,-3.8446 h 12.6731 l 1.1866,3.8446 h 12.5782 l -12.9579,-34.8392 h -14.2869 z m 16.3753,-12.4358 3.7497,-12.2459 3.7023,12.2459 z"
         style="font-weight:900;-inkscape-font-specification:'Tofino Wide Heavy Semi-Expanded'"
         id="path161759" />
      <path
         d="m 1504.5323,-4295.2212 h 11.8187 v -24.3969 h 10.2524 v -10.4423 h -32.3235 v 10.4423 h 10.2524 z"
         style="font-weight:900;-inkscape-font-specification:'Tofino Wide Heavy Semi-Expanded'"
         id="path161761" />
      <path
         d="m 1545.559,-4294.3668 c 14.0021,0 16.3279,-6.123 16.3279,-18.5588 v -17.1348 h -11.9612 v 16.1855 c 0,7.5944 -1.0917,9.0184 -4.4142,9.0184 -3.1801,0 -4.4142,-1.424 -4.4142,-9.0184 v -16.1855 h -11.8188 v 17.1348 c 0,12.4358 2.4207,18.5588 16.2805,18.5588 z"
         style="font-weight:900;-inkscape-font-specification:'Tofino Wide Heavy Semi-Expanded'"
         id="path161763" />
      <path
         d="m 1566.9708,-4295.2212 h 11.8662 v -8.4962 h 4.6041 1.946 l 3.5124,8.4962 h 12.5782 l -5.0788,-10.3948 c 3.7023,-1.8511 5.1737,-5.2211 5.1737,-11.1067 0,-10.5847 -4.7939,-13.3377 -17.7518,-13.3377 h -16.85 z m 11.8662,-17.9892 v -7.357 h 3.6073 c 4.9363,0 6.9299,0.4747 6.9299,3.7023 0,3.1801 -1.9936,3.6547 -6.8824,3.6547 z"
         style="font-weight:900;-inkscape-font-specification:'Tofino Wide Heavy Semi-Expanded'"
         id="path161765" />
      <path
         d="m 1605.814,-4295.2212 h 13.3851 c 18.3214,0 21.3592,-5.5059 21.3592,-17.3721 0,-11.8187 -3.0378,-17.4671 -21.3592,-17.4671 h -13.3851 z m 11.8662,-9.8252 v -14.9989 h 3.8447 c 4.7465,0 6.7875,1.1866 6.7875,7.452 0,6.2179 -2.041,7.5469 -6.7875,7.5469 z"
         style="font-weight:900;-inkscape-font-specification:'Tofino Wide Heavy Semi-Expanded'"
         id="path161767" />
      <path
         d="m 1640.8371,-4295.2212 h 12.5782 l 1.1866,-3.8446 h 12.6731 l 1.1866,3.8446 h 12.5782 l -12.9579,-34.8392 h -14.2869 z m 16.3754,-12.4358 3.7497,-12.2459 3.7023,12.2459 z"
         style="font-weight:900;-inkscape-font-specification:'Tofino Wide Heavy Semi-Expanded'"
         id="path161769" />
      <path
         d="m 1686.8365,-4303.9073 v 8.6861 h 11.6763 v -8.781 l 12.7206,-26.0582 h -13.8598 l -4.7464,14.2869 -5.0788,-14.2869 h -13.1477 z"
         style="font-weight:900;-inkscape-font-specification:'Tofino Wide Heavy Semi-Expanded'"
         id="path161771" />
      <path
         d="m 1423.7939,-4254.8761 h 12.4833 l 7.9266,-24.8716 -1.0442,24.8716 h 11.7713 v -34.8392 H 1435.85 l -5.6483,23.6375 -5.8382,-23.6375 h -18.6062 v 34.8392 h 11.6764 l -1.0443,-24.8241 z"
         style="font-weight:900;-inkscape-font-specification:'Tofino Wide Heavy Semi-Expanded'"
         id="path161773" />
      <path
         d="m 1457.56,-4254.8761 h 12.5781 l 1.1866,-3.8447 h 12.6732 l 1.1866,3.8447 h 12.5781 l -12.9578,-34.8392 h -14.287 z m 16.3753,-12.4358 3.7497,-12.2459 3.7023,12.2459 z"
         style="font-weight:900;-inkscape-font-specification:'Tofino Wide Heavy Semi-Expanded'"
         id="path161775" />
      <path
         d="m 1500.4088,-4254.8761 h 11.8662 v -8.4962 h 4.6041 1.9461 l 3.5123,8.4962 h 12.5782 l -5.0787,-10.3948 c 3.7022,-1.8511 5.1736,-5.2211 5.1736,-11.1068 0,-10.5846 -4.7939,-13.3376 -17.7518,-13.3376 h -16.85 z m 11.8662,-17.9892 v -7.357 h 3.6073 c 4.9364,0 6.9299,0.4746 6.9299,3.7022 0,3.1802 -1.9935,3.6548 -6.8824,3.6548 z"
         style="font-weight:900;-inkscape-font-specification:'Tofino Wide Heavy Semi-Expanded'"
         id="path161777" />
      <path
         d="m 1555.8195,-4254.0217 c 10.3948,0 16.8975,-3.6074 16.945,-16.0906 h -11.6764 c -0.2848,5.316 -2.6106,6.0755 -5.3635,6.0755 -3.9396,0 -5.7907,-1.6138 -5.7907,-8.2589 0,-6.5976 1.946,-8.2114 5.9331,-8.2114 2.7055,0 4.9363,0.7594 5.2211,5.5059 h 11.6289 c -0.048,-11.9136 -6.5976,-15.5684 -16.8975,-15.5684 -11.8662,0 -17.9417,4.8888 -17.9417,18.2739 0,13.3851 6.0755,18.274 17.9417,18.274 z"
         style="font-weight:900;-inkscape-font-specification:'Tofino Wide Heavy Semi-Expanded'"
         id="path161779" />
      <path
         d="m 1598.2085,-4254.8761 h 11.8662 v -34.8392 h -11.8662 v 11.9612 h -9.7302 v -11.9612 h -11.8662 v 34.8392 h 11.8662 v -12.3409 h 9.7302 z"
         style="font-weight:900;-inkscape-font-specification:'Tofino Wide Heavy Semi-Expanded'"
         id="path161781" />
      <path
         d="m 1630.6619,-4254.8761 h 12.2459 c 0,-10.2524 5.7432,-19.508 10.4422,-25.1564 v -9.6828 h -29.618 v 9.6828 l 17.562,-0.4746 c -4.794,4.9838 -10.6321,13.9547 -10.6321,25.631 z"
         style="font-weight:900;-inkscape-font-specification:'Tofino Wide Heavy Semi-Expanded'"
         id="path161783" />
      <path
         d="m 1672.0059,-4254.8761 h 2.9429 v -8.9234 h -1.9936 c -2.7529,0 -3.8921,-1.0917 -3.8921,-4.699 v -5.0787 h 5.7433 v -7.6419 h -5.7433 v -8.3538 l -11.5814,1.7088 v 6.645 h -3.8446 v 7.6419 h 3.8446 v 5.0787 c 0,8.4013 1.1866,13.6224 14.5242,13.6224 z"
         style="font-weight:900;-inkscape-font-specification:'Tofino Wide Heavy Semi-Expanded'"
         id="path161785" />
      <path
         d="m 1697.2409,-4267.0271 v 12.151 h 11.5814 l 0.047,-13.8597 c 0.047,-8.8285 -2.3733,-12.9579 -9.2082,-12.9579 -4.1769,0 -7.5944,1.5189 -9.7303,2.9903 v -12.246 h -11.5814 v 36.0733 h 11.5814 v -14.5717 c 0.8069,-1.0442 1.9935,-2.0885 3.9396,-2.0885 2.0884,0 3.37,1.2341 3.37,4.5092 z"
         style="font-weight:900;-inkscape-font-specification:'Tofino Wide Heavy Semi-Expanded'"
         id="path161787" />
    </g>
    <g
       aria-label="GET TICKETS NOW"
       id="text16572-7-9-48-3-1"
       style="font-weight:800;font-stretch:semi-expanded;font-size:47.4648px;line-height:0.85;font-family:'Tofino Wide';-inkscape-font-specification:'Tofino Wide Ultra-Bold Semi-Expanded';text-align:end;text-anchor:end;fill:#000000;stroke-width:0.999998">
      <path
         d="m 1247.7225,-4090.8161 c 8.4012,0 13.5749,-3.6548 14.9988,-5.6958 v -12.1984 h -13.48 v 5.0312 h 7.5469 v 4.7465 c -0.7119,1.0917 -3.6547,2.9903 -8.8759,2.9903 -8.1165,0 -11.2966,-4.2718 -11.2966,-12.4832 0,-8.164 3.2751,-12.863 10.9644,-12.863 6.028,0 9.1607,3.0852 9.2556,6.9299 h 5.9806 c 0,-6.9299 -4.794,-12.0086 -15.3312,-12.0086 -12.0085,0 -16.8974,7.0247 -16.8974,17.8942 0,10.7745 4.6515,17.6569 17.1348,17.6569 z"
         style="font-weight:500;-inkscape-font-specification:'Tofino Wide Medium Semi-Expanded'"
         id="path161730" />
      <path
         d="m 1269.6089,-4091.5281 h 26.7702 v -5.316 h -20.8371 v -9.3981 h 17.6569 v -5.316 h -17.6569 v -8.781 h 20.5048 v -5.3161 h -26.4379 z"
         style="font-weight:500;-inkscape-font-specification:'Tofino Wide Medium Semi-Expanded'"
         id="path161732" />
      <path
         d="m 1311.8652,-4091.5281 h 5.9331 v -28.8586 h 12.6731 v -5.2686 h -31.3267 v 5.2686 h 12.7205 z"
         style="font-weight:500;-inkscape-font-specification:'Tofino Wide Medium Semi-Expanded'"
         id="path161734" />
      <path
         d="m 1355.8072,-4091.5281 h 5.9331 v -28.8586 h 12.6731 v -5.2686 h -31.3267 v 5.2686 h 12.7205 z"
         style="font-weight:500;-inkscape-font-specification:'Tofino Wide Medium Semi-Expanded'"
         id="path161736" />
      <path
         d="m 1378.8151,-4091.5281 h 5.9331 v -34.1272 h -5.9331 z"
         style="font-weight:500;-inkscape-font-specification:'Tofino Wide Medium Semi-Expanded'"
         id="path161738" />
      <path
         d="m 1408.1943,-4090.8161 c 9.9201,0 15.3311,-3.9396 15.5684,-12.9579 h -5.8856 c -0.3797,5.6009 -3.8921,7.8792 -9.7303,7.8792 -7.9741,0 -11.0593,-4.6041 -11.0593,-12.6731 0,-8.0691 3.0852,-12.7206 11.1068,-12.7206 5.9806,0 9.4929,2.5156 9.7777,7.9741 h 5.8857 c -0.1899,-8.781 -5.6483,-13.0528 -15.6634,-13.0528 -12.4358,0 -17.1348,6.9773 -17.1348,17.7993 0,10.8219 4.699,17.7518 17.1348,17.7518 z"
         style="font-weight:500;-inkscape-font-specification:'Tofino Wide Medium Semi-Expanded'"
         id="path161740" />
      <path
         d="m 1430.0808,-4091.5281 h 5.9331 v -7.452 l 8.0215,-8.4012 10.7745,15.8532 h 6.835 l -13.6699,-19.9352 13.5275,-14.192 h -7.3096 l -18.179,19.3182 v -19.3182 h -5.9331 z"
         style="font-weight:500;-inkscape-font-specification:'Tofino Wide Medium Semi-Expanded'"
         id="path161742" />
      <path
         d="m 1466.0502,-4091.5281 h 26.7701 v -5.316 h -20.837 v -9.3981 h 17.6569 v -5.316 h -17.6569 v -8.781 h 20.5048 v -5.3161 h -26.4379 z"
         style="font-weight:500;-inkscape-font-specification:'Tofino Wide Medium Semi-Expanded'"
         id="path161744" />
      <path
         d="m 1508.3064,-4091.5281 h 5.9331 v -28.8586 h 12.6731 v -5.2686 h -31.3267 v 5.2686 h 12.7205 z"
         style="font-weight:500;-inkscape-font-specification:'Tofino Wide Medium Semi-Expanded'"
         id="path161746" />
      <path
         d="m 1544.577,-4090.8161 c 9.5879,0 15.2362,-2.9903 15.2362,-10.1575 0,-14.9988 -24.0647,-7.2146 -24.0647,-15.7583 0,-2.658 2.2783,-4.5566 8.3538,-4.5566 7.6893,0 9.3031,3.0377 9.3031,5.3635 h 5.8857 c 0,-5.9805 -3.7498,-10.4422 -15.1413,-10.4422 -10.6321,0 -14.7141,3.7971 -14.7616,10.11 -0.095,14.6191 24.1596,6.7874 24.1596,15.6633 0,3.465 -3.8921,4.6991 -8.8759,4.6991 -6.6925,0 -10.2999,-2.3258 -10.2999,-6.1705 h -5.8381 c 0,7.5469 5.6958,11.2492 16.0431,11.2492 z"
         style="font-weight:500;-inkscape-font-specification:'Tofino Wide Medium Semi-Expanded'"
         id="path161748" />
      <path
         d="m 1597.8844,-4091.5281 h 13.7648 v -34.8391 h -11.439 l 0.5221,19.7453 -10.5847,-19.7453 h -13.6698 v 34.8391 h 11.3915 l -0.4746,-19.1758 z"
         style="font-weight:900;-inkscape-font-specification:'Tofino Wide Heavy Semi-Expanded'"
         id="path161750" />
      <path
         d="m 1633.6477,-4090.6737 c 11.5339,0 17.8467,-4.8889 17.8467,-18.274 0,-13.385 -6.3128,-18.2739 -17.8467,-18.2739 -11.5814,0 -17.8468,4.8889 -17.8468,18.2739 0,13.3851 6.2654,18.274 17.8468,18.274 z m -5.7907,-18.274 c 0,-6.5976 2.1833,-8.2588 5.7907,-8.2588 3.6073,0 5.7432,1.6612 5.7432,8.2588 0,6.6451 -2.1359,8.2589 -5.7432,8.2589 -3.6074,0 -5.7907,-1.6138 -5.7907,-8.2589 z"
         style="font-weight:900;-inkscape-font-specification:'Tofino Wide Heavy Semi-Expanded'"
         id="path161752" />
      <path
         d="m 1652.0284,-4126.3672 8.781,34.8391 h 17.2772 l 3.6073,-24.3494 3.1327,24.3494 h 17.0873 l 9.3506,-34.8391 h -13.1003 l -4.1295,25.8208 -4.0345,-25.8208 h -16.0905 l -4.3668,25.7733 -3.3225,-25.7733 z"
         style="font-weight:900;-inkscape-font-specification:'Tofino Wide Heavy Semi-Expanded'"
         id="path161754" />
    </g>
  </g>
  <g
     inkscape:label="Layer 1"
     inkscape:groupmode="layer"
     id="layer1"
     transform="translate(-684.64264,4491.1147)" />
  <style
     id="style91389"
     type="text/css">
	.st0{fill:#0076BE;}
	.st1{fill:#004270;}
	.st2{fill:#EF3A42;}
	.st3{fill:#973D97;}
	.st4{fill:#FDB913;}
	.st5{fill:#F7941E;}
</style>
</svg>
