<?xml version="1.0" encoding="UTF-8" standalone="no"?>
<svg
   width="4800"
   height="3200"
   viewBox="0 0 3600 2400.0001"
   version="1.1"
   id="svg840"
   sodipodi:docname="dow--nation--san.svg"
   inkscape:version="1.1.1 (c3084ef, 2021-09-22)"
   inkscape:export-filename="/Users/jedlimke/Documents/Megagames/DEN-OF-WOLVES-MARCH-2026/Den of Wolves - Infinite Domain/Den of Wolves - Infinite Domain v1.0/Materials/Image Assets/jed-flags/dow--nation--cpa.png"
   inkscape:export-xdpi="72"
   inkscape:export-ydpi="72"
   xmlns:inkscape="http://www.inkscape.org/namespaces/inkscape"
   xmlns:sodipodi="http://sodipodi.sourceforge.net/DTD/sodipodi-0.dtd"
   xmlns="http://www.w3.org/2000/svg"
   xmlns:svg="http://www.w3.org/2000/svg">
  <defs
     id="defs844" />
  <sodipodi:namedview
     id="namedview842"
     pagecolor="#ffffff"
     bordercolor="#999999"
     borderopacity="1"
     inkscape:pageshadow="0"
     inkscape:pageopacity="0"
     inkscape:pagecheckerboard="true"
     inkscape:document-units="pt"
     showgrid="false"
     showborder="true"
     units="px"
     inkscape:snap-intersection-paths="true"
     inkscape:snap-smooth-nodes="true"
     inkscape:object-nodes="true"
     inkscape:snap-bbox="true"
     inkscape:zoom="0.061733738"
     inkscape:cx="-218.68107"
     inkscape:cy="4657.0969"
     inkscape:window-width="1920"
     inkscape:window-height="1147"
     inkscape:window-x="1728"
     inkscape:window-y="25"
     inkscape:window-maximized="1"
     inkscape:current-layer="svg840"
     fit-margin-top="0"
     fit-margin-left="0"
     fit-margin-right="0"
     fit-margin-bottom="0"
     inkscape:snap-global="true">
    <inkscape:grid
       type="xygrid"
       id="grid3972"
       originx="2.9999999e-05"
       originy="1.5258788e-05" />
  </sodipodi:namedview>
  <g
     id="g966">
    <g
       id="g924"
       transform="matrix(-1,0,0,1,3600,1.5258787e-5)"
       style="fill:#ffffff;fill-opacity:1">
      <path
         id="rect1109-7"
         style="fill:#f4dd19;fill-opacity:1;stroke:none;stroke-width:15;stroke-linecap:round;stroke-linejoin:round"
         d="M 6.0000001e-5,7.9741213e-5 H 3599.9999 V 2399.9999 H 1800 6.0000001e-5 Z"
         sodipodi:nodetypes="cccccc"
         inkscape:export-filename="/Users/jedlimke/Documents/Megagames/DEN-OF-WOLVES-MARCH-2026/Den of Wolves - Infinite Domain/Den of Wolves - Infinite Domain v1.0/Materials/Image Assets/jed-flags/dow--nation--gliese.png"
         inkscape:export-xdpi="72"
         inkscape:export-ydpi="72" />
      <path
         id="rect1109"
         style="fill:#2c9839;fill-opacity:1;stroke:none;stroke-width:15;stroke-linecap:round;stroke-linejoin:round"
         d="M 2982.4629,-1.5258787e-5 -2.9999999e-5,1988.3086 V 2400 H 617.53708 L 3600,411.69139 V -1.5258787e-5 Z" />
    </g>
    <g
       id="g10776"
       transform="matrix(2.2612275,0,0,2.2612275,-2357.3168,-85.271905)"
       style="stroke-width:0.442238">
      <circle
         style="fill:#6da6cd;fill-opacity:1;stroke-width:13.2671;stroke-linecap:round;stroke-linejoin:round"
         id="path6979"
         cx="2338.6726"
         cy="334.09558"
         r="111.60986" />
      <path
         id="path6556"
         style="fill:#6da6cd;fill-opacity:1;stroke-width:0.442237"
         d="m 2342.2922,90.951063 c -0.3,11.089997 -0.08,22.629747 -4.6596,32.989747 -5.12,11.82 -17.1006,18.66943 -23.1006,29.91943 -8.5218,15.5329 -10.147,34.12046 -6.3941,51.30029 a 132.56779,132.56779 0 0 1 30.5347,-3.63281 132.56779,132.56779 0 0 1 18.4629,1.3169 c -5.3733,-6.74014 -11.5139,-13.05571 -14.6235,-21.24463 -2.42,-6.59 -4.1597,-13.92938 -2.1197,-20.85938 2.95,-10.62999 9.371,-20.2998 9.961,-31.5498 1.21,-13.24 -3.0111,-26.18975 -8.0611,-38.239747 z m -121.8003,31.270017 c 5.44,11.42 12.6309,22.80994 12.3809,35.93995 -1.11,11.11999 -5.8798,21.66923 -5.5298,32.96923 0.5226,17.47727 8.7295,34.00273 20.2588,46.89844 a 132.56779,132.56779 0 0 1 41.2647,-26.62793 c -7.3352,-2.3398 -14.6974,-4.87549 -21.0235,-9.37061 -7.72,-5.20999 -14.03,-13.19935 -15.4599,-22.58935 -1.3601,-8.37 -1.7004,-17.02049 -4.8604,-25.00049 -5.08,-13.44 -16.0608,-23.45924 -27.0308,-32.21924 z m 242.9004,3.75 c -4.11,6.13 -7.6991,12.64948 -12.5991,18.20947 -5.38,5.94 -12.0209,11.11005 -19.9409,13.04004 -9.9,2.47 -19.7596,5.96051 -28.0796,12.02051 -12.7171,9.17107 -20.7945,23.34907 -25.9702,37.90283 a 132.56779,132.56779 0 0 1 44.0127,22.9292 c -2.616,-12.27653 -4.487,-25.43828 0.7881,-37.25244 5.09,-11.73 17.9191,-16.61017 26.0991,-25.68018 8.24,-9.07999 12.1996,-21.04956 14.8096,-32.80956 0.64,-2.74001 0.8003,-5.55987 0.8803,-8.35987 z m -332.8095,84.32959 c 8.27,5.99 17.7594,10.65063 24.1494,18.89063 8.17,9.28 8.2908,22.40878 13.8808,33.00879 8.03,16.17 23.6889,27.13039 40.1089,33.65038 0.9849,0.35599 2.0282,0.48506 3.0557,0.67677 a 132.56779,132.56779 0 0 1 22.437,-43.66554 c -4.3271,0.75394 -8.6345,1.62122 -12.9815,2.29835 -8.8999,1.44 -18.2004,-0.31963 -26.2104,-4.36963 -8.87,-5 -13.3596,-14.62969 -20.2896,-21.67969 -11.14,-12.34 -28.1103,-17.26006 -44.1503,-18.81006 z m 421.0693,4.9292 c -9.47,5.15 -19.0699,10.83004 -29.94,12.29004 -12.9699,1.52 -25.1095,-5.01971 -37.9995,-4.94971 -17.99,0.18 -35.08,8.43981 -48.29,20.29981 -0.1219,0.15979 -0.079,0.31473 -0.1436,0.47314 a 132.56779,132.56779 0 0 1 26.6983,42.10986 c 3.7542,-12.15222 8.5736,-25.0545 19.5351,-32.4829 7.8301,-5.96 17.9496,-6.13975 27.2696,-7.48975 9.63,-1.45 18.9905,-5.46025 26.2705,-12.01025 6.12,-5.50001 12.0596,-11.33024 16.5996,-18.24024 z m -63.8584,86.11963 c -6.8178,-0.0576 -13.6585,0.67029 -20.2397,1.82666 a 132.56779,132.56779 0 0 1 3.687,30.91992 132.56779,132.56779 0 0 1 -1.4561,18.65185 c 5.2548,-3.89997 10.0432,-8.42637 15.6372,-11.87694 6.81,-4.5 15.111,-6.53025 23.231,-6.24024 7.46,0.51 14.0297,4.48056 20.9897,6.83057 8.85,3.52999 18.6196,4.99925 28.0796,3.48925 8.2,-1.55 16.3596,-3.71049 24.0396,-7.00048 -2.63,-0.69 -5.3191,-1.21895 -8.0391,-1.16895 -7.6,0.11 -15.2502,-1.08021 -22.4502,-3.47021 -12.09,-4.99 -19.1001,-17.04082 -30.3501,-23.34082 -9.9688,-6.1875 -21.5044,-8.52247 -33.1289,-8.62061 z m -280.4722,15.3999 c -5.5732,4.52714 -10.9379,9.40387 -17.4594,12.53174 -8.9,5.01 -20.1292,6.37975 -29.6192,2.23975 -11.83,-4.73001 -24.3304,-10.64022 -37.4004,-7.97022 -9.51,0.72 -18.4693,4.10057 -27.2593,7.58057 6.09,0.71 12.2796,0.0194 18.3296,1.18945 8.36,1.15 16.9498,3.53942 23.4698,9.14942 7.03,5.89 13.0897,13.07029 21.2197,17.55029 15.5305,8.55484 34.1091,9.94238 51.3398,6.72217 a 132.56779,132.56779 0 0 1 -3.8379,-31.64649 132.56779,132.56779 0 0 1 1.2173,-17.34668 z m 258.3267,54.65332 a 132.56779,132.56779 0 0 1 -22.6714,44.12256 c 6.9093,-0.90967 13.7334,-2.71146 20.7451,-2.60449 8.82,0.28 18.2506,2.0491 24.8906,8.3291 7.99,7.7 13.1905,18.11002 22.4605,24.52002 11.02,7.88 24.5497,10.98023 37.7197,12.99023 -6.85,-5.13 -14.6397,-8.98027 -20.9897,-14.78027 -5.4,-5.07 -9.31,-11.6691 -11.19,-18.8291 -2.84,-10.44 -6.4206,-21.01074 -13.3506,-29.51074 -9.5867,-11.82568 -23.2248,-19.72427 -37.6142,-24.23731 z m -249.293,13.33594 c -2.4974,6.87433 -4.9269,13.83498 -8.9824,19.97168 -4.07,6.14 -9.6398,11.6303 -16.4897,14.55029 -9.7901,3.04 -20.2904,2.82975 -30.0704,5.98975 -7.76,2.33 -14.3505,7.29994 -20.2705,12.68994 -5.18,4.79 -10.24,9.82057 -14.02,15.83057 9.47,-5.53 19.2297,-11.10075 30.1597,-13.01075 11.7,-1.6 22.6101,4.36991 34.1601,4.89991 9.19,0.81 18.621,-0.41957 27.0411,-4.30958 9.2837,-3.63606 17.886,-8.90954 25.1704,-15.73681 a 132.56779,132.56779 0 0 1 -26.6983,-40.875 z m 213.8731,44.93848 a 132.56779,132.56779 0 0 1 -41.2676,26.89599 c 6.1166,2.71505 12.681,4.37004 18.4717,7.79736 8.32,4.8 15.7404,12.14994 18.1904,21.68994 2.41,9.53001 1.8597,19.75036 5.9897,28.86036 5.1,13.14 15.6804,23.15022 26.9004,31.22022 -5.37,-10.40001 -12.3404,-20.8502 -12.4804,-32.9502 -0.62,-10 3.9296,-19.28988 4.8296,-29.12988 2.0382,-20.08685 -7.0196,-39.98215 -20.6338,-54.38379 z m -172.0547,9.45264 c 0.8425,5.99226 2.3061,11.91416 2.1284,18.01025 0.26,9.06 -1.8094,18.72119 -7.8794,25.72119 -7.28,8.11 -17.6799,12.8793 -24.1699,21.77929 -7.85,10.73001 -11.8694,23.93985 -12.8994,37.08985 3.81,-4.6 6.5098,-9.98984 10.3198,-14.58985 5.08,-6.75999 11.8689,-12.63056 20.0889,-15.08056 8.98,-3.03 18.5712,-4.90937 26.5312,-10.35938 14.4534,-9.27692 24.3076,-24.31596 29.6733,-40.43994 a 132.56779,132.56779 0 0 1 -43.7929,-22.13085 z m 112.144,23.69677 a 132.56779,132.56779 0 0 1 -31.645,3.83789 132.56779,132.56779 0 0 1 -17.4346,-1.23339 c 4.7678,5.71835 9.9149,11.23347 13.1851,18 2.79,6.10999 5.029,12.8096 4.689,19.5996 -1.6001,11.63 -8.7195,21.60948 -10.4795,33.20948 -1.9,14.05 2.0502,28.13097 7.4502,41.00097 0.85,-9.75 0.5093,-19.75039 3.6093,-29.15039 1.83,-6.37 5.9708,-11.74968 10.5308,-16.42968 5.5,-5.52 10.7404,-11.40993 14.6704,-18.16993 4.32,-8.45 6.9793,-17.81105 7.2993,-27.33105 0.2468,-7.80287 0.1323,-15.73844 -1.875,-23.3335 z" />
      <g
         id="g9281"
         transform="translate(2065.6726,57.095594)"
         style="stroke-width:0.442238">
        <path
           fill="#fefdfc"
           opacity="1"
           d="m 332.71,209.715 c 2.95,-4.75 3.68,-10.37 4.57,-15.78 0.71,6.12 1.31,12.57 -0.91,18.47 -2.7,7.25 -7.68,13.43 -13.41,18.54 -9.43,8.37 -20.48,14.62 -31.66,20.32 -5.45,2.59 -10.77,5.62 -16.68,7.04 6.73,-6.11 15.34,-9.62 22.29,-15.43 2.4,-2.96 0.24,-7.37 -3.07,-8.61 -8.11,-3.55 -17.27,-2.68 -25.9,-2.52 8.51,-1.72 17.18,-4.2 25.91,-2.72 5.18,0.81 9.89,3.27 14.36,5.89 9.53,-6.85 18.57,-14.96 24.5,-25.2 z"
           id="path6587"
           style="stroke-width:0.161168" />
        <path
           fill="#fefdfc"
           opacity="1"
           d="m 207.35,203.865 c 8.09,3.74 12.99,11.64 16.24,19.61 1.86,4.52 2.75,9.5 5.68,13.53 0.45,-8.86 -4.64,-16.67 -7.96,-24.55 2.38,2.06 4.62,4.39 6.02,7.25 5.18,10.42 6.47,22.14 7.94,33.54 0.14,1.66 0.11,3.34 0.1,5.02 -2.43,-5.59 -2.66,-11.78 -4.36,-17.57 -2.72,4.3 0.56,9.31 0.38,13.94 -3.12,-3.75 -3.97,-8.63 -5.92,-12.97 -0.54,-0.98 -1,-2.31 -2.22,-2.59 -3.52,-0.96 -7.2,-1.23 -10.67,-2.39 3.4,-0.82 6.89,-1.26 10.37,-1.66 -4.08,-10.85 -7.22,-22.68 -15.6,-31.16 z"
           id="path6589"
           style="stroke-width:0.161168" />
        <path
           fill="#fefdfc"
           opacity="1"
           d="m 333.69,228.705 c 5.5,-4.92 9.24,-11.49 10.76,-18.69 0.97,9.97 -4.54,19.26 -11.76,25.68 -10.77,9.7 -24.49,15.1 -37.89,20.08 -4.98,1.74 -9.99,3.61 -15.28,4.12 4.56,-3.22 9.88,-5.05 14.88,-7.46 13.78,-6.62 28.01,-13.17 39.29,-23.73 z"
           id="path6591"
           style="stroke-width:0.161168" />
        <path
           fill="#fefdfc"
           opacity="1"
           d="m 230.24,216.935 c 2.76,3.04 5.18,6.49 6.27,10.5 2.8,9.98 2.42,20.49 1.95,30.75 -1.67,-8.25 -2.1,-16.68 -3.25,-25.01 -0.8,-5.64 -2.9,-10.96 -4.97,-16.24 z"
           id="path6593"
           style="stroke-width:0.161168" />
        <path
           fill="#fefdfc"
           opacity="1"
           d="m 239.53,221.835 c 5.32,5.62 5.44,13.81 4.81,21.06 -0.48,5.23 -1.28,10.51 -3.58,15.28 0.94,-12.06 2.44,-24.58 -1.23,-36.34 z"
           id="path6595"
           style="stroke-width:0.161168" />
        <path
           fill="#fefdfc"
           opacity="1"
           d="m 249.68,227.805 c 4.76,9.29 0.55,20.19 -4.48,28.45 0.75,-5.84 3.21,-11.27 4.26,-17.04 0.7,-3.77 0.3,-7.61 0.22,-11.41 z"
           id="path6597"
           style="stroke-width:0.161168" />
        <path
           fill="#fefdfc"
           opacity="1"
           d="m 329.07,243.135 c 5,-2.83 9.01,-6.97 13.16,-10.87 -2.93,6.94 -8.83,12.02 -15.07,15.95 -9.94,6.07 -21.16,9.54 -32.3,12.66 -5.31,1.37 -10.67,2.77 -16.19,2.99 16.51,-7.58 34.82,-11.08 50.4,-20.73 z"
           id="path6599"
           style="stroke-width:0.161168" />
        <path
           fill="#fefdfc"
           opacity="1"
           d="m 323.33,253.275 c 5.01,-2.18 9.33,-5.59 14.09,-8.22 -2.4,3.63 -5.44,6.87 -9.15,9.18 -8.95,5.66 -19.33,8.44 -29.62,10.47 -6.35,1.21 -12.73,2.82 -19.24,2.48 2.07,-1 4.21,-1.9 6.43,-2.56 12.54,-3.61 25.54,-5.94 37.49,-11.35 z"
           id="path6601"
           style="stroke-width:0.161168" />
        <path
           fill="#fefdfc"
           opacity="1"
           d="m 323.43,260.465 c 4.71,-1.92 8.71,-5.12 12.66,-8.25 -4.54,8.83 -14.22,13.26 -23.44,15.49 -11.77,2.64 -23.92,3.71 -35.96,2.66 15.46,-3.79 31.86,-3.77 46.74,-9.9 z"
           id="path6603"
           style="stroke-width:0.161168" />
        <path
           fill="#fefdfc"
           opacity="1"
           d="m 228.01,269.045 c 6.82,-3.35 14.18,-6.23 21.92,-5.89 0.74,3.25 1.7,6.52 1.65,9.89 0.01,3.51 -1.4,6.78 -2.54,10.03 3.47,3.63 7.39,7.28 8.76,12.29 1.5,4.79 -0.4,10.11 -3.85,13.57 -2.02,2.17 -5.18,2.08 -7.87,2.57 -3.6,0.3 -6.4,2.81 -9.36,4.6 2.58,0.52 5.68,2.45 7.67,-0.23 5.31,3.24 10.49,-2.01 15.67,-2.98 12.33,0.58 24.14,11.43 23.66,24.19 0.1,4.88 -2.89,8.97 -5.22,13.01 3.29,5.96 7.86,11.39 14.06,14.46 5.58,2.9 12.45,3.69 18.38,1.34 3.96,-1.7 6.99,-4.88 10.23,-7.61 -3.52,6.49 -9.36,12.31 -17.1,12.93 -12.62,0.83 -23.97,-7.53 -30.18,-18.03 -8.49,4.65 -18.09,8.18 -27.92,7.26 -4.15,-0.38 -8.2,-2.88 -9.73,-6.87 -1.69,-3.48 -0.22,-7.48 2.05,-10.3 4.23,-5.2 11.12,-8.11 17.8,-7.46 6.82,0.37 12.85,3.94 18.35,7.69 5.46,-9.09 -1.94,-21.19 -11.64,-23.14 -2.6,-0.64 -4.24,2 -6.3,3.06 -3.01,-0.49 -5.69,-2.97 -8.88,-2.01 -4.93,1.2 -9.77,2.84 -14.5,4.69 -2.33,0.82 -3.17,3.36 -4.44,5.24 -1.22,0.08 -2.45,0.16 -3.67,0.23 0.55,-0.87 1.11,-1.74 1.67,-2.59 -2.96,0.92 -5.99,1.65 -9.05,2.18 0.32,-2.75 0.71,-5.48 1.06,-8.21 -1.51,0.49 -3.02,1 -4.52,1.51 0.9,2.3 1.88,4.57 2.87,6.83 -0.48,0.18 -1.43,0.53 -1.91,0.7 -1.55,-2.34 -3.28,-4.58 -4.68,-7.01 0.63,-1.69 1.53,-4.01 3.62,-4.15 6.8,-0.77 14.22,1.38 20.3,-2.74 -1.27,-2.39 -2.6,-4.75 -3.98,-7.07 4.05,-3.94 9.39,-7.27 11,-13.02 1.21,-5.26 -2.13,-10.25 -5.87,-13.61 -1.13,-1.15 -2.88,-0.44 -4.23,-0.24 -3.78,0.85 -7.07,2.99 -10.35,4.93 -0.45,-1.67 -0.91,-3.34 -1.36,-5 -2.95,1.06 -5.69,2.7 -7.52,5.32 -0.57,-0.45 -1.21,-0.76 -1.92,-0.93 0.8,-4.05 3.66,-7.17 5.95,-10.46 2.98,-4.11 7.53,-6.63 11.92,-8.97 m -9.35,11.59 c 1.3,-0.04 2.59,-0.08 3.89,-0.12 0.1,-1.56 0.18,-3.12 0.25,-4.68 -1.66,1.34 -3.05,2.96 -4.14,4.8 m 31.31,62.38 c -2.34,1.16 -4.84,3.22 -4.74,6.09 -0.59,3.55 3.64,5.5 6.63,5.24 6.48,-0.99 12.83,-3.4 18.04,-7.44 -5.11,-5 -13.34,-6.97 -19.93,-3.89 z"
           id="path6607"
           style="stroke-width:0.161168" />
        <path
           fill="#fefdfc"
           opacity="1"
           d="m 303.09,271.745 c 10.72,0.1 21.56,-2.85 30.17,-9.39 -2.31,2.95 -4.76,5.92 -8.04,7.84 -5.75,3.45 -12.55,4.59 -19.13,5.2 -9.85,0.39 -19.85,0.35 -29.51,-1.86 8.79,-1.19 17.68,-1.01 26.51,-1.79 z"
           id="path6605"
           style="stroke-width:0.161168" />
        <path
           fill="#fefdfc"
           opacity="1"
           d="m 315.95,278.045 c 5.16,-0.7 9.82,-3.12 14.36,-5.52 -2.74,2.86 -5.57,5.84 -9.32,7.36 -6.91,2.88 -14.65,3 -21.97,1.94 -6.97,-0.96 -14.04,-2.09 -20.57,-4.84 12.52,-1.18 24.98,3.17 37.5,1.06 z"
           id="path6609"
           style="stroke-width:0.161168" />
        <path
           fill="#fefdfc"
           opacity="1"
           d="m 274.89,282.045 c 7.3,0.73 14.01,3.95 21.16,5.35 5.02,0.97 10.18,0.4 15.11,-0.8 -3.65,2.23 -7.72,4.2 -12.12,3.77 -8.59,-0.65 -16.74,-4.08 -24.15,-8.32 z"
           id="path6611"
           style="stroke-width:0.161168" />
        <path
           fill="#fefdfc"
           opacity="1"
           d="m 259.28,284.995 c 5.3,2.22 11.38,4.69 13.89,10.28 1.37,5.02 -1.73,10.27 -5.51,13.41 -2.84,2.53 -6.43,0.08 -9.16,-1.32 1.47,-4.84 1.16,-9.94 2.04,-14.87 0.6,-2.59 -0.52,-5.08 -1.26,-7.5 z"
           id="path6613"
           style="stroke-width:0.161168" />
        <path
           fill="#fefdfc"
           opacity="1"
           d="m 273.69,285.115 c 6.26,1.69 11.82,5.16 17.96,7.18 4.34,1.48 8.97,1.37 13.5,1.39 -5.81,2.85 -12.62,2.25 -18.35,-0.49 -4.75,-2 -9.37,-4.5 -13.11,-8.08 z"
           id="path6615"
           style="stroke-width:0.161168" />
        <path
           fill="#fefdfc"
           opacity="1"
           d="m 269,286.865 c 5.1,2.04 9.53,5.34 14.25,8.11 4.19,2.53 9.06,3.62 13.24,6.17 -11.01,0.47 -20.15,-6.93 -27.49,-14.28 z"
           id="path6617"
           style="stroke-width:0.161168" />
        <path
           fill="#fefdfc"
           opacity="1"
           d="m 187.4,327.865 c -1.24,-9.72 2.66,-19.81 9.56,-26.68 1.05,0.53 2.1,1.07 3.16,1.6 -1.31,3.53 -2.34,7.15 -3.13,10.83 2.75,-0.24 5.59,-0.22 7.99,1.36 -3.59,1.57 -8.69,1.31 -10.76,5.23 -1.29,2.27 -1.42,6.02 1.36,7.24 4.19,2.15 9.05,0.62 13.45,0.14 1.41,1.58 2.83,3.15 4.25,4.73 -5.85,1.98 -12.12,2.91 -18.27,2.14 -3.46,-0.5 -7.14,-2.88 -7.61,-6.59 z"
           id="path6619"
           style="stroke-width:0.161168" />
        <path
           fill="#fefdfc"
           opacity="1"
           d="m 295.68,306.855 c 15.54,2.63 29.59,11.3 45.55,12.1 -8.26,2.9 -17.17,1.2 -25.11,-1.9 -7.1,-2.74 -14.32,-5.58 -20.44,-10.2 z"
           id="path6621"
           style="stroke-width:0.161168" />
        <path
           fill="#fefdfc"
           opacity="1"
           d="m 292.79,308.605 c 15.44,5.31 28.98,15.67 45.33,18.47 -4.31,0.45 -8.76,0.97 -13.02,-0.17 -4.27,-1.1 -8.29,-2.96 -12.45,-4.39 5.24,4.25 11.62,6.57 17.67,9.36 -7.51,0.63 -14.68,-2.19 -20.88,-6.21 -6.67,-4.37 -13.52,-8.79 -18.71,-14.95 3.19,1.25 6.23,2.84 9.3,4.35 -2.47,-2.08 -4.98,-4.14 -7.24,-6.46 z"
           id="path6623"
           style="stroke-width:0.161168" />
        <path
           fill="#fefdfc"
           opacity="1"
           d="m 283.83,313.035 c 5.69,5.04 10.38,11.07 15.63,16.55 3.37,3.66 7.18,6.89 10.56,10.56 -5.93,-1.71 -10.79,-5.75 -14.76,-10.33 -4.41,-5.15 -8.63,-10.57 -11.43,-16.78 z"
           id="path6625"
           style="stroke-width:0.161168" />
        <path
           fill="#fefdfc"
           opacity="1"
           d="m 287.94,312.585 c 12,6.99 21.51,17.65 34.18,23.63 -8.26,0.07 -15.26,-4.83 -21.28,-9.96 -4.71,-4.12 -9.5,-8.34 -12.9,-13.67 z"
           id="path6627"
           style="stroke-width:0.161168" />
        <path
           fill="#fefdfc"
           opacity="1"
           d="m 281,314.915 c 4.11,4.13 6.89,9.29 10.15,14.06 2.13,3.16 4.62,6.08 6.82,9.2 -8.83,-4.68 -13.66,-14.25 -16.97,-23.26 z"
           id="path6629"
           style="stroke-width:0.161168" />
      </g>
    </g>
  </g>
</svg>
