<?xml version="1.0" encoding="UTF-8" standalone="no"?>
<!-- Created with Inkscape (http://www.inkscape.org/) -->

<svg
   width="3840"
   height="720"
   viewBox="0 0 1016 190.50001"
   version="1.1"
   id="svg5"
   inkscape:version="1.1.1 (c3084ef, 2021-09-22)"
   sodipodi:docname="index--discord-banner--source.svg"
   xmlns:inkscape="http://www.inkscape.org/namespaces/inkscape"
   xmlns:sodipodi="http://sodipodi.sourceforge.net/DTD/sodipodi-0.dtd"
   xmlns="http://www.w3.org/2000/svg"
   xmlns:svg="http://www.w3.org/2000/svg">
  <sodipodi:namedview
     id="namedview7"
     pagecolor="#ffffff"
     bordercolor="#999999"
     borderopacity="1"
     inkscape:pageshadow="0"
     inkscape:pageopacity="0"
     inkscape:pagecheckerboard="0"
     inkscape:document-units="px"
     showgrid="true"
     units="px"
     inkscape:zoom="0.16013082"
     inkscape:cx="1508.1419"
     inkscape:cy="590.14248"
     inkscape:window-width="1920"
     inkscape:window-height="1147"
     inkscape:window-x="1728"
     inkscape:window-y="25"
     inkscape:window-maximized="1"
     inkscape:current-layer="g48951"
     showguides="true"
     inkscape:guide-bbox="true">
    <inkscape:grid
       type="xygrid"
       id="grid824"
       spacingx="1.0583334"
       spacingy="1.0583334"
       empspacing="5" />
    <sodipodi:guide
       position="973.6667,42.33333"
       orientation="1,0"
       id="guide969" />
    <sodipodi:guide
       position="317.50001,158.75001"
       orientation="1,0"
       id="guide46119" />
    <sodipodi:guide
       position="-63.500002,169.33334"
       orientation="0,-1"
       id="guide48953" />
    <sodipodi:guide
       position="-63.500002,21.166662"
       orientation="0,-1"
       id="guide48955" />
  </sodipodi:namedview>
  <defs
     id="defs2" />
  <g
     inkscape:label="Layer 1"
     inkscape:groupmode="layer"
     id="layer1">
    <path
       d="m 920.16987,-11.873938 c -16.79793,1.845971 -33.59546,5.8370738 -49.97883,12.04679379 -0.0354,4.18616501 0.24187,9.62887101 0.69017,13.82725721 -17.21969,6.942547 -32.99391,16.0498 -47.32358,27.322281 -3.41084,-2.487959 -8.03555,-5.420707 -11.69458,-7.473855 -13.58641,11.093337 -25.44788,23.669335 -35.43639,37.309347 -4.87317,53.967374 9.40179,95.610144 34.35824,130.377204 25.18385,2.22749 46.96369,-0.16276 66.92607,-5.0235 1.06952,-7.88541 1.48396,-15.85169 1.19727,-23.83089 -7.44219,1.36023 -14.92049,2.0539 -22.32638,2.12123 0.88697,-1.88563 1.71332,-3.80026 2.47282,-5.71768 42.69668,-4.69744 79.69794,-26.0601 104.70795,-60.45317 2.05629,0.29173 4.12757,0.53341 6.18714,0.71786 -3.76857,6.40433 -8.12538,12.54365 -13.023,18.30906 6.75668,4.22243 13.8556,7.87095 21.23586,10.87913 C 992.37,123.66995 1005.3453,105.99305 1016,83.054078 995.61287,37.817812 962.5711,7.4679158 920.16987,-11.873938 Z M 865.9156,139.46339 c -10.22357,5.90257 -23.78438,1.77511 -30.08834,-9.14368 -6.30399,-10.91881 -3.28551,-24.6384 7.11681,-30.644182 10.40229,-6.00576 23.96258,-1.87924 30.09704,9.158752 6.32087,10.90903 3.27678,24.62333 -7.12551,30.62911 z m 68.76322,-39.700482 c -10.22356,5.902582 -23.78438,1.775112 -30.08834,-9.14367 -6.30398,-10.9188 -3.28549,-24.638397 7.11681,-30.64417 10.40231,-6.005781 23.96353,-1.879793 30.09703,9.158746 6.30397,10.918794 3.2768,24.623324 -7.1255,30.629094 z"
       fill="#5865f2"
       id="path875"
       style="stroke-width:6.61458" />
    <g
       id="g48951"
       transform="translate(0,21.162721)">
      <text
         xml:space="preserve"
         style="font-size:40.2768px;line-height:1;font-family:Univers;-inkscape-font-specification:Univers;stroke-width:0.264583;fill:#ffffff;opacity:0.5"
         x="-0.040276799"
         y="29.278603"
         id="text1305-8"><tspan
           sodipodi:role="line"
           style="font-style:normal;font-variant:normal;font-weight:800;font-stretch:semi-expanded;font-family:'Tofino Wide';-inkscape-font-specification:'Tofino Wide Ultra-Bold Semi-Expanded';stroke-width:0.264583;fill:#ffffff"
           x="-0.040276799"
           y="29.278603"
           id="tspan10890-1">WANT TO BE THE FIRST TO KNOW</tspan><tspan
           sodipodi:role="line"
           style="font-style:normal;font-variant:normal;font-weight:800;font-stretch:semi-expanded;font-family:'Tofino Wide';-inkscape-font-specification:'Tofino Wide Ultra-Bold Semi-Expanded';stroke-width:0.264583;fill:#ffffff"
           x="-0.040276799"
           y="70.193344"
           id="tspan39517">ABOUT OUR NEXT MEGAGAME?</tspan></text>
      <g
         id="g48935"
         transform="translate(-6.5982687,30.510786)"
         style="fill:#ffffff">
        <text
           xml:space="preserve"
           style="font-size:61.6998px;line-height:1;font-family:Univers;-inkscape-font-specification:Univers;stroke-width:0.264583;fill:#ffffff"
           x="6.3514695"
           y="117.60397"
           id="text1305"><tspan
             sodipodi:role="line"
             style="font-style:normal;font-variant:normal;font-weight:800;font-stretch:semi-expanded;font-family:'Tofino Wide';-inkscape-font-specification:'Tofino Wide Ultra-Bold Semi-Expanded';stroke-width:0.264583;fill:#ffffff"
             x="6.3514695"
             y="117.60397"
             id="tspan10890"
             dx="0 0 0 0 0 0 0 0 0 0 -6.60918 0 0 0 0 -1.2392215">JOIN           ON DISCORD</tspan></text>
        <g
           id="g18340"
           style="fill:#ffffff;stroke-width:1.58663"
           transform="matrix(0.63026779,0,0,0.63026779,-84.548876,-88.978773)">
          <path
             inkscape:connector-curvature="0"
             id="path4525-0-2-8-5-1-9-4-0-6-4-5"
             style="font-style:normal;font-variant:normal;font-weight:normal;font-stretch:normal;font-size:medium;line-height:1.25;font-family:'Deming EP';-inkscape-font-specification:'Deming EP';letter-spacing:0px;word-spacing:0px;fill:#ffffff;fill-opacity:1;stroke:none;stroke-width:0.444441"
             d="m 464.9354,269.40261 q 3.71375,0 6.93242,1.29978 3.28034,1.23788 5.69429,3.46619 2.41394,2.16623 3.77562,5.13731 1.42358,2.97089 1.42358,6.31313 0,3.34241 -1.42358,6.31339 -1.36168,2.90919 -3.77562,5.13731 -2.41395,2.22831 -5.69429,3.52809 -3.21867,1.23789 -6.93242,1.23789 h -26.67675 v 6.43708 h 12.99801 v 6.49907 h -32.43314 v -6.49907 h 12.99801 v -32.37119 h -12.99801 v -6.49898 z m -0.37133,25.9341 q 2.35206,0 4.39469,-0.7425 2.10431,-0.80474 3.58977,-2.10425 1.54755,-1.29987 2.41395,-3.03305 0.92848,-1.7949 0.92848,-3.83754 0,-2.04236 -0.92848,-3.77537 -0.86638,-1.79516 -2.41395,-3.09495 -1.48546,-1.29977 -3.58977,-2.04236 -2.04263,-0.80475 -4.39469,-0.80475 h -26.30544 v 19.43514 z" />
          <path
             inkscape:connector-curvature="0"
             id="path7651-3-4-0-3"
             style="font-style:normal;font-weight:normal;font-size:medium;line-height:1.25;font-family:sans-serif;letter-spacing:0px;word-spacing:0px;fill:#ffffff;fill-opacity:1;stroke:none;stroke-width:0.785941"
             d="m 550.08698,269.40261 v 12.93615 h -6.43711 v -6.43717 h -38.9321 v 12.93615 h 32.4331 v 6.49897 h -32.4331 v 12.93616 h 12.99798 v 6.49898 h -32.43309 v -6.49898 h 12.99801 v -32.37128 h -12.99801 v -6.49898 z" />
          <path
             inkscape:connector-curvature="0"
             style="font-style:normal;font-variant:normal;font-weight:normal;font-stretch:normal;font-size:medium;line-height:1.25;font-family:'Deming EP';-inkscape-font-specification:'Deming EP';letter-spacing:0px;word-spacing:0px;fill:#ffffff;fill-opacity:1;stroke:none;stroke-width:0.304826"
             d="m 583.24667,267.95292 c -4.23302,0 -8.21968,0.63709 -11.95952,1.91127 -3.69877,1.23308 -6.94586,2.9587 -9.74044,5.17824 -2.75351,2.17844 -4.93148,4.72612 -6.53425,7.64441 -1.60277,2.91759 -2.40414,6.04047 -2.40414,9.36887 0,3.32932 0.80127,6.47367 2.40414,9.43282 1.60277,2.91784 3.78074,5.4856 6.53425,7.70514 2.79458,2.17845 6.04167,3.90429 9.74044,5.17825 3.73984,1.23307 7.7265,1.84961 11.95952,1.84961 3.73983,0 7.27354,-0.49323 10.60243,-1.4797 2.44244,-0.72386 4.71802,-1.66008 6.82859,-2.80341 0.29433,-0.15985 0.58388,-0.32425 0.87046,-0.49323 0.0685,-0.0457 0.13929,-0.0685 0.20779,-0.11418 1.12827,-0.67134 2.19807,-1.40663 3.20725,-2.20812 1.66487,-1.31527 3.11596,-2.77191 4.36033,-4.35894 v -9.43807 h -32.30235 v 6.47367 h 25.89111 c -1.06844,1.19197 -2.30191,2.30129 -3.69919,3.32885 -1.35616,0.98647 -2.8762,1.84962 -4.56118,2.58946 -1.68499,0.73985 -3.49367,1.31529 -5.42525,1.72632 -1.89049,0.40874 -3.88327,0.61653 -5.97924,0.61653 -3.3289,0 -6.4316,-0.49323 -9.3084,-1.4797 -2.83573,-0.98645 -5.32226,-2.30242 -7.45932,-3.9463 -2.09601,-1.64411 -3.74041,-3.55378 -4.93224,-5.73198 -1.19175,-2.17845 -1.78705,-4.45964 -1.78705,-6.84359 0,-2.38328 0.5953,-4.64414 1.78705,-6.78102 1.19174,-2.17844 2.8363,-4.08833 4.93224,-5.73198 2.1371,-1.64411 4.62359,-2.95917 7.45932,-3.94517 2.8768,-0.98646 5.9795,-1.47969 9.3084,-1.47969 2.09601,0 4.08877,0.20551 5.97924,0.61654 1.93159,0.40874 3.74025,0.98875 5.42525,1.72631 1.68498,0.73985 3.20498,1.62355 4.56118,2.6502 1.39725,0.98646 2.63065,2.07568 3.69919,3.26698 h 6.41124 v -3.23181 c -1.1673,-1.42261 -2.50273,-2.73881 -4.01869,-3.93786 -0.85241,-0.67819 -1.75348,-1.30159 -2.69115,-1.88387 -0.23222,-0.13701 -0.46423,-0.28772 -0.70102,-0.42929 -0.15071,-0.0914 -0.30416,-0.18269 -0.45624,-0.25803 -2.3267,-1.31757 -4.86029,-2.38738 -7.60644,-3.20144 -3.32891,-0.98646 -6.86262,-1.4797 -10.60244,-1.4797 z"
             id="path7766-6-1-0-3" />
          <path
             inkscape:connector-curvature="0"
             id="path4525-0-2-8-5-1-9-4-0-6-4-5-5"
             style="font-style:normal;font-variant:normal;font-weight:normal;font-stretch:normal;font-size:medium;line-height:1.25;font-family:'Deming EP';-inkscape-font-specification:'Deming EP';letter-spacing:0px;word-spacing:0px;fill:#ffffff;fill-opacity:1;stroke:none;stroke-width:0.444441"
             d="m 609.32352,282.38131 h -6.49907 v -12.9787 h 6.49907 z"
             sodipodi:nodetypes="ccccc" />
          <path
             inkscape:connector-curvature="0"
             id="path4525-0-2-8-5-1-9-4-0-6-4-5-5-2"
             style="font-style:normal;font-variant:normal;font-weight:normal;font-stretch:normal;font-size:medium;line-height:1.25;font-family:'Deming EP';-inkscape-font-specification:'Deming EP';letter-spacing:0px;word-spacing:0px;fill:#ffffff;fill-opacity:1;stroke:none;stroke-width:0.444441"
             d="m 609.32352,314.77185 h -6.49907 v -12.9787 h 6.49907 z"
             sodipodi:nodetypes="ccccc" />
          <path
             inkscape:connector-curvature="0"
             id="path4545-4-0-6-0-4-6-5-7-7-76-9-8-7-1-9-2-6"
             d="m 418.82352,262.90363 v -6.49899 h 190.5 v 6.49899 h -23.67083 -29.09659 -34.57674 -79.485 z"
             style="font-style:normal;font-variant:normal;font-weight:normal;font-stretch:normal;font-size:medium;line-height:1.25;font-family:'Deming EP';-inkscape-font-specification:'Deming EP';letter-spacing:0px;word-spacing:0px;fill:#ffffff;fill-opacity:1;stroke:none;stroke-width:1.29299" />
          <path
             inkscape:connector-curvature="0"
             id="path4545-4-0-6-0-4-6-5-7-7-76-9-8-7-1-9-2-6-4-2"
             d="m 418.82352,327.76981 v -6.49898 h 190.5 v 6.49898 h -23.67083 -29.09659 -34.57674 -79.485 z"
             style="font-style:normal;font-variant:normal;font-weight:normal;font-stretch:normal;font-size:medium;line-height:1.25;font-family:'Deming EP';-inkscape-font-specification:'Deming EP';letter-spacing:0px;word-spacing:0px;fill:#ffffff;fill-opacity:1;stroke:none;stroke-width:1.29299" />
        </g>
      </g>
    </g>
  </g>
</svg>
