<?xml version="1.0" encoding="UTF-8" standalone="no"?>
<!-- Created with Inkscape (http://www.inkscape.org/) -->

<svg
   width="1140"
   height="196.74364"
   viewBox="0 0 301.625 52.055089"
   version="1.1"
   id="svg5"
   inkscape:version="1.1.1 (c3084ef, 2021-09-22)"
   sodipodi:docname="index--discord-banner.svg"
   xmlns:inkscape="http://www.inkscape.org/namespaces/inkscape"
   xmlns:sodipodi="http://sodipodi.sourceforge.net/DTD/sodipodi-0.dtd"
   xmlns="http://www.w3.org/2000/svg"
   xmlns:svg="http://www.w3.org/2000/svg">
  <sodipodi:namedview
     id="namedview7"
     pagecolor="#ffffff"
     bordercolor="#999999"
     borderopacity="1"
     inkscape:pageshadow="0"
     inkscape:pageopacity="0"
     inkscape:pagecheckerboard="0"
     inkscape:document-units="px"
     showgrid="true"
     units="px"
     inkscape:zoom="1.2810466"
     inkscape:cx="792.71122"
     inkscape:cy="94.063715"
     inkscape:window-width="1920"
     inkscape:window-height="1147"
     inkscape:window-x="1728"
     inkscape:window-y="25"
     inkscape:window-maximized="1"
     inkscape:current-layer="g49699"
     showguides="false"
     inkscape:guide-bbox="true"
     fit-margin-top="0"
     fit-margin-left="0"
     fit-margin-right="0"
     fit-margin-bottom="0">
    <inkscape:grid
       type="xygrid"
       id="grid824"
       spacingx="1.0583334"
       spacingy="1.0583334"
       empspacing="5"
       originx="0"
       originy="-25.650939" />
    <sodipodi:guide
       position="973.66669,-70.460647"
       orientation="1,0"
       id="guide969" />
    <sodipodi:guide
       position="317.50001,45.95603"
       orientation="1,0"
       id="guide46119" />
    <sodipodi:guide
       position="-63.500001,56.53936"
       orientation="0,-1"
       id="guide48953" />
    <sodipodi:guide
       position="-63.500001,-91.627315"
       orientation="0,-1"
       id="guide48955" />
  </sodipodi:namedview>
  <defs
     id="defs2" />
  <g
     inkscape:label="Layer 1"
     inkscape:groupmode="layer"
     id="layer1"
     transform="translate(0,-25.650939)">
    <g
       id="g49699"
       transform="matrix(0.29687501,0,0,0.29687501,0,13.975355)"
       style="stroke-width:3.36842">
      <path
         d="m 937.57129,39.328281 c -13.74766,1.510768 -27.49499,4.777142 -40.90337,9.859263 -0.029,3.426016 0.19795,7.880402 0.56485,11.31642 -14.09284,5.681877 -27.00268,13.135379 -38.73028,22.360934 -2.79148,-2.03618 -6.5764,-4.436382 -9.571,-6.116707 -11.11931,9.078942 -20.8269,19.371313 -29.00164,30.534489 -3.98827,44.16765 7.69456,78.24867 28.11926,106.70252 20.61081,1.82301 38.43574,-0.13321 54.77323,-4.11131 0.87531,-6.45353 1.21449,-12.97324 0.97986,-19.50353 -6.09079,1.11323 -12.21114,1.68094 -18.27222,1.73605 0.72591,-1.54323 1.40221,-3.11019 2.02379,-4.67943 34.94356,-3.84445 65.2259,-21.32795 85.69444,-49.47572 1.6829,0.23876 3.37806,0.43655 5.06364,0.58751 -3.08425,5.24139 -6.64992,10.2659 -10.6582,14.98439 5.52976,3.45569 11.33962,6.44169 17.37972,8.90363 C 996.66088,150.25928 1007.28,135.79226 1016,117.01869 999.31489,79.9967 972.27305,55.157923 937.57129,39.328281 Z M 893.16884,163.18485 c -8.36711,4.83075 -19.46546,1.45278 -24.62471,-7.48331 -5.15928,-8.93611 -2.68891,-20.16441 5.82449,-25.07962 8.51338,-4.9152 19.61131,-1.538 24.63184,7.49564 5.17309,8.92811 2.68176,20.15208 -5.83162,25.06729 z m 56.27678,-32.49142 c -8.36711,4.83075 -19.46547,1.45277 -24.62472,-7.48331 -5.15926,-8.93609 -2.68889,-20.16441 5.8245,-25.079614 8.51339,-4.915215 19.61208,-1.538449 24.63183,7.495644 5.15925,8.9361 2.68178,20.15207 -5.83161,25.06728 z"
         fill="#5865f2"
         id="path875"
         style="stroke-width:22.2807;fill:#ffffff;opacity:0.5" />
      <g
         id="g48951"
         transform="matrix(1.0830441,0,0,1.0830441,0,46.640424)"
         style="fill:#ffffff;stroke-width:3.11014">
        <g
           aria-label="WANT TO BE THE FIRST TO KNOW
ABOUT OUR NEXT MEGAGAME?"
           id="text1305-8"
           style="font-size:40.2768px;line-height:1;font-family:Univers;-inkscape-font-specification:Univers;opacity:0.5;fill:#000000;stroke-width:0.822891">
          <path
             d="M 0.44304478,-0.08318332 8.2164668,29.278603 H 20.50089 L 24.286909,8.6568819 27.710437,29.278603 H 39.87403 L 48.291881,-0.08318332 H 38.826834 L 34.275555,22.632931 30.368706,-0.08318332 H 18.688434 L 14.298263,22.995422 10.512244,-0.08318332 Z"
             style="font-weight:800;font-stretch:semi-expanded;font-family:'Tofino Wide';-inkscape-font-specification:'Tofino Wide Ultra-Bold Semi-Expanded';fill:#000000;stroke-width:0.822891"
             id="path49220" />
          <path
             d="m 45.62606,29.278603 h 8.981726 L 55.977198,25.2912 h 12.566361 l 1.369411,3.987403 h 8.981726 L 67.375532,-0.08318332 H 57.145225 Z M 58.272975,18.564974 62.220101,7.0055332 66.207504,18.564974 Z"
             style="font-weight:800;font-stretch:semi-expanded;font-family:'Tofino Wide';-inkscape-font-specification:'Tofino Wide Ultra-Bold Semi-Expanded';fill:#000000;stroke-width:0.822891"
             id="path49222" />
          <path
             d="m 100.53026,29.278603 h 10.02892 V -0.08318332 h -8.17619 L 102.82604,18.806635 91.548534,-0.08318332 h -9.94837 L 81.519611,29.278603 h 8.17619 L 89.33331,10.710999 Z"
             style="font-weight:800;font-stretch:semi-expanded;font-family:'Tofino Wide';-inkscape-font-specification:'Tofino Wide Ultra-Bold Semi-Expanded';fill:#000000;stroke-width:0.822891"
             id="path49224" />
          <path
             d="m 122.86437,29.278603 h 8.45813 V 7.4083012 h 9.34422 V -0.08318332 H 113.52016 V 7.4083012 h 9.34421 z"
             style="font-weight:800;font-stretch:semi-expanded;font-family:'Tofino Wide';-inkscape-font-specification:'Tofino Wide Ultra-Bold Semi-Expanded';fill:#000000;stroke-width:0.822891"
             id="path49226" />
          <path
             d="m 160.23055,29.278603 h 8.45812 V 7.4083012 h 9.34422 V -0.08318332 H 150.88633 V 7.4083012 h 9.34422 z"
             style="font-weight:800;font-stretch:semi-expanded;font-family:'Tofino Wide';-inkscape-font-specification:'Tofino Wide Ultra-Bold Semi-Expanded';fill:#000000;stroke-width:0.822891"
             id="path49228" />
          <path
             d="m 194.01963,29.963308 c 10.02892,0 14.94269,-4.712385 14.94269,-15.34546 0,-10.7136283 -4.91377,-15.38573689 -14.94269,-15.38573689 -10.0692,0 -14.98297,4.67210859 -14.98297,15.38573689 0,10.633075 4.91377,15.34546 14.98297,15.34546 z m -6.36374,-15.34546 c 0,-6.0012429 2.13467,-8.2164668 6.36374,-8.2164668 4.22906,0 6.32345,2.2152239 6.32345,8.2164668 0,6.001243 -2.09439,8.17619 -6.32345,8.17619 -4.22907,0 -6.36374,-2.174947 -6.36374,-8.17619 z"
             style="font-weight:800;font-stretch:semi-expanded;font-family:'Tofino Wide';-inkscape-font-specification:'Tofino Wide Ultra-Bold Semi-Expanded';fill:#000000;stroke-width:0.822891"
             id="path49230" />
          <path
             d="m 222.80307,29.278603 h 12.64691 c 12.20387,0 14.62048,-2.416608 14.62048,-7.93453 0,-3.745742 -1.20831,-6.001243 -4.67211,-7.088716 2.65827,-1.248581 3.78602,-3.423528 3.78602,-6.6859487 0,-5.3165373 -3.06104,-7.65259162 -13.73439,-7.65259162 h -12.64691 z m 8.45812,-6.242904 v -5.759582 h 4.67211 c 4.18879,0 5.79986,0.563875 5.79986,2.980483 0,2.456884 -1.61107,2.779099 -6.44429,2.779099 z m 0,-11.639995 V 6.1597204 h 4.02768 c 4.18879,0 5.67903,0.3624912 5.67903,2.6179919 0,1.9332867 -1.16803,2.6179917 -5.0346,2.6179917 z"
             style="font-weight:800;font-stretch:semi-expanded;font-family:'Tofino Wide';-inkscape-font-specification:'Tofino Wide Ultra-Bold Semi-Expanded';fill:#000000;stroke-width:0.822891"
             id="path49232" />
          <path
             d="m 254.11198,29.278603 h 23.84386 v -7.088717 h -15.38573 v -4.269341 h 12.72747 V 11.19432 H 262.57011 V 7.0055332 h 15.06352 v -7.08871652 h -23.52165 z"
             style="font-weight:800;font-stretch:semi-expanded;font-family:'Tofino Wide';-inkscape-font-specification:'Tofino Wide Ultra-Bold Semi-Expanded';fill:#000000;stroke-width:0.822891"
             id="path49234" />
          <path
             d="m 298.21005,29.278603 h 8.45813 V 7.4083012 h 9.34422 V -0.08318332 H 288.86584 V 7.4083012 h 9.34421 z"
             style="font-weight:800;font-stretch:semi-expanded;font-family:'Tofino Wide';-inkscape-font-specification:'Tofino Wide Ultra-Bold Semi-Expanded';fill:#000000;stroke-width:0.822891"
             id="path49236" />
          <path
             d="m 338.18475,29.278603 h 8.45813 V -0.08318332 h -8.45813 V 10.509615 H 327.39057 V -0.08318332 h -8.45812 V 29.278603 h 8.45812 v -11.19695 h 10.79418 z"
             style="font-weight:800;font-stretch:semi-expanded;font-family:'Tofino Wide';-inkscape-font-specification:'Tofino Wide Ultra-Bold Semi-Expanded';fill:#000000;stroke-width:0.822891"
             id="path49238" />
          <path
             d="m 351.97203,29.278603 h 23.84386 v -7.088717 h -15.38574 v -4.269341 h 12.72747 V 11.19432 H 360.43015 V 7.0055332 h 15.06353 v -7.08871652 h -23.52165 z"
             style="font-weight:800;font-stretch:semi-expanded;font-family:'Tofino Wide';-inkscape-font-specification:'Tofino Wide Ultra-Bold Semi-Expanded';fill:#000000;stroke-width:0.822891"
             id="path49240" />
          <path
             d="m 389.10218,29.278603 h 8.45813 V 19.24968 h 12.08304 V 12.402624 H 397.56031 V 7.0055332 h 14.45937 v -7.08871652 h -22.9175 z"
             style="font-weight:800;font-stretch:semi-expanded;font-family:'Tofino Wide';-inkscape-font-specification:'Tofino Wide Ultra-Bold Semi-Expanded';fill:#000000;stroke-width:0.822891"
             id="path49242" />
          <path
             d="m 414.90452,29.278603 h 8.45813 V -0.08318332 h -8.45813 z"
             style="font-weight:800;font-stretch:semi-expanded;font-family:'Tofino Wide';-inkscape-font-specification:'Tofino Wide Ultra-Bold Semi-Expanded';fill:#000000;stroke-width:0.822891"
             id="path49244" />
          <path
             d="m 428.671,29.278603 h 8.45813 v -8.095637 h 5.15543 1.7319 l 3.94713,8.095637 h 9.022 l -4.99432,-9.263664 c 3.62491,-1.369411 5.11515,-4.188787 5.11515,-9.384494 0,-8.578958 -4.10823,-10.71362832 -14.5802,-10.71362832 H 428.671 Z m 8.45813,-15.22463 V 7.0055332 h 4.67211 c 4.71238,0 6.56512,0.201384 6.56512,3.5443578 0,3.302698 -1.85274,3.504082 -6.52485,3.504082 z"
             style="font-weight:800;font-stretch:semi-expanded;font-family:'Tofino Wide';-inkscape-font-specification:'Tofino Wide Ultra-Bold Semi-Expanded';fill:#000000;stroke-width:0.822891"
             id="path49246" />
          <path
             d="m 474.2077,29.963308 c 8.94145,0 13.81494,-3.061036 13.81494,-9.424771 0,-13.0094055 -18.76899,-7.692868 -18.76899,-12.4455303 0,-1.2485807 1.08747,-2.2555007 4.71239,-2.2555007 4.511,0 5.63875,1.5305184 5.63875,3.3832511 h 8.09563 c 0,-6.2831806 -3.82629,-9.98864599 -13.57328,-9.98864599 -9.66643,0 -13.65383,3.58463509 -13.69411,9.54560119 -0.16111,12.6871917 18.84954,7.4512077 18.84954,12.2844237 0,1.611072 -2.33605,2.2555 -5.07487,2.2555 -3.8263,0 -6.00125,-1.329134 -6.00125,-3.423527 h -8.25674 c 0,6.565118 4.91377,10.069199 14.25799,10.069199 z"
             style="font-weight:800;font-stretch:semi-expanded;font-family:'Tofino Wide';-inkscape-font-specification:'Tofino Wide Ultra-Bold Semi-Expanded';fill:#000000;stroke-width:0.822891"
             id="path49248" />
          <path
             d="m 498.57138,29.278603 h 8.45813 V 7.4083012 h 9.34422 V -0.08318332 H 489.22716 V 7.4083012 h 9.34422 z"
             style="font-weight:800;font-stretch:semi-expanded;font-family:'Tofino Wide';-inkscape-font-specification:'Tofino Wide Ultra-Bold Semi-Expanded';fill:#000000;stroke-width:0.822891"
             id="path49250" />
          <path
             d="m 535.93756,29.278603 h 8.45813 V 7.4083012 h 9.34422 V -0.08318332 H 526.59335 V 7.4083012 h 9.34421 z"
             style="font-weight:800;font-stretch:semi-expanded;font-family:'Tofino Wide';-inkscape-font-specification:'Tofino Wide Ultra-Bold Semi-Expanded';fill:#000000;stroke-width:0.822891"
             id="path49252" />
          <path
             d="m 569.72664,29.963308 c 10.02892,0 14.94269,-4.712385 14.94269,-15.34546 0,-10.7136283 -4.91377,-15.38573689 -14.94269,-15.38573689 -10.0692,0 -14.98297,4.67210859 -14.98297,15.38573689 0,10.633075 4.91377,15.34546 14.98297,15.34546 z m -6.36373,-15.34546 c 0,-6.0012429 2.13467,-8.2164668 6.36373,-8.2164668 4.22907,0 6.32346,2.2152239 6.32346,8.2164668 0,6.001243 -2.09439,8.17619 -6.32346,8.17619 -4.22906,0 -6.36373,-2.174947 -6.36373,-8.17619 z"
             style="font-weight:800;font-stretch:semi-expanded;font-family:'Tofino Wide';-inkscape-font-specification:'Tofino Wide Ultra-Bold Semi-Expanded';fill:#000000;stroke-width:0.822891"
             id="path49254" />
          <path
             d="m 598.51008,29.278603 h 8.45813 v -5.235984 l 5.07488,-5.92069 6.52484,11.156674 h 9.26366 L 617.3999,11.838749 627.63021,-0.08318332 h -9.66643 L 606.96821,13.731758 V -0.08318332 h -8.45813 z"
             style="font-weight:800;font-stretch:semi-expanded;font-family:'Tofino Wide';-inkscape-font-specification:'Tofino Wide Ultra-Bold Semi-Expanded';fill:#000000;stroke-width:0.822891"
             id="path49256" />
          <path
             d="m 649.61631,29.278603 h 10.02892 V -0.08318332 h -8.17619 l 0.44305,18.88981832 -11.2775,-18.88981832 h -9.94837 l -0.0806,29.36178632 h 8.17619 l -0.36249,-18.567604 z"
             style="font-weight:800;font-stretch:semi-expanded;font-family:'Tofino Wide';-inkscape-font-specification:'Tofino Wide Ultra-Bold Semi-Expanded';fill:#000000;stroke-width:0.822891"
             id="path49258" />
          <path
             d="m 678.75716,29.963308 c 10.02892,0 14.94269,-4.712385 14.94269,-15.34546 0,-10.7136283 -4.91377,-15.38573689 -14.94269,-15.38573689 -10.0692,0 -14.98297,4.67210859 -14.98297,15.38573689 0,10.633075 4.91377,15.34546 14.98297,15.34546 z m -6.36374,-15.34546 c 0,-6.0012429 2.13468,-8.2164668 6.36374,-8.2164668 4.22906,0 6.32346,2.2152239 6.32346,8.2164668 0,6.001243 -2.0944,8.17619 -6.32346,8.17619 -4.22906,0 -6.36374,-2.174947 -6.36374,-8.17619 z"
             style="font-weight:800;font-stretch:semi-expanded;font-family:'Tofino Wide';-inkscape-font-specification:'Tofino Wide Ultra-Bold Semi-Expanded';fill:#000000;stroke-width:0.822891"
             id="path49260" />
          <path
             d="m 694.58849,-0.08318332 7.77342,29.36178632 h 12.28443 l 3.78602,-20.6217211 3.42352,20.6217211 h 12.1636 l 8.41785,-29.36178632 h -9.46505 L 728.421,22.632931 724.51415,-0.08318332 H 712.83388 L 708.44371,22.995422 704.65769,-0.08318332 Z"
             style="font-weight:800;font-stretch:semi-expanded;font-family:'Tofino Wide';-inkscape-font-specification:'Tofino Wide Ultra-Bold Semi-Expanded';fill:#000000;stroke-width:0.822891"
             id="path49262" />
          <path
             d="m 0,70.193345 h 8.981726 l 1.369411,-3.987403 h 12.566361 l 1.369411,3.987403 h 8.981726 L 21.749471,40.831559 H 11.519164 Z m 12.646915,-10.713629 3.947126,-11.559441 3.987403,11.559441 z"
             style="font-weight:800;font-stretch:semi-expanded;font-family:'Tofino Wide';-inkscape-font-specification:'Tofino Wide Ultra-Bold Semi-Expanded';fill:#000000;stroke-width:0.822891"
             id="path49264" />
          <path
             d="m 35.89355,70.193345 h 12.646915 c 12.20387,0 14.620478,-2.416608 14.620478,-7.93453 0,-3.745742 -1.208304,-6.001242 -4.672109,-7.088716 2.658269,-1.248581 3.786019,-3.423528 3.786019,-6.685949 0,-5.316537 -3.061036,-7.652591 -13.734388,-7.652591 H 35.89355 Z m 8.458128,-6.242904 v -5.759582 h 4.672109 c 4.188787,0 5.799859,0.563875 5.799859,2.980483 0,2.456885 -1.611072,2.779099 -6.444288,2.779099 z m 0,-11.639995 v -5.235984 h 4.02768 c 4.188787,0 5.679028,0.362492 5.679028,2.617992 0,1.933287 -1.168027,2.617992 -5.034599,2.617992 z"
             style="font-weight:800;font-stretch:semi-expanded;font-family:'Tofino Wide';-inkscape-font-specification:'Tofino Wide Ultra-Bold Semi-Expanded';fill:#000000;stroke-width:0.822891"
             id="path49266" />
          <path
             d="m 80.97713,70.87805 c 10.028922,0 14.942692,-4.712385 14.942692,-15.34546 0,-10.713628 -4.91377,-15.385737 -14.942692,-15.385737 -10.0692,0 -14.982969,4.672109 -14.982969,15.385737 0,10.633075 4.913769,15.34546 14.982969,15.34546 z M 74.613395,55.53259 c 0,-6.001243 2.134671,-8.216467 6.363735,-8.216467 4.229063,0 6.323457,2.215224 6.323457,8.216467 0,6.001243 -2.094394,8.17619 -6.323457,8.17619 -4.229064,0 -6.363735,-2.174947 -6.363735,-8.17619 z"
             style="font-weight:800;font-stretch:semi-expanded;font-family:'Tofino Wide';-inkscape-font-specification:'Tofino Wide Ultra-Bold Semi-Expanded';fill:#000000;stroke-width:0.822891"
             id="path49268" />
          <path
             d="m 113.37604,70.87805 c 11.68027,0 13.69411,-5.316537 13.69411,-15.546844 V 40.831559 h -8.53868 v 13.855218 c 0,6.685949 -1.16803,8.659512 -5.19571,8.659512 -3.90685,0 -5.15543,-1.973563 -5.15543,-8.659512 V 40.831559 h -8.458124 v 14.499647 c 0,10.230307 2.054114,15.546844 13.653834,15.546844 z"
             style="font-weight:800;font-stretch:semi-expanded;font-family:'Tofino Wide';-inkscape-font-specification:'Tofino Wide Ultra-Bold Semi-Expanded';fill:#000000;stroke-width:0.822891"
             id="path49270" />
          <path
             d="m 138.99083,70.193345 h 8.45813 V 48.323043 h 9.34422 v -7.491484 h -27.14657 v 7.491484 h 9.34422 z"
             style="font-weight:800;font-stretch:semi-expanded;font-family:'Tofino Wide';-inkscape-font-specification:'Tofino Wide Ultra-Bold Semi-Expanded';fill:#000000;stroke-width:0.822891"
             id="path49272" />
          <path
             d="m 183.16378,70.87805 c 10.02892,0 14.94269,-4.712385 14.94269,-15.34546 0,-10.713628 -4.91377,-15.385737 -14.94269,-15.385737 -10.0692,0 -14.98297,4.672109 -14.98297,15.385737 0,10.633075 4.91377,15.34546 14.98297,15.34546 z m -6.36374,-15.34546 c 0,-6.001243 2.13467,-8.216467 6.36374,-8.216467 4.22906,0 6.32345,2.215224 6.32345,8.216467 0,6.001243 -2.09439,8.17619 -6.32345,8.17619 -4.22907,0 -6.36374,-2.174947 -6.36374,-8.17619 z"
             style="font-weight:800;font-stretch:semi-expanded;font-family:'Tofino Wide';-inkscape-font-specification:'Tofino Wide Ultra-Bold Semi-Expanded';fill:#000000;stroke-width:0.822891"
             id="path49274" />
          <path
             d="m 215.56269,70.87805 c 11.68027,0 13.69411,-5.316537 13.69411,-15.546844 V 40.831559 h -8.53868 v 13.855218 c 0,6.685949 -1.16803,8.659512 -5.19571,8.659512 -3.90685,0 -5.15543,-1.973563 -5.15543,-8.659512 V 40.831559 h -8.45813 v 14.499647 c 0,10.230307 2.05412,15.546844 13.65384,15.546844 z"
             style="font-weight:800;font-stretch:semi-expanded;font-family:'Tofino Wide';-inkscape-font-specification:'Tofino Wide Ultra-Bold Semi-Expanded';fill:#000000;stroke-width:0.822891"
             id="path49276" />
          <path
             d="m 234.20958,70.193345 h 8.45812 v -8.095637 h 5.15543 1.73191 l 3.94712,8.095637 h 9.022 l -4.99432,-9.263664 c 3.62491,-1.369411 5.11515,-4.188787 5.11515,-9.384494 0,-8.578958 -4.10823,-10.713628 -14.5802,-10.713628 h -13.85521 z m 8.45812,-15.22463 v -7.04844 h 4.67211 c 4.71239,0 6.56512,0.201384 6.56512,3.544359 0,3.302697 -1.85273,3.504081 -6.52484,3.504081 z"
             style="font-weight:800;font-stretch:semi-expanded;font-family:'Tofino Wide';-inkscape-font-specification:'Tofino Wide Ultra-Bold Semi-Expanded';fill:#000000;stroke-width:0.822891"
             id="path49278" />
          <path
             d="m 295.46366,70.193345 h 10.02893 V 40.831559 h -8.17619 l 0.44304,18.889818 -11.2775,-18.889818 h -9.94837 l -0.0806,29.361786 h 8.17619 l -0.36249,-18.567604 z"
             style="font-weight:800;font-stretch:semi-expanded;font-family:'Tofino Wide';-inkscape-font-specification:'Tofino Wide Ultra-Bold Semi-Expanded';fill:#000000;stroke-width:0.822891"
             id="path49280" />
          <path
             d="m 310.82991,70.193345 h 23.84386 v -7.088717 h -15.38574 v -4.26934 h 12.72747 v -6.726226 h -12.72747 v -4.188787 h 15.06353 v -7.088716 h -23.52165 z"
             style="font-weight:800;font-stretch:semi-expanded;font-family:'Tofino Wide';-inkscape-font-specification:'Tofino Wide Ultra-Bold Semi-Expanded';fill:#000000;stroke-width:0.822891"
             id="path49282" />
          <path
             d="m 335.54537,70.193345 h 10.27058 l 5.5582,-8.619235 5.63875,8.619235 h 10.43169 L 356.77124,55.613144 367.72653,40.831559 h -10.23031 l -5.7193,8.941449 -5.79986,-8.941449 h -10.43169 l 10.7539,14.741308 z"
             style="font-weight:800;font-stretch:semi-expanded;font-family:'Tofino Wide';-inkscape-font-specification:'Tofino Wide Ultra-Bold Semi-Expanded';fill:#000000;stroke-width:0.822891"
             id="path49284" />
          <path
             d="m 377.26898,70.193345 h 8.45813 V 48.323043 h 9.34422 v -7.491484 h -27.14656 v 7.491484 h 9.34421 z"
             style="font-weight:800;font-stretch:semi-expanded;font-family:'Tofino Wide';-inkscape-font-specification:'Tofino Wide Ultra-Bold Semi-Expanded';fill:#000000;stroke-width:0.822891"
             id="path49286" />
          <path
             d="m 422.89191,70.193345 h 9.30394 l 7.85397,-21.991132 -0.64443,21.991132 h 8.41786 l 0.0403,-29.361786 h -13.65383 l -6.56512,21.306426 -6.52484,-21.306426 h -13.45245 v 29.361786 h 8.3373 l -0.64443,-22.111963 z"
             style="font-weight:800;font-stretch:semi-expanded;font-family:'Tofino Wide';-inkscape-font-specification:'Tofino Wide Ultra-Bold Semi-Expanded';fill:#000000;stroke-width:0.822891"
             id="path49288" />
          <path
             d="m 453.136,70.193345 h 23.84386 v -7.088717 h -15.38574 v -4.26934 h 12.72747 v -6.726226 h -12.72747 v -4.188787 h 15.06353 V 40.831559 H 453.136 Z"
             style="font-weight:800;font-stretch:semi-expanded;font-family:'Tofino Wide';-inkscape-font-specification:'Tofino Wide Ultra-Bold Semi-Expanded';fill:#000000;stroke-width:0.822891"
             id="path49290" />
          <path
             d="m 494.28442,70.87805 c 7.33038,0 12.12332,-3.101313 13.61356,-5.27626 V 54.646501 h -12.88857 v 5.920689 h 4.91377 v 1.248581 c -0.40277,0.966643 -1.97357,2.054116 -5.31654,2.054116 -4.47073,0 -6.6054,-1.973563 -6.6054,-8.216466 0,-6.122074 2.05412,-8.297021 6.32346,-8.297021 3.22214,0 5.23598,1.288858 5.39709,4.309617 h 8.17619 c 0,-7.652591 -4.26934,-11.519164 -13.65383,-11.519164 -9.98865,0 -14.86214,4.712386 -14.86214,15.385737 0,10.673352 4.83321,15.34546 14.90241,15.34546 z"
             style="font-weight:800;font-stretch:semi-expanded;font-family:'Tofino Wide';-inkscape-font-specification:'Tofino Wide Ultra-Bold Semi-Expanded';fill:#000000;stroke-width:0.822891"
             id="path49292" />
          <path
             d="m 508.96658,70.193345 h 8.98173 l 1.36941,-3.987403 h 12.56636 l 1.36941,3.987403 h 8.98173 L 530.71605,40.831559 h -10.2303 z m 12.64692,-10.713629 3.94712,-11.559441 3.98741,11.559441 z"
             style="font-weight:800;font-stretch:semi-expanded;font-family:'Tofino Wide';-inkscape-font-specification:'Tofino Wide Ultra-Bold Semi-Expanded';fill:#000000;stroke-width:0.822891"
             id="path49294" />
          <path
             d="m 557.21689,70.87805 c 7.33038,0 12.12331,-3.101313 13.61356,-5.27626 V 54.646501 h -12.88858 v 5.920689 h 4.91377 v 1.248581 c -0.40277,0.966643 -1.97356,2.054116 -5.31654,2.054116 -4.47072,0 -6.60539,-1.973563 -6.60539,-8.216466 0,-6.122074 2.05411,-8.297021 6.32346,-8.297021 3.22214,0 5.23598,1.288858 5.39709,4.309617 h 8.17619 c 0,-7.652591 -4.26934,-11.519164 -13.65384,-11.519164 -9.98864,0 -14.86214,4.712386 -14.86214,15.385737 0,10.673352 4.83322,15.34546 14.90242,15.34546 z"
             style="font-weight:800;font-stretch:semi-expanded;font-family:'Tofino Wide';-inkscape-font-specification:'Tofino Wide Ultra-Bold Semi-Expanded';fill:#000000;stroke-width:0.822891"
             id="path49296" />
          <path
             d="m 571.89905,70.193345 h 8.98172 l 1.36942,-3.987403 h 12.56636 l 1.36941,3.987403 h 8.98172 L 593.64852,40.831559 h -10.23031 z m 12.64691,-10.713629 3.94713,-11.559441 3.9874,11.559441 z"
             style="font-weight:800;font-stretch:semi-expanded;font-family:'Tofino Wide';-inkscape-font-specification:'Tofino Wide Ultra-Bold Semi-Expanded';fill:#000000;stroke-width:0.822891"
             id="path49298" />
          <path
             d="m 623.01724,70.193345 h 9.30394 l 7.85398,-21.991132 -0.64443,21.991132 h 8.41785 l 0.0403,-29.361786 h -13.65384 l -6.56511,21.306426 -6.52485,-21.306426 h -13.45245 v 29.361786 h 8.3373 L 615.4855,48.081382 Z"
             style="font-weight:800;font-stretch:semi-expanded;font-family:'Tofino Wide';-inkscape-font-specification:'Tofino Wide Ultra-Bold Semi-Expanded';fill:#000000;stroke-width:0.822891"
             id="path49300" />
          <path
             d="m 653.26136,70.193345 h 23.84387 v -7.088717 h -15.38574 v -4.26934 h 12.72747 v -6.726226 h -12.72747 v -4.188787 h 15.06352 v -7.088716 h -23.52165 z"
             style="font-weight:800;font-stretch:semi-expanded;font-family:'Tofino Wide';-inkscape-font-specification:'Tofino Wide Ultra-Bold Semi-Expanded';fill:#000000;stroke-width:0.822891"
             id="path49302" />
          <path
             d="m 687.5627,61.976878 h 7.49149 c 0.64443,-5.799859 8.65951,-5.517922 8.65951,-13.21079 0,-4.470725 -2.94021,-8.619235 -11.55944,-8.619235 -9.62616,0 -12.76775,4.91377 -12.76775,11.317781 h 7.97481 c 0,-2.940207 1.40969,-4.269341 4.14851,-4.269341 2.57772,0 3.54436,1.168027 3.54436,2.738822 0,3.987403 -7.49149,4.269341 -7.49149,12.042763 z m -0.48332,8.216467 h 8.3373 v -6.444288 h -8.3373 z"
             style="font-weight:800;font-stretch:semi-expanded;font-family:'Tofino Wide';-inkscape-font-specification:'Tofino Wide Ultra-Bold Semi-Expanded';fill:#000000;stroke-width:0.822891"
             id="path49304" />
        </g>
        <g
           id="g48935"
           transform="translate(-6.5982687,30.510786)"
           style="fill:#ffffff;stroke-width:3.11014">
          <g
             aria-label="JOIN           ON DISCORD"
             id="text1305"
             style="font-size:61.6998px;line-height:1;font-family:Univers;-inkscape-font-specification:Univers;fill:#ffffff;stroke-width:0.822891">
            <path
               d="m 6.5982687,117.60397 h 4.3189863 c 19.867335,0 21.841728,-5.55298 21.841728,-20.36093 V 72.62482 H 19.740326 v 24.61822 c 0,7.09548 -1.974394,9.00817 -8.823071,9.00817 H 6.5982687 Z"
               style="font-weight:800;font-stretch:semi-expanded;font-family:'Tofino Wide';-inkscape-font-specification:'Tofino Wide Ultra-Bold Semi-Expanded';fill:#ffffff;stroke-width:0.822891"
               id="path49193" />
            <path
               d="m 61.410827,118.65287 c 15.36325,0 22.890625,-7.21888 22.890625,-23.507623 0,-16.412147 -7.527375,-23.569323 -22.890625,-23.569323 -15.42495,0 -22.952325,7.157176 -22.952325,23.569323 0,16.288743 7.527375,23.507623 22.952325,23.507623 z M 51.662259,95.145247 c 0,-9.19327 3.270089,-12.586759 9.748568,-12.586759 6.478479,0 9.686868,3.393489 9.686868,12.586759 0,9.193273 -3.208389,12.525063 -9.686868,12.525063 -6.478479,0 -9.748568,-3.33179 -9.748568,-12.525063 z"
               style="font-weight:800;font-stretch:semi-expanded;font-family:'Tofino Wide';-inkscape-font-specification:'Tofino Wide Ultra-Bold Semi-Expanded';fill:#ffffff;stroke-width:0.822891"
               id="path49195" />
            <path
               d="M 90.681598,117.60397 H 103.63856 V 72.62482 H 90.681598 Z"
               style="font-weight:800;font-stretch:semi-expanded;font-family:'Tofino Wide';-inkscape-font-specification:'Tofino Wide Ultra-Bold Semi-Expanded';fill:#ffffff;stroke-width:0.822891"
               id="path49197" />
            <path
               d="m 140.8927,117.60397 h 15.36325 V 72.62482 h -12.52506 l 0.6787,28.93721 -17.27594,-28.93721 H 111.8938 l -0.1234,44.97915 h 12.52506 l -0.5553,-28.443604 z"
               style="font-weight:800;font-stretch:semi-expanded;font-family:'Tofino Wide';-inkscape-font-specification:'Tofino Wide Ultra-Bold Semi-Expanded';fill:#ffffff;stroke-width:0.822891"
               id="path49199" />
            <path
               d="m 340.73159,118.65287 c 15.36325,0 22.89063,-7.21888 22.89063,-23.507623 0,-16.412147 -7.52738,-23.569323 -22.89063,-23.569323 -15.42495,0 -22.95232,7.157176 -22.95232,23.569323 0,16.288743 7.52737,23.507623 22.95232,23.507623 z m -9.74857,-23.507623 c 0,-9.19327 3.27009,-12.586759 9.74857,-12.586759 6.47848,0 9.68687,3.393489 9.68687,12.586759 0,9.193273 -3.20839,12.525063 -9.68687,12.525063 -6.47848,0 -9.74857,-3.33179 -9.74857,-12.525063 z"
               style="font-weight:800;font-stretch:semi-expanded;font-family:'Tofino Wide';-inkscape-font-specification:'Tofino Wide Ultra-Bold Semi-Expanded';fill:#ffffff;stroke-width:0.822891"
               id="path49201" />
            <path
               d="m 399.12467,117.60397 h 15.36325 V 72.62482 h -12.52506 l 0.67869,28.93721 -17.27594,-28.93721 h -15.23985 l -0.1234,44.97915 h 12.52506 l -0.5553,-28.443604 z"
               style="font-weight:800;font-stretch:semi-expanded;font-family:'Tofino Wide';-inkscape-font-specification:'Tofino Wide Ultra-Bold Semi-Expanded';fill:#ffffff;stroke-width:0.822891"
               id="path49203" />
            <path
               d="m 437.48652,117.60397 h 17.21425 c 23.01402,0 26.90111,-7.46567 26.90111,-22.458723 0,-14.931352 -3.88709,-22.520427 -26.90111,-22.520427 h -17.21425 z m 12.95696,-11.10596 V 83.915883 h 6.72528 c 8.02097,0 11.04426,2.344593 11.04426,11.229364 0,8.761373 -3.02329,11.352763 -11.04426,11.352763 z"
               style="font-weight:800;font-stretch:semi-expanded;font-family:'Tofino Wide';-inkscape-font-specification:'Tofino Wide Ultra-Bold Semi-Expanded';fill:#ffffff;stroke-width:0.822891"
               id="path49205" />
            <path
               d="m 487.85862,117.60397 h 12.95696 V 72.62482 h -12.95696 z"
               style="font-weight:800;font-stretch:semi-expanded;font-family:'Tofino Wide';-inkscape-font-specification:'Tofino Wide Ultra-Bold Semi-Expanded';fill:#ffffff;stroke-width:0.822891"
               id="path49207" />
            <path
               d="m 528.81476,118.65287 c 13.69736,0 21.16304,-4.68918 21.16304,-14.43775 0,-19.929038 -28.75211,-11.784664 -28.75211,-19.065241 0,-1.912693 1.66589,-3.455188 7.21888,-3.455188 6.91037,0 8.63797,2.344592 8.63797,5.182783 h 12.40166 c 0,-9.625169 -5.86148,-15.30155 -20.79284,-15.30155 -14.80795,0 -20.91623,5.491282 -20.97793,14.622852 -0.2468,19.435434 28.87551,11.414463 28.87551,18.818434 0,2.468 -3.57859,3.45519 -7.77418,3.45519 -5.86148,0 -9.19327,-2.03609 -9.19327,-5.24448 h -12.64845 c 0,10.05707 7.52737,15.42495 21.84172,15.42495 z"
               style="font-weight:800;font-stretch:semi-expanded;font-family:'Tofino Wide';-inkscape-font-specification:'Tofino Wide Ultra-Bold Semi-Expanded';fill:#ffffff;stroke-width:0.822891"
               id="path49209" />
            <path
               d="m 577.34938,118.65287 c 13.26546,0 21.28643,-4.81258 21.40983,-19.620536 h -12.77186 c -0.43189,7.033776 -3.94878,8.637976 -8.76137,8.637976 -6.78697,0 -9.68687,-3.33179 -9.68687,-12.525063 0,-9.19327 3.02329,-12.525059 9.87197,-12.525059 4.81259,0 8.20608,1.665894 8.57627,8.144373 h 12.77186 c -0.1234,-14.190954 -8.14437,-19.188637 -21.40983,-19.188637 -15.67175,0 -23.01402,7.157176 -23.01402,23.569323 0,16.288743 7.34227,23.507623 23.01402,23.507623 z"
               style="font-weight:800;font-stretch:semi-expanded;font-family:'Tofino Wide';-inkscape-font-specification:'Tofino Wide Ultra-Bold Semi-Expanded';fill:#ffffff;stroke-width:0.822891"
               id="path49211" />
            <path
               d="m 625.97268,118.65287 c 15.36325,0 22.89063,-7.21888 22.89063,-23.507623 0,-16.412147 -7.52738,-23.569323 -22.89063,-23.569323 -15.42495,0 -22.95232,7.157176 -22.95232,23.569323 0,16.288743 7.52737,23.507623 22.95232,23.507623 z m -9.74857,-23.507623 c 0,-9.19327 3.27009,-12.586759 9.74857,-12.586759 6.47848,0 9.68687,3.393489 9.68687,12.586759 0,9.193273 -3.20839,12.525063 -9.68687,12.525063 -6.47848,0 -9.74857,-3.33179 -9.74857,-12.525063 z"
               style="font-weight:800;font-stretch:semi-expanded;font-family:'Tofino Wide';-inkscape-font-specification:'Tofino Wide Ultra-Bold Semi-Expanded';fill:#ffffff;stroke-width:0.822891"
               id="path49213" />
            <path
               d="m 655.24342,117.60397 h 12.95696 v -12.40166 h 7.89757 2.65309 l 6.04658,12.40166 h 13.82076 l -7.65078,-14.19095 c 5.55298,-2.09779 7.83588,-6.416779 7.83588,-14.376053 0,-13.142057 -6.29338,-16.412147 -22.33533,-16.412147 H 655.24342 Z M 668.20038,94.28145 V 83.483985 h 7.15717 c 7.21888,0 10.05707,0.308499 10.05707,5.429582 0,5.059384 -2.83819,5.367883 -9.99537,5.367883 z"
               style="font-weight:800;font-stretch:semi-expanded;font-family:'Tofino Wide';-inkscape-font-specification:'Tofino Wide Ultra-Bold Semi-Expanded';fill:#ffffff;stroke-width:0.822891"
               id="path49215" />
            <path
               d="m 705.1335,117.60397 h 17.21424 c 23.01402,0 26.90111,-7.46567 26.90111,-22.458723 0,-14.931352 -3.88709,-22.520427 -26.90111,-22.520427 H 705.1335 Z m 12.95695,-11.10596 V 83.915883 h 6.72528 c 8.02097,0 11.04426,2.344593 11.04426,11.229364 0,8.761373 -3.02329,11.352763 -11.04426,11.352763 z"
               style="font-weight:800;font-stretch:semi-expanded;font-family:'Tofino Wide';-inkscape-font-specification:'Tofino Wide Ultra-Bold Semi-Expanded';fill:#ffffff;stroke-width:0.822891"
               id="path49217" />
          </g>
          <g
             id="g18340"
             style="fill:#ffffff;stroke-width:4.93465"
             transform="matrix(0.63026779,0,0,0.63026779,-84.548876,-88.978773)">
            <path
               inkscape:connector-curvature="0"
               id="path4525-0-2-8-5-1-9-4-0-6-4-5"
               style="font-style:normal;font-variant:normal;font-weight:normal;font-stretch:normal;font-size:medium;line-height:1.25;font-family:'Deming EP';-inkscape-font-specification:'Deming EP';letter-spacing:0px;word-spacing:0px;fill:#ffffff;fill-opacity:1;stroke:none;stroke-width:1.38227"
               d="m 464.9354,269.40261 q 3.71375,0 6.93242,1.29978 3.28034,1.23788 5.69429,3.46619 2.41394,2.16623 3.77562,5.13731 1.42358,2.97089 1.42358,6.31313 0,3.34241 -1.42358,6.31339 -1.36168,2.90919 -3.77562,5.13731 -2.41395,2.22831 -5.69429,3.52809 -3.21867,1.23789 -6.93242,1.23789 h -26.67675 v 6.43708 h 12.99801 v 6.49907 h -32.43314 v -6.49907 h 12.99801 v -32.37119 h -12.99801 v -6.49898 z m -0.37133,25.9341 q 2.35206,0 4.39469,-0.7425 2.10431,-0.80474 3.58977,-2.10425 1.54755,-1.29987 2.41395,-3.03305 0.92848,-1.7949 0.92848,-3.83754 0,-2.04236 -0.92848,-3.77537 -0.86638,-1.79516 -2.41395,-3.09495 -1.48546,-1.29977 -3.58977,-2.04236 -2.04263,-0.80475 -4.39469,-0.80475 h -26.30544 v 19.43514 z" />
            <path
               inkscape:connector-curvature="0"
               id="path7651-3-4-0-3"
               style="font-style:normal;font-weight:normal;font-size:medium;line-height:1.25;font-family:sans-serif;letter-spacing:0px;word-spacing:0px;fill:#ffffff;fill-opacity:1;stroke:none;stroke-width:2.44439"
               d="m 550.08698,269.40261 v 12.93615 h -6.43711 v -6.43717 h -38.9321 v 12.93615 h 32.4331 v 6.49897 h -32.4331 v 12.93616 h 12.99798 v 6.49898 h -32.43309 v -6.49898 h 12.99801 v -32.37128 h -12.99801 v -6.49898 z" />
            <path
               inkscape:connector-curvature="0"
               style="font-style:normal;font-variant:normal;font-weight:normal;font-stretch:normal;font-size:medium;line-height:1.25;font-family:'Deming EP';-inkscape-font-specification:'Deming EP';letter-spacing:0px;word-spacing:0px;fill:#ffffff;fill-opacity:1;stroke:none;stroke-width:0.94805"
               d="m 583.24667,267.95292 c -4.23302,0 -8.21968,0.63709 -11.95952,1.91127 -3.69877,1.23308 -6.94586,2.9587 -9.74044,5.17824 -2.75351,2.17844 -4.93148,4.72612 -6.53425,7.64441 -1.60277,2.91759 -2.40414,6.04047 -2.40414,9.36887 0,3.32932 0.80127,6.47367 2.40414,9.43282 1.60277,2.91784 3.78074,5.4856 6.53425,7.70514 2.79458,2.17845 6.04167,3.90429 9.74044,5.17825 3.73984,1.23307 7.7265,1.84961 11.95952,1.84961 3.73983,0 7.27354,-0.49323 10.60243,-1.4797 2.44244,-0.72386 4.71802,-1.66008 6.82859,-2.80341 0.29433,-0.15985 0.58388,-0.32425 0.87046,-0.49323 0.0685,-0.0457 0.13929,-0.0685 0.20779,-0.11418 1.12827,-0.67134 2.19807,-1.40663 3.20725,-2.20812 1.66487,-1.31527 3.11596,-2.77191 4.36033,-4.35894 v -9.43807 h -32.30235 v 6.47367 h 25.89111 c -1.06844,1.19197 -2.30191,2.30129 -3.69919,3.32885 -1.35616,0.98647 -2.8762,1.84962 -4.56118,2.58946 -1.68499,0.73985 -3.49367,1.31529 -5.42525,1.72632 -1.89049,0.40874 -3.88327,0.61653 -5.97924,0.61653 -3.3289,0 -6.4316,-0.49323 -9.3084,-1.4797 -2.83573,-0.98645 -5.32226,-2.30242 -7.45932,-3.9463 -2.09601,-1.64411 -3.74041,-3.55378 -4.93224,-5.73198 -1.19175,-2.17845 -1.78705,-4.45964 -1.78705,-6.84359 0,-2.38328 0.5953,-4.64414 1.78705,-6.78102 1.19174,-2.17844 2.8363,-4.08833 4.93224,-5.73198 2.1371,-1.64411 4.62359,-2.95917 7.45932,-3.94517 2.8768,-0.98646 5.9795,-1.47969 9.3084,-1.47969 2.09601,0 4.08877,0.20551 5.97924,0.61654 1.93159,0.40874 3.74025,0.98875 5.42525,1.72631 1.68498,0.73985 3.20498,1.62355 4.56118,2.6502 1.39725,0.98646 2.63065,2.07568 3.69919,3.26698 h 6.41124 v -3.23181 c -1.1673,-1.42261 -2.50273,-2.73881 -4.01869,-3.93786 -0.85241,-0.67819 -1.75348,-1.30159 -2.69115,-1.88387 -0.23222,-0.13701 -0.46423,-0.28772 -0.70102,-0.42929 -0.15071,-0.0914 -0.30416,-0.18269 -0.45624,-0.25803 -2.3267,-1.31757 -4.86029,-2.38738 -7.60644,-3.20144 -3.32891,-0.98646 -6.86262,-1.4797 -10.60244,-1.4797 z"
               id="path7766-6-1-0-3" />
            <path
               inkscape:connector-curvature="0"
               id="path4525-0-2-8-5-1-9-4-0-6-4-5-5"
               style="font-style:normal;font-variant:normal;font-weight:normal;font-stretch:normal;font-size:medium;line-height:1.25;font-family:'Deming EP';-inkscape-font-specification:'Deming EP';letter-spacing:0px;word-spacing:0px;fill:#ffffff;fill-opacity:1;stroke:none;stroke-width:1.38227"
               d="m 609.32352,282.38131 h -6.49907 v -12.9787 h 6.49907 z"
               sodipodi:nodetypes="ccccc" />
            <path
               inkscape:connector-curvature="0"
               id="path4525-0-2-8-5-1-9-4-0-6-4-5-5-2"
               style="font-style:normal;font-variant:normal;font-weight:normal;font-stretch:normal;font-size:medium;line-height:1.25;font-family:'Deming EP';-inkscape-font-specification:'Deming EP';letter-spacing:0px;word-spacing:0px;fill:#ffffff;fill-opacity:1;stroke:none;stroke-width:1.38227"
               d="m 609.32352,314.77185 h -6.49907 v -12.9787 h 6.49907 z"
               sodipodi:nodetypes="ccccc" />
            <path
               inkscape:connector-curvature="0"
               id="path4545-4-0-6-0-4-6-5-7-7-76-9-8-7-1-9-2-6"
               d="m 418.82352,262.90363 v -6.49899 h 190.5 v 6.49899 h -23.67083 -29.09659 -34.57674 -79.485 z"
               style="font-style:normal;font-variant:normal;font-weight:normal;font-stretch:normal;font-size:medium;line-height:1.25;font-family:'Deming EP';-inkscape-font-specification:'Deming EP';letter-spacing:0px;word-spacing:0px;fill:#ffffff;fill-opacity:1;stroke:none;stroke-width:4.02138" />
            <path
               inkscape:connector-curvature="0"
               id="path4545-4-0-6-0-4-6-5-7-7-76-9-8-7-1-9-2-6-4-2"
               d="m 418.82352,327.76981 v -6.49898 h 190.5 v 6.49898 h -23.67083 -29.09659 -34.57674 -79.485 z"
               style="font-style:normal;font-variant:normal;font-weight:normal;font-stretch:normal;font-size:medium;line-height:1.25;font-family:'Deming EP';-inkscape-font-specification:'Deming EP';letter-spacing:0px;word-spacing:0px;fill:#ffffff;fill-opacity:1;stroke:none;stroke-width:4.02138" />
          </g>
        </g>
      </g>
    </g>
  </g>
</svg>
