<?xml version="1.0" encoding="UTF-8" standalone="no"?>
<!-- Created with Inkscape (http://www.inkscape.org/) -->

<svg
   xmlns:dc="http://purl.org/dc/elements/1.1/"
   xmlns:cc="http://creativecommons.org/ns#"
   xmlns:rdf="http://www.w3.org/1999/02/22-rdf-syntax-ns#"
   xmlns:svg="http://www.w3.org/2000/svg"
   xmlns="http://www.w3.org/2000/svg"
   xmlns:sodipodi="http://sodipodi.sourceforge.net/DTD/sodipodi-0.dtd"
   xmlns:inkscape="http://www.inkscape.org/namespaces/inkscape"
   width="535"
   height="56"
   viewBox="0 0 141.55208 14.816665"
   version="1.1"
   id="svg36017"
   inkscape:version="0.92.1 r15371"
   sodipodi:docname="pfg.svg">
  <defs
     id="defs36011" />
  <sodipodi:namedview
     id="base"
     pagecolor="#ffffff"
     bordercolor="#666666"
     borderopacity="1.0"
     inkscape:pageopacity="0.0"
     inkscape:pageshadow="2"
     inkscape:zoom="1.979899"
     inkscape:cx="311.06952"
     inkscape:cy="-4.630286"
     inkscape:document-units="px"
     inkscape:current-layer="g6416-1-4-7"
     showgrid="false"
     units="px"
     inkscape:window-width="1920"
     inkscape:window-height="1137"
     inkscape:window-x="-8"
     inkscape:window-y="-8"
     inkscape:window-maximized="1"
     inkscape:pagecheckerboard="true"
     showguides="true"
     inkscape:guide-bbox="true"
     inkscape:snap-nodes="false"
     inkscape:snap-bbox="true"
     inkscape:bbox-nodes="true">
    <inkscape:grid
       type="xygrid"
       id="grid41191" />
  </sodipodi:namedview>
  <metadata
     id="metadata36014">
    <rdf:RDF>
      <cc:Work
         rdf:about="">
        <dc:format>image/svg+xml</dc:format>
        <dc:type
           rdf:resource="http://purl.org/dc/dcmitype/StillImage" />
        <dc:title></dc:title>
      </cc:Work>
    </rdf:RDF>
  </metadata>
  <g
     inkscape:label="Layer 1"
     inkscape:groupmode="layer"
     id="layer1"
     transform="translate(0,-282.18334)">
    <g
       id="g6416-1-4-7"
       transform="matrix(6.7336791,0,0,6.7336791,-155.14751,-1835.1302)"
       style="fill:#ffffff;fill-opacity:1">
      <g
         transform="matrix(0.06184702,0,0,0.06184702,19.996887,344.9809)"
         id="g5526"
         style="fill:#ffffff">
        <path
           d="m 72.104669,-493.55465 q 1.8183,0 3.3942,0.6364 1.6061,0.6061 2.788,1.6971 1.1819,1.0606 1.8486,2.5153 0.697,1.4546 0.697,3.091 0,1.6365 -0.697,3.0911 -0.6667,1.4244 -1.8486,2.5153 -1.1819,1.091 -2.788,1.7274 -1.5759,0.6061 -3.3942,0.6061 h -13.0613 v 3.1517 h 6.364 v 3.182 h -15.8797 v -3.182 h 6.364 v -15.8494 h -6.364 v -3.182 z m -0.1818,12.6977 q 1.1516,0 2.1517,-0.3637 1.0303,-0.3939 1.7576,-1.0303 0.7577,-0.6364 1.1819,-1.485 0.4546,-0.8788 0.4546,-1.8789 0,-1 -0.4546,-1.8485 -0.4242,-0.8789 -1.1819,-1.5153 -0.7273,-0.6364 -1.7576,-1 -1.0001,-0.394 -2.1517,-0.394 h -12.8795 v 9.5157 z"
           style="font-style:normal;font-variant:normal;font-weight:normal;font-stretch:normal;font-size:medium;line-height:1.25;font-family:'Deming EP';-inkscape-font-specification:'Deming EP';letter-spacing:0px;word-spacing:0px;fill:#ffffff;fill-opacity:1;stroke:none;stroke-width:0.75761855"
           id="path4525-0-2-8-5-1-9-4-0-6"
           inkscape:connector-curvature="0" />
        <path
           d="m 110.88247,-471.34125 q -1.8183,-0.03 -3.4244,-0.6667 -1.6062,-0.6364 -2.7881,-1.7577 l -3.9093,-3.9093 h -9.636901 v 3.1517 h 6.364 v 3.182 h -15.8797 v -3.182 h 6.364 v -15.8494 h -6.364 v -3.182 h 22.577101 q 1.8182,0 3.3941,0.6364 1.6061,0.6061 2.788,1.6971 1.1819,1.0606 1.8486,2.5153 0.697,1.4546 0.697,3.091 0,1.5153 -0.6061,2.879 -0.5758,1.3637 -1.6364,2.4244 -1.0304,1.0303 -2.4547,1.7273 -1.394,0.6668 -3.0305,0.8486 l 1.7274,1.7273 q 0.7879,0.6971 1.8183,1.091 1.0303,0.394 2.2425,0.394 h 3.2729 v 3.182 z m -6.8792,-9.5157 q 1.1516,0 2.1214,-0.3637 1,-0.3939 1.7273,-1.0303 0.7273,-0.6364 1.1213,-1.485 0.4243,-0.8788 0.4243,-1.8789 0,-1 -0.4243,-1.8485 -0.394,-0.8789 -1.1213,-1.5153 -0.7273,-0.6364 -1.7273,-1 -0.9698,-0.394 -2.1214,-0.394 H 91.123769 v 9.5157 z"
           style="font-style:normal;font-variant:normal;font-weight:normal;font-stretch:normal;font-size:medium;line-height:1.25;font-family:'Deming EP';-inkscape-font-specification:'Deming EP';letter-spacing:0px;word-spacing:0px;fill:#ffffff;fill-opacity:1;stroke:none;stroke-width:0.75761855"
           id="path4527-5-1-3-9-9-8-6-3-7"
           inkscape:connector-curvature="0" />
        <path
           d="m 123.69187,-474.52325 9.243,-15.8494 h -6.061 v -3.182 h 19.0617 v 3.182 h -6.2428 l 9.243,15.8494 h 6.5155 v 3.182 h -15.8797 v -3.182 h 5.5761 l -1.7577,-3.1517 h -14.122 l -1.788,3.1517 h 5.7579 v 3.182 h -15.8796 v -3.182 z m 17.9101,-6.3337 -5.273,-9.4854 -5.3033,9.4854 z"
           style="font-style:normal;font-variant:normal;font-weight:normal;font-stretch:normal;font-size:medium;line-height:1.25;font-family:'Deming EP';-inkscape-font-specification:'Deming EP';letter-spacing:0px;word-spacing:0px;fill:#ffffff;fill-opacity:1;stroke:none;stroke-width:0.75761855"
           id="path4529-9-9-8-4-0-9-9-1-57"
           inkscape:connector-curvature="0" />
        <path
           d="m 168.12857,-490.37265 v 15.8494 h 6.364 v 3.182 h -15.8797 v -3.182 h 6.364 v -15.8494 h -6.364 v -3.182 h 15.8797 v 3.182 z"
           style="font-style:normal;font-variant:normal;font-weight:normal;font-stretch:normal;font-size:medium;line-height:1.25;font-family:'Deming EP';-inkscape-font-specification:'Deming EP';letter-spacing:0px;word-spacing:0px;fill:#ffffff;fill-opacity:1;stroke:none;stroke-width:0.75761855"
           id="path4531-67-3-2-2-9-0-6-9-3"
           inkscape:connector-curvature="0" />
        <path
           d="m 206.94617,-471.34125 q -1.8183,-0.03 -3.4245,-0.6667 -1.6061,-0.6364 -2.788,-1.7577 l -3.9093,-3.9093 h -9.6369 v 3.1517 h 6.364 v 3.182 h -15.8797 v -3.182 h 6.364 v -15.8494 h -6.364 v -3.182 h 22.577 q 1.8183,0 3.3941,0.6364 1.6062,0.6061 2.7881,1.6971 1.1819,1.0606 1.8486,2.5153 0.697,1.4546 0.697,3.091 0,1.5153 -0.6061,2.879 -0.5758,1.3637 -1.6365,2.4244 -1.0303,1.0303 -2.4547,1.7273 -1.394,0.6668 -3.0304,0.8486 l 1.7273,1.7273 q 0.788,0.6971 1.8183,1.091 1.0304,0.394 2.2426,0.394 h 3.2729 v 3.182 z m -6.8792,-9.5157 q 1.1516,0 2.1213,-0.3637 1.0001,-0.3939 1.7274,-1.0303 0.7273,-0.6364 1.1213,-1.485 0.4242,-0.8788 0.4242,-1.8789 0,-1 -0.4242,-1.8485 -0.394,-0.8789 -1.1213,-1.5153 -0.7273,-0.6364 -1.7274,-1 -0.9697,-0.394 -2.1213,-0.394 h -12.8795 v 9.5157 z"
           style="font-style:normal;font-variant:normal;font-weight:normal;font-stretch:normal;font-size:medium;line-height:1.25;font-family:'Deming EP';-inkscape-font-specification:'Deming EP';letter-spacing:0px;word-spacing:0px;fill:#ffffff;fill-opacity:1;stroke:none;stroke-width:0.75761855"
           id="path4533-4-3-1-8-3-0-0-4-5"
           inkscape:connector-curvature="0" />
        <path
           d="m 222.93757,-490.37265 v 15.8494 h 6.364 v 3.182 h -15.8797 v -3.182 h 6.364 v -15.8494 h -6.364 v -3.182 h 15.8797 v 3.182 z"
           style="font-style:normal;font-variant:normal;font-weight:normal;font-stretch:normal;font-size:medium;line-height:1.25;font-family:'Deming EP';-inkscape-font-specification:'Deming EP';letter-spacing:0px;word-spacing:0px;fill:#ffffff;fill-opacity:1;stroke:none;stroke-width:0.75761855"
           id="path4535-1-3-0-5-1-2-2-4-2"
           inkscape:connector-curvature="0" />
        <path
           d="m 261.05807,-487.22095 v -3.1517 h -19.0617 v 6.3337 h 15.8797 v 3.182 h -15.8797 v 6.3337 h 19.0617 v -3.1517 h 3.1517 v 6.3337 h -31.729 v -3.182 h 6.3639 v -15.8494 h -6.3639 v -3.182 h 31.729 v 6.3337 z"
           style="font-style:normal;font-variant:normal;font-weight:normal;font-stretch:normal;font-size:medium;line-height:1.25;font-family:'Deming EP';-inkscape-font-specification:'Deming EP';letter-spacing:0px;word-spacing:0px;fill:#ffffff;fill-opacity:1;stroke:none;stroke-width:0.75761855"
           id="path4537-0-8-4-8-0-2-55-6-9"
           inkscape:connector-curvature="0" />
        <path
           inkscape:connector-curvature="0"
           id="path4545-4-0-6-0-4-6-5-7-7-76-9-8-7-1"
           d="m 49.527769,-468.15905 v 3.1822 H 264.20977 v -3.1822 h -26.6756 -32.7901 -38.9659 -89.574801 z"
           style="font-style:normal;font-variant:normal;font-weight:normal;font-stretch:normal;font-size:medium;line-height:1.25;font-family:'Deming EP';-inkscape-font-specification:'Deming EP';letter-spacing:0px;word-spacing:0px;fill:#ffffff;fill-opacity:1;stroke:none;stroke-width:2.2041049" />
        <path
           inkscape:connector-curvature="0"
           id="path4545-4-0-6-0-4-6-5-7-7-8-8-5-0-2"
           d="m 49.527769,-461.79465 v 3.1823 H 264.20977 v -3.1823 h -26.6756 -32.7901 -38.9659 -89.574801 z"
           style="font-style:normal;font-variant:normal;font-weight:normal;font-stretch:normal;font-size:medium;line-height:1.25;font-family:'Deming EP';-inkscape-font-specification:'Deming EP';letter-spacing:0px;word-spacing:0px;fill:#ffffff;fill-opacity:1;stroke:none;stroke-width:2.2041049" />
        <path
           d="m 299.12103,-493.55485 v 6.3337 h -3.1517 v -3.1517 h -19.06168 v 6.3337 h 15.87968 v 3.182 h -15.87968 v 6.3337 h 6.36399 v 3.182 h -15.87968 v -3.182 h 6.364 v -15.8494 h -6.364 v -3.182 z"
           style="font-style:normal;font-weight:normal;font-size:medium;line-height:1.25;font-family:sans-serif;letter-spacing:0px;word-spacing:0px;fill:#ffffff;fill-opacity:1;stroke:none;stroke-width:0.75761855"
           id="path7651-3-4"
           inkscape:connector-curvature="0" />
        <path
           d="m 311.76994,-490.37285 v 15.8493 h 6.364 v 3.1821 h -15.87969 v -3.1821 h 6.364 v -15.8493 h -6.364 v -3.182 h 15.87969 v 3.182 z"
           style="font-style:normal;font-weight:normal;font-size:medium;line-height:1.25;font-family:sans-serif;letter-spacing:0px;word-spacing:0px;fill:#ffffff;fill-opacity:1;stroke:none;stroke-width:0.75761855"
           id="path7653-5-4"
           inkscape:connector-curvature="0" />
        <path
           d="m 350.58748,-471.34145 q -1.81829,-0.03 -3.42444,-0.6668 -1.60615,-0.6364 -2.78804,-1.7576 l -3.90931,-3.9093 h -9.63691 v 3.1517 h 6.364 v 3.182 h -15.87969 v -3.182 h 6.364 v -15.8494 h -6.364 v -3.182 h 22.57704 q 1.81828,0 3.39413,0.6364 1.60615,0.6061 2.78804,1.697 1.18188,1.0607 1.84858,2.5153 0.69701,1.4547 0.69701,3.0911 0,1.5153 -0.60609,2.879 -0.57579,1.3637 -1.63646,2.4243 -1.03036,1.0304 -2.45468,1.7274 -1.39402,0.6667 -3.03048,0.8486 l 1.72737,1.7273 q 0.78793,0.697 1.81829,1.091 1.03036,0.394 2.24255,0.394 h 3.27291 v 3.182 z m -6.87918,-9.5157 q 1.15158,0 2.12133,-0.3637 1.00006,-0.394 1.72737,-1.0304 0.72732,-0.6364 1.12128,-1.4849 0.42426,-0.8788 0.42426,-1.8789 0,-1 -0.42426,-1.8486 -0.39396,-0.8788 -1.12128,-1.5152 -0.72731,-0.6364 -1.72737,-1.0001 -0.96975,-0.3939 -2.12133,-0.3939 h -12.87952 v 9.5157 z"
           style="font-style:normal;font-weight:normal;font-size:medium;line-height:1.25;font-family:sans-serif;letter-spacing:0px;word-spacing:0px;fill:#ffffff;fill-opacity:1;stroke:none;stroke-width:0.75761855"
           id="path7655-0-4"
           inkscape:connector-curvature="0" />
        <path
           d="m 385.6406,-487.22115 v -3.1517 h -19.06169 v 6.3337 h 15.87969 v 3.182 h -15.87969 v 6.3336 h 19.06169 v -3.1516 h 3.15169 v 6.3337 h -31.72907 v -3.1821 h 6.364 v -15.8493 h -6.364 v -3.182 h 31.72907 v 6.3337 z"
           style="font-style:normal;font-weight:normal;font-size:medium;line-height:1.25;font-family:sans-serif;letter-spacing:0px;word-spacing:0px;fill:#ffffff;fill-opacity:1;stroke:none;stroke-width:0.75761855"
           id="path7657-2-71"
           inkscape:connector-curvature="0" />
        <path
           inkscape:connector-curvature="0"
           id="path7766-1"
           d="m 273.23363,-468.00005 c -0.80709,0 -1.56719,0.1214 -2.28025,0.3643 -0.70521,0.2351 -1.32431,0.5642 -1.85714,0.9873 -0.525,0.4153 -0.94025,0.9012 -1.24585,1.4575 -0.30559,0.5564 -0.45837,1.1517 -0.45837,1.7864 0,0.6347 0.15278,1.2343 0.45837,1.7984 0.3056,0.5564 0.72085,1.046 1.24585,1.4692 0.53283,0.4153 1.15193,0.7444 1.85714,0.9873 0.71306,0.235 1.47316,0.3525 2.28025,0.3525 0.71305,0 1.3868,-0.094 2.02149,-0.282 0.46568,-0.1379 0.89956,-0.3164 1.30197,-0.5345 0.056,-0.03 0.11131,-0.062 0.16595,-0.094 0.0131,-0.01 0.0265,-0.015 0.0395,-0.023 0.21513,-0.1281 0.41908,-0.2681 0.6115,-0.4209 0.31741,-0.2511 0.59411,-0.5285 0.83137,-0.8312 v -1.7994 h -6.15889 v 1.2343 h 4.93649 c -0.20373,0.2272 -0.43888,0.4388 -0.7053,0.6347 -0.25858,0.188 -0.54838,0.3526 -0.86965,0.4937 -0.32126,0.141 -0.66611,0.2507 -1.03439,0.329 -0.36044,0.078 -0.7404,0.1175 -1.14002,0.1175 -0.6347,0 -1.22627,-0.094 -1.77477,-0.282 -0.54067,-0.1881 -1.01476,-0.439 -1.42222,-0.7524 -0.39963,-0.3135 -0.71317,-0.6777 -0.9404,-1.093 -0.22724,-0.4153 -0.34073,-0.8502 -0.34073,-1.3047 0,-0.4545 0.11349,-0.8855 0.34073,-1.2929 0.22723,-0.4154 0.54077,-0.7795 0.9404,-1.093 0.40746,-0.3134 0.88155,-0.5641 1.42222,-0.7522 0.5485,-0.188 1.14007,-0.2822 1.77477,-0.2822 0.39962,0 0.77958,0.039 1.14002,0.1175 0.36828,0.078 0.71313,0.1882 1.03439,0.3293 0.32127,0.141 0.61107,0.3094 0.86965,0.5053 0.26642,0.188 0.50157,0.3956 0.7053,0.6229 h 1.2224 v -0.6169 c -0.22259,-0.2714 -0.47719,-0.5222 -0.76623,-0.7508 -0.16253,-0.1291 -0.33431,-0.2481 -0.51309,-0.3594 -0.0443,-0.028 -0.0885,-0.055 -0.13369,-0.082 -0.0286,-0.017 -0.058,-0.033 -0.087,-0.049 -0.44363,-0.2511 -0.92669,-0.4551 -1.45028,-0.6103 -0.63469,-0.188 -1.30844,-0.282 -2.02149,-0.282 z"
           style="font-style:normal;font-variant:normal;font-weight:normal;font-stretch:normal;font-size:medium;line-height:1.25;font-family:'Deming EP';-inkscape-font-specification:'Deming EP';letter-spacing:0px;word-spacing:0px;fill:#ffffff;fill-opacity:1;stroke:none;stroke-width:0.29384044" />
        <path
           sodipodi:nodetypes="ccccccccccccc"
           inkscape:connector-curvature="0"
           id="path7768-0"
           d="m 295.76736,-467.70625 -5.02428,8.6153 h 1.44988 l 1.43245,-2.4564 h 5.47723 l 1.43244,2.4564 h 1.43826 l -5.02427,-8.6153 z m 0.59666,1.2458 2.04515,3.6788 h -4.10192 z"
           style="font-style:normal;font-variant:normal;font-weight:normal;font-stretch:normal;font-size:medium;line-height:1.25;font-family:'Deming EP';-inkscape-font-specification:'Deming EP';letter-spacing:0px;word-spacing:0px;fill:#ffffff;fill-opacity:1;stroke:none;stroke-width:0.29384044" />
        <path
           sodipodi:nodetypes="cccccccccccccc"
           inkscape:connector-curvature="0"
           id="path7770-8"
           d="m 314.79171,-467.70625 v 8.6153 h 1.2224 v -7.4165 l 4.29011,7.4165 h 0.188 l 4.27849,-7.4165 v 7.4165 h 1.23402 v -8.6153 h -1.96277 l -3.64374,6.3116 -3.64354,-6.3116 z"
           style="font-style:normal;font-variant:normal;font-weight:normal;font-stretch:normal;font-size:medium;line-height:1.25;font-family:'Deming EP';-inkscape-font-specification:'Deming EP';letter-spacing:0px;word-spacing:0px;fill:#ffffff;fill-opacity:1;stroke:none;stroke-width:0.29384044" />
        <path
           sodipodi:nodetypes="ccccccccccc"
           inkscape:connector-curvature="0"
           id="path7774-7"
           d="m 357.06328,-467.70625 v 8.6153 h 1.2224 v -7.3813 l 7.38128,7.3813 h 1.23422 v -8.6153 h -1.2224 v 6.8876 l -6.88763,-6.8876 z"
           style="font-style:normal;font-variant:normal;font-weight:normal;font-stretch:normal;font-size:medium;line-height:1.25;font-family:'Deming EP';-inkscape-font-specification:'Deming EP';letter-spacing:0px;word-spacing:0px;fill:#ffffff;fill-opacity:1;stroke:none;stroke-width:0.29384044" />
        <path
           style="font-style:normal;font-variant:normal;font-weight:normal;font-stretch:normal;font-size:medium;line-height:1.25;font-family:'Deming EP';-inkscape-font-specification:'Deming EP';letter-spacing:0px;word-spacing:0px;fill:#ffffff;fill-opacity:1;stroke:none;stroke-width:0.29384044"
           d="m 340.9228,-467.70635 v 1.2342 6.1471 1.2342 h 1.22239 v -1.2342 -6.1471 -1.2342 z"
           id="path4541-5-9-2-4-6-5-1-8-5"
           inkscape:connector-curvature="0" />
        <path
           id="path7766-6-1"
           d="m 383.82042,-468.00015 c -0.80708,0 -1.56719,0.1215 -2.28024,0.3644 -0.70522,0.235 -1.32432,0.5641 -1.85715,0.9873 -0.52499,0.4152 -0.94025,0.9011 -1.24584,1.4575 -0.3056,0.5563 -0.45838,1.1517 -0.45838,1.7863 0,0.6348 0.15278,1.2343 0.45838,1.7985 0.30559,0.5563 0.72085,1.0459 1.24584,1.4691 0.53283,0.4153 1.15193,0.7444 1.85715,0.9873 0.71305,0.2351 1.47316,0.3525 2.28024,0.3525 0.71305,0 1.3868,-0.094 2.0215,-0.282 0.46568,-0.1379 0.89955,-0.3164 1.30196,-0.5345 0.0561,-0.03 0.11131,-0.062 0.16595,-0.094 0.0131,-0.01 0.0265,-0.015 0.0395,-0.023 0.21512,-0.128 0.41908,-0.2681 0.6115,-0.4209 0.31741,-0.251 0.5941,-0.5285 0.83136,-0.8311 v -1.7995 h -6.15888 v 1.2343 h 4.93649 c -0.20373,0.2272 -0.43889,0.4388 -0.7053,0.6347 -0.25858,0.1881 -0.54839,0.3526 -0.86965,0.4937 -0.32127,0.141 -0.66612,0.2507 -1.0344,0.3291 -0.36044,0.078 -0.7404,0.1174 -1.14002,0.1174 -0.6347,0 -1.22627,-0.094 -1.77477,-0.282 -0.54067,-0.188 -1.01476,-0.439 -1.42222,-0.7524 -0.39962,-0.3134 -0.71316,-0.6776 -0.9404,-1.0929 -0.22723,-0.4153 -0.34072,-0.8503 -0.34072,-1.3048 0,-0.4544 0.11349,-0.8855 0.34072,-1.2929 0.22724,-0.4153 0.54078,-0.7795 0.9404,-1.0929 0.40746,-0.3135 0.88155,-0.5642 1.42222,-0.7522 0.5485,-0.1881 1.14007,-0.2822 1.77477,-0.2822 0.39962,0 0.77958,0.039 1.14002,0.1174 0.36828,0.078 0.71313,0.1883 1.0344,0.3293 0.32126,0.1411 0.61107,0.3094 0.86965,0.5053 0.26641,0.188 0.50157,0.3957 0.7053,0.6229 h 1.22239 v -0.6162 c -0.22258,-0.2714 -0.47718,-0.5222 -0.76622,-0.7508 -0.16253,-0.1291 -0.33431,-0.248 -0.5131,-0.3594 -0.0443,-0.028 -0.0885,-0.055 -0.13368,-0.082 -0.0286,-0.017 -0.058,-0.033 -0.087,-0.049 -0.44362,-0.2512 -0.92668,-0.4552 -1.45027,-0.6104 -0.6347,-0.188 -1.30845,-0.2819 -2.0215,-0.2819 z"
           style="font-style:normal;font-variant:normal;font-weight:normal;font-stretch:normal;font-size:medium;line-height:1.25;font-family:'Deming EP';-inkscape-font-specification:'Deming EP';letter-spacing:0px;word-spacing:0px;fill:#ffffff;fill-opacity:1;stroke:none;stroke-width:0.29384044"
           inkscape:connector-curvature="0" />
      </g>
    </g>
  </g>
</svg>
