<?xml version="1.0" encoding="UTF-8" standalone="no"?>
<svg
   xml:space="preserve"
   style="max-width: 100%;height: auto;"
   width="999"
   height="999"
   viewBox="0 0 999 999"
   version="1.1"
   id="svg146474"
   sodipodi:docname="pfg-square.svg"
   inkscape:version="1.1.1 (c3084ef, 2021-09-22)"
   inkscape:export-filename="/Users/jedlimke/Documents/Megagames/DEN-OF-WOLVES-MARCH-2026/pfg-square.png"
   inkscape:export-xdpi="72"
   inkscape:export-ydpi="72"
   xmlns:inkscape="http://www.inkscape.org/namespaces/inkscape"
   xmlns:sodipodi="http://sodipodi.sourceforge.net/DTD/sodipodi-0.dtd"
   xmlns:xlink="http://www.w3.org/1999/xlink"
   xmlns="http://www.w3.org/2000/svg"
   xmlns:svg="http://www.w3.org/2000/svg"><defs
   id="defs146478"><linearGradient
     inkscape:collect="always"
     id="linearGradient150079"><stop
       style="stop-color:#ff6600;stop-opacity:1"
       offset="0"
       id="stop150075" /><stop
       style="stop-color:#ff0066;stop-opacity:1"
       offset="1"
       id="stop150077" /></linearGradient><linearGradient
     inkscape:collect="always"
     xlink:href="#linearGradient150079"
     id="linearGradient150081"
     x1="37.470402"
     y1="93.434578"
     x2="902.02985"
     y2="945.27991"
     gradientUnits="userSpaceOnUse"
     gradientTransform="matrix(0.93457683,0,0,0.94852574,73.45588,3.7276387)" /></defs><sodipodi:namedview
   id="namedview146476"
   pagecolor="#ffffff"
   bordercolor="#999999"
   borderopacity="1"
   inkscape:pageshadow="0"
   inkscape:pageopacity="0"
   inkscape:pagecheckerboard="0"
   showgrid="false"
   inkscape:zoom="0.25445935"
   inkscape:cx="320.28692"
   inkscape:cy="709.3471"
   inkscape:window-width="1296"
   inkscape:window-height="969"
   inkscape:window-x="2058"
   inkscape:window-y="211"
   inkscape:window-maximized="0"
   inkscape:current-layer="svg146474"
   inkscape:snap-global="true" />

<rect
   style="opacity:1;fill:url(#linearGradient150081);fill-opacity:1;stroke-width:40;stroke-linecap:round;stroke-linejoin:round"
   id="rect149975"
   width="999"
   height="999"
   x="0"
   y="0" /><g
   id="g149951"
   transform="translate(-1.6176598,60.41771)"
   style="fill:#ffffff"><g
     id="g149817"
     transform="matrix(2.4496329,0,0,2.4496329,-204.5688,-504.27803)"
     style="stroke-width:0.408224;fill:#ffffff"><path
       inkscape:connector-curvature="0"
       id="path4525-0-2-8-5-1-9-4-0-6-4-5"
       style="font-style:normal;font-variant:normal;font-weight:normal;font-stretch:normal;font-size:medium;line-height:1.25;font-family:'Deming EP';-inkscape-font-specification:'Deming EP';letter-spacing:0px;word-spacing:0px;fill:#ffffff;fill-opacity:1;stroke:none;stroke-width:0.432191"
       d="m 212.26348,350.10273 q 5.72992,0 10.696,2.00543 5.06121,1.90992 8.78568,5.34797 3.72447,3.34227 5.8254,7.92633 2.19643,4.58378 2.19643,9.7405 0,5.15699 -2.19643,9.74091 -2.10093,4.48857 -5.8254,7.92633 -3.72447,3.43804 -8.78568,5.44347 -4.96608,1.90993 -10.696,1.90993 h -41.15944 v 9.93175 h 20.05456 v 10.02738 h -50.04094 v -10.02738 h 20.05458 v -49.94537 h -20.05458 v -10.02725 z m -0.57293,40.01362 q 3.62898,0 6.78055,-1.1456 3.24673,-1.24164 5.53863,-3.24665 2.38772,-2.00556 3.72448,-4.67968 1.43255,-2.76934 1.43255,-5.92092 0,-3.15115 -1.43255,-5.825 -1.33673,-2.76975 -3.72448,-4.77518 -2.2919,-2.00541 -5.53863,-3.15115 -3.15157,-1.24165 -6.78055,-1.24165 H 171.104 v 29.98639 z" /><path
       inkscape:connector-curvature="0"
       id="path7651-3-4-0-3"
       style="font-style:normal;font-weight:normal;font-size:medium;line-height:1.25;font-family:sans-serif;letter-spacing:0px;word-spacing:0px;fill:#ffffff;fill-opacity:1;stroke:none;stroke-width:0.764278"
       d="m 343.64346,350.10273 v 19.95914 h -9.93179 v -9.93189 h -60.06816 v 19.95913 h 50.04088 v 10.02724 h -50.04088 v 19.95914 h 20.05453 v 10.02724 h -50.04087 v -10.02724 h 20.05457 v -49.94551 h -20.05457 v -10.02725 z" /><path
       inkscape:connector-curvature="0"
       style="font-style:normal;font-variant:normal;font-weight:normal;font-stretch:normal;font-size:medium;line-height:1.25;font-family:'Deming EP';-inkscape-font-specification:'Deming EP';letter-spacing:0px;word-spacing:0px;fill:#ffffff;fill-opacity:1;stroke:none;stroke-width:0.296424"
       d="m 394.80539,347.86602 c -6.5311,0 -12.6821,0.98296 -18.45228,2.94889 -5.70682,1.90251 -10.71674,4.56496 -15.02849,7.98948 -4.24838,3.36111 -7.60875,7.29191 -10.08166,11.79452 -2.4729,4.50154 -3.70933,9.31982 -3.70933,14.4552 0,5.13678 1.23627,9.98819 3.70933,14.55385 2.47291,4.50192 5.83328,8.46371 10.08166,11.88823 4.31175,3.36111 9.32167,6.02391 15.02849,7.98949 5.77018,1.9025 11.92118,2.85376 18.45228,2.85376 5.77017,0 11.22232,-0.761 16.35845,-2.28302 3.76842,-1.11684 7.27941,-2.56133 10.53579,-4.32538 0.45413,-0.24662 0.90088,-0.50028 1.34304,-0.761 0.10564,-0.0705 0.21491,-0.10566 0.3206,-0.17616 1.7408,-1.03581 3.39139,-2.17028 4.94844,-3.40691 2.56873,-2.02932 4.8076,-4.27676 6.72754,-6.72538 V 390.09964 H 385.2001 v 9.98819 h 39.94727 c -1.64849,1.83909 -3.5516,3.55065 -5.70746,5.13607 -2.09241,1.52201 -4.43768,2.85377 -7.03742,3.99526 -2.59976,1.14151 -5.39037,2.02936 -8.3706,2.66353 -2.91682,0.63064 -5.99148,0.95125 -9.22534,0.95125 -5.13615,0 -9.92328,-0.76101 -14.36188,-2.28302 -4.37524,-1.52199 -8.21169,-3.5524 -11.50895,-6.08874 -3.23393,-2.53668 -5.77107,-5.4831 -7.60994,-8.84384 -1.83875,-3.36112 -2.75723,-6.88076 -2.75723,-10.55894 0,-3.67715 0.91848,-7.16543 2.75723,-10.46241 1.83874,-3.3611 4.37612,-6.30787 7.60994,-8.84384 3.29732,-2.53669 7.13371,-4.5657 11.50895,-6.08699 4.4386,-1.522 9.22573,-2.28301 14.36188,-2.28301 3.23393,0 6.30855,0.31708 9.22534,0.95126 2.98025,0.63064 5.77082,1.52553 8.3706,2.66352 2.59974,1.1415 4.94495,2.50496 7.03742,4.08898 2.15582,1.522 4.05882,3.20256 5.70746,5.0406 h 9.89188 v -4.98634 c -1.80103,-2.19494 -3.86145,-4.22569 -6.20042,-6.0757 -1.31518,-1.04639 -2.70543,-2.00822 -4.15216,-2.90662 -0.35829,-0.21139 -0.71626,-0.44392 -1.0816,-0.66235 -0.23254,-0.14094 -0.46929,-0.28187 -0.70393,-0.39812 -3.58986,-2.03286 -7.49893,-3.68347 -11.73595,-4.93948 -5.13616,-1.522 -10.5883,-2.28303 -16.35846,-2.28303 z"
       id="path7766-6-1-0-3" /><path
       inkscape:connector-curvature="0"
       id="path4525-0-2-8-5-1-9-4-0-6-4-5-5"
       style="font-style:normal;font-variant:normal;font-weight:normal;font-stretch:normal;font-size:medium;line-height:1.25;font-family:'Deming EP';-inkscape-font-specification:'Deming EP';letter-spacing:0px;word-spacing:0px;fill:#ffffff;fill-opacity:1;stroke:none;stroke-width:0.432191"
       d="m 435.03925,370.12751 h -10.02738 v -20.02478 h 10.02738 z"
       sodipodi:nodetypes="ccccc" /><path
       inkscape:connector-curvature="0"
       id="path4525-0-2-8-5-1-9-4-0-6-4-5-5-2"
       style="font-style:normal;font-variant:normal;font-weight:normal;font-stretch:normal;font-size:medium;line-height:1.25;font-family:'Deming EP';-inkscape-font-specification:'Deming EP';letter-spacing:0px;word-spacing:0px;fill:#ffffff;fill-opacity:1;stroke:none;stroke-width:0.432191"
       d="m 435.03925,420.10273 h -10.02738 v -20.02478 h 10.02738 z"
       sodipodi:nodetypes="ccccc" /></g><path
     inkscape:connector-curvature="0"
     id="path4545-4-0-6-0-4-6-5-7-7-76-9-8-7-1-9-2-6"
     d="m 141.11766,328.78206 v -24.56308 h 719.99998 v 24.56308 H 771.65307 661.68171 530.99798 230.58223 Z"
     style="font-style:normal;font-variant:normal;font-weight:normal;font-stretch:normal;font-size:medium;line-height:1.25;font-family:'Deming EP';-inkscape-font-specification:'Deming EP';letter-spacing:0px;word-spacing:0px;fill:#ffffff;fill-opacity:1;stroke:none;stroke-width:3.08006" /><path
     inkscape:connector-curvature="0"
     id="path4545-4-0-6-0-4-6-5-7-7-76-9-8-7-1-9-2-6-4-2"
     d="M 141.11766,573.9456 V 549.38252 H 861.11764 V 573.9456 H 771.65307 661.68171 530.99798 230.58223 Z"
     style="font-style:normal;font-variant:normal;font-weight:normal;font-stretch:normal;font-size:medium;line-height:1.25;font-family:'Deming EP';-inkscape-font-specification:'Deming EP';letter-spacing:0px;word-spacing:0px;fill:#ffffff;fill-opacity:1;stroke:none;stroke-width:3.08006" /></g></svg>
