<?xml version="1.0" encoding="UTF-8" standalone="no"?>
<!-- Uploaded to: SVG Repo, www.svgrepo.com, Generator: SVG Repo Mixer Tools -->

<svg
   fill="#000000"
   height="550"
   width="1400"
   version="1.1"
   id="Layer_1"
   viewBox="0 0 896.00174 352.00069"
   xml:space="preserve"
   sodipodi:docname="ticket-image-background.svg"
   inkscape:version="1.1.1 (c3084ef, 2021-09-22)"
   xmlns:inkscape="http://www.inkscape.org/namespaces/inkscape"
   xmlns:sodipodi="http://sodipodi.sourceforge.net/DTD/sodipodi-0.dtd"
   xmlns="http://www.w3.org/2000/svg"
   xmlns:svg="http://www.w3.org/2000/svg"><defs
   id="defs869" /><sodipodi:namedview
   id="namedview867"
   pagecolor="#ffffff"
   bordercolor="#999999"
   borderopacity="1"
   inkscape:pageshadow="0"
   inkscape:pageopacity="0"
   inkscape:pagecheckerboard="0"
   showgrid="false"
   inkscape:zoom="0.2328125"
   inkscape:cx="-453.15436"
   inkscape:cy="929.93288"
   inkscape:window-width="1920"
   inkscape:window-height="1147"
   inkscape:window-x="1728"
   inkscape:window-y="25"
   inkscape:window-maximized="1"
   inkscape:current-layer="Layer_1"
   showborder="true"
   fit-margin-top="0"
   fit-margin-left="0"
   fit-margin-right="0"
   fit-margin-bottom="0" />






<path
   id="path824"
   style="fill:#7ed321;fill-opacity:1;stroke-width:1"
   d="m 771.46874,40.502571 c -2.1299,-0.134751 -4.28603,0.672355 -5.81502,2.346254 -2.84149,3.111587 -6.90612,4.893273 -11.14752,4.89501 -3.06644,0 -6.02669,-0.925671 -8.56251,-2.682506 -3.28962,-2.277892 -7.80665,-1.458847 -10.08627,1.832504 l -41.91509,60.542617 c -0.67563,-0.43334 -1.4302,-0.76471 -2.25,-0.9575 L 647.78849,96.17768 c -3.53102,-0.82935 -7.13307,1.081392 -8.42876,4.47001 -2.64959,6.93094 -10.32168,10.96922 -17.52878,9.27751 -7.31393,-1.71688 -12.28948,-8.64076 -11.57128,-16.107524 0.34737,-3.610934 -2.0281,-6.923165 -5.56001,-7.752515 l -43.90383,-10.30252 c -3.53017,-0.829352 -7.13346,1.082642 -8.43002,4.471258 -2.64872,6.923127 -10.3265,10.968734 -17.52754,9.278768 -3.89316,-0.914457 -7.79631,1.503745 -8.71251,5.401261 0,0 -10.85547,46.259662 -10.86502,46.301342 l -49.46135,210.78541 h 14.89128 l 47.03384,-200.43413 7.05877,1.65625 c 0.55667,0.13026 1.11153,0.19375 1.66125,0.19375 3.28874,0 6.26746,-2.25502 7.05251,-5.59502 0.91446,-3.89837 -1.50412,-7.7993 -5.40251,-8.71376 l -7.05751,-1.65626 7.75377,-33.03756 c 9.79241,-0.16414 18.836,-5.266064 24.15254,-13.251279 l 32.97881,7.738764 c 1.51454,12.019945 10.39572,22.279715 22.59629,25.143795 11.91574,2.79548 24.63822,-2.28393 31.41631,-12.46627 l 32.97882,7.73751 c 0.0938,0.0234 0.30206,1.90121 0.34375,2.10876 0.43074,2.13547 1.12413,4.28671 2.03251,6.29626 2.726,6.03821 7.4812,11.14276 13.37002,14.19878 l -7.75501,33.04632 -7.05877,-1.65625 c -3.88969,-0.9136 -7.79757,1.50287 -8.71376,5.40126 -0.91445,3.89838 1.50412,7.80056 5.4025,8.71502 l 7.05752,1.65499 -11.52877,49.13385 c 0,0 -1.26039,5.3678 -1.26126,5.37127 l -8.46501,36.07506 c -5.8e-4,-0.003 -15.30569,65.21756 -16.97628,72.33889 h 14.89377 l 13.55753,-57.77636 14.40878,-61.41512 18.66379,-79.5339 9.13502,-13.19503 93.03768,64.41138 -12.61378,18.22503 c -2.27963,3.29223 -1.46009,7.80664 1.83126,10.08627 3.29222,2.27963 7.80702,1.45673 10.08751,-1.83375 0,0 16.68485,-24.10054 16.74129,-24.1813 2.24229,-3.23924 1.39323,-7.85391 -1.83125,-10.08752 0,0 -104.77051,-72.53401 -104.95896,-72.66514 -3.25836,-2.25618 -7.83693,-1.41939 -10.08877,1.83375 l -3.14626,4.54501 c -0.0868,-0.0234 -0.17103,-0.0541 -0.25875,-0.075 -3.57446,-0.84152 -6.7475,-2.9942 -8.86127,-5.99377 -0.0156,-0.0218 -0.0282,-0.0449 -0.0438,-0.0675 l 16.67502,-24.08505 c 0,0 5.96002,4.12452 5.96002,4.12626 3.16629,2.19192 7.80577,1.45934 10.08627,-1.83375 2.27963,-3.291351 1.46009,-7.80789 -1.83126,-10.08752 l -5.96001,-4.127508 19.31504,-27.898805 c 3.28613,1.233171 6.77963,1.871254 10.34627,1.871254 6.11984,0 12.0536,-1.90321 16.98628,-5.350011 l 27.84631,19.278788 c -2.9926,11.739443 1.51147,24.538402 11.81627,31.672562 10.07466,6.9761 23.76466,6.9247 33.80632,-0.0887 l 27.8463,19.28004 c -2.39686,9.4051 0.0182,19.49183 6.37252,26.79881 l -19.3213,27.91255 -5.96126,-4.12876 c -3.29047,-2.27963 -7.80751,-1.45547 -10.08626,1.83501 -2.27962,3.29221 -1.45934,7.8079 1.83375,10.08752 l 5.96001,4.12626 -109.61897,158.33405 h 17.63754 l 135.0878,-195.12538 c 2.27964,-3.29135 1.45884,-7.81001 -1.83251,-10.08876 -6.17888,-4.27704 -8.26964,-12.542 -4.86626,-19.2263 1.64654,-3.2323 0.64844,-7.1849 -2.33375,-9.25002 L 848.60014,92.641423 c -2.98393,-2.064259 -7.03229,-1.608236 -9.48128,1.070002 -2.84062,3.111588 -6.90523,4.89626 -11.14751,4.89626 -3.06643,0 -6.02507,-0.926916 -8.56002,-2.683755 -6.17888,-4.277017 -8.26964,-12.543229 -4.86626,-19.227538 1.64654,-3.232298 0.64844,-7.18364 -2.33375,-9.248768 L 775.13374,41.777573 c -1.11897,-0.774097 -2.38708,-1.194152 -3.665,-1.275002 z M 751.38619,108.1552 c -2.32711,-0.0264 -4.62523,1.06541 -6.05,3.12251 -2.27964,3.29222 -1.45635,7.80789 1.835,10.08752 l 24.61755,17.04378 c 3.26007,2.25705 7.8322,1.422 10.08752,-1.83375 2.27875,-3.29395 1.45759,-7.80876 -1.83376,-10.08752 l -24.61879,-17.04378 c -1.2346,-0.85421 -2.64123,-1.27291 -4.03752,-1.28876 z m 49.2376,34.08507 c -2.32694,-0.0266 -4.6247,1.06542 -6.05001,3.12251 -2.2805,3.29223 -1.45973,7.80914 1.8325,10.08877 0,0 24.56891,17.00866 24.61755,17.04254 3.1359,2.17107 7.79785,1.47621 10.08877,-1.83251 2.27963,-3.29135 1.45885,-7.8079 -1.8325,-10.08752 l -24.6188,-17.04378 c -1.23458,-0.85486 -2.64134,-1.27406 -4.03751,-1.29001 z m -235.19295,3.51501 c -3.22757,0.0692 -6.12573,2.30325 -6.89877,5.59251 -0.91446,3.89839 1.50375,7.79969 5.40126,8.71502 l 29.15006,6.84126 c 0.55754,0.13026 1.11316,0.1925 1.66375,0.1925 3.28874,0 6.26746,-2.25502 7.05252,-5.59501 0.91358,-3.89925 -1.50501,-7.80144 -5.40252,-8.71501 l -29.15005,-6.84002 c -0.60885,-0.14275 -1.21856,-0.20406 -1.81625,-0.19125 z m 58.30136,13.68128 c -3.22789,0.0692 -6.12573,2.30449 -6.89877,5.59376 -0.91446,3.89838 1.50374,7.79807 5.40127,8.71252 l 29.15005,6.84126 c 0.55753,0.13026 1.11317,0.19375 1.66375,0.19375 3.28875,0 6.26621,-2.25502 7.05127,-5.59501 0.91359,-3.89925 -1.505,-7.80056 -5.40251,-8.71502 l -29.15006,-6.84001 c -0.60899,-0.14275 -1.21725,-0.20407 -1.815,-0.19125 z m -83.40141,12.02627 c -3.36591,-0.0961 -6.4596,2.18017 -7.26127,5.59127 l -41.05133,174.94658 h 14.89378 l 38.61758,-164.57657 22.42629,5.26252 c 3.89837,0.91446 7.79719,-1.50499 8.71252,-5.40252 0.91533,-3.89751 -1.50414,-7.79931 -5.40252,-8.71376 l -29.48255,-6.91752 c -0.48611,-0.11419 -0.97166,-0.17627 -1.4525,-0.19 z m 58.23261,13.66378 c -3.36979,-0.096 -6.45709,2.18143 -7.25877,5.59251 -0.91445,3.89839 1.50374,7.79932 5.40126,8.71377 l 58.99012,13.84377 -32.55131,138.72402 h 14.89252 l 33.43132,-142.47027 c 0.91359,-3.89838 -1.50462,-7.79932 -5.40126,-8.71377 L 600.0184,185.31661 c -0.48708,-0.1142 -0.9736,-0.17629 -1.455,-0.19 z m 191.06287,58.83262 c -2.32715,-0.0263 -4.62524,1.06665 -6.05001,3.12375 l -72.63765,104.9177 h 17.63504 l 66.92263,-96.66393 c 2.27964,-3.29222 1.45885,-7.80789 -1.8325,-10.08753 -1.23459,-0.85485 -2.64121,-1.2742 -4.03751,-1.28999 z" />
</svg>
